UnifrakturMaguntia.sfdir
StartChar: notdef
Encoding: 0 0 0
Width: 1208
VWidth: 2065
Flags: MW
HStem: 0 45<346.005 861.994> 1403 45<346.005 861.994>
VStem: 162 184<45 1403> 862 184<45 1403>
LayerCount: 2
Fore
SplineSet
162 24 m 2,0,-1
 162 1424 l 2,1,2
 162 1448 162 1448 184 1448 c 2,3,-1
 1023 1448 l 2,4,5
 1046 1448 1046 1448 1046 1424 c 2,6,-1
 1046 24 l 2,7,8
 1046 0 1046 0 1023 0 c 2,9,-1
 184 0 l 18,10,11
 162 0 162 0 162 24 c 2,0,-1
346 68 m 2,12,13
 346 45 346 45 368 45 c 2,14,-1
 839 45 l 2,15,16
 862 45 862 45 862 68 c 2,17,-1
 862 1380 l 2,18,19
 862 1403 862 1403 839 1403 c 2,20,-1
 368 1403 l 18,21,22
 346 1403 346 1403 346 1380 c 2,23,-1
 346 68 l 2,12,13
EndSplineSet
EndChar
StartChar: exclam
Encoding: 33 33 2
Width: 504
VWidth: 2065
GlyphClass: 1
Flags: MW
HStem: -20 318<240 264> 1428 20<247 257>
VStem: 93 318<127 151> 234 36<473.007 684.395>
DStem2: 115 139 252 2 0.707107 0.707107<0 193.747>
LayerCount: 2
Back
SplineSet
252.667 473 m 0,0,1
 257.165 473.676 257.165 473.676 261.011 476.159 c 0,2,3
 264.296 479.296 264.296 479.296 266.498 483.292 c 0,2,3
 269.318 491.865 269.318 491.865 270 501 c 0,4,5
 301.766 857.924 301.766 857.924 386 1205 c 0,6,7
 389.995 1217.91 389.995 1217.91 395.222 1230.34 c 0,8,9
 401.641 1242.29 401.641 1242.29 411 1252 c 0,9,10
 416.418 1256.25 416.418 1256.25 421.555 1260.8 c 0,11,12
 423.859 1263.36 423.859 1263.36 425.562 1266.35 c 0,13,14
 426.842 1269.56 426.842 1269.56 427 1273 c 0,14,15
 426.56 1276.04 426.56 1276.04 425.222 1278.8 c 0,16,17
 423.536 1281.36 423.536 1281.36 421.336 1283.5 c 0,17,18
 416.448 1287.15 416.448 1287.15 411 1290 c 0,19,20
 325.501 1345.96 325.501 1345.96 270 1431 c 0,21,22
 267.177 1436.86 267.177 1436.86 263.443 1442.13 c 0,23,24
 261.214 1444.49 261.214 1444.49 258.508 1446.28 c 0,25,26
 255.559 1447.66 255.559 1447.66 252.333 1448 c 0,27,28
 249.067 1447.71 249.067 1447.71 246.065 1446.35 c 0,29,30
 243.306 1444.58 243.306 1444.58 241.032 1442.21 c 0,28,29
 237.216 1436.92 237.216 1436.92 234.333 1431 c 0,30,31
 178.679 1346.04 178.679 1346.04 93.333 1290 c 0,32,33
 87.8857 1287.15 87.8857 1287.15 82.998 1283.5 c 0,34,35
 80.7979 1281.35 80.7979 1281.35 79.1113 1278.8 c 0,36,37
 77.7734 1276.04 77.7734 1276.04 77.333 1273 c 0,37,38
 77.4912 1269.56 77.4912 1269.56 78.7705 1266.35 c 0,39,40
 80.4746 1263.36 80.4746 1263.36 82.7773 1260.8 c 0,40,41
 87.915 1256.25 87.915 1256.25 93.333 1252 c 0,42,43
 102.696 1242.29 102.696 1242.29 109.116 1230.34 c 0,44,45
 114.343 1217.91 114.343 1217.91 118.333 1205 c 0,45,46
 200.728 857.76 200.728 857.76 234.333 501 c 0,47,48
 235.171 491.684 235.171 491.684 238.232 482.997 c 0,49,50
 240.582 478.974 240.582 478.974 244.033 475.88 c 0,51,52
 248.048 473.486 248.048 473.486 252.667 473 c 0,0,1
  Spiro
    252.667 473 c
    270 501 c
    386 1205 c
    411 1252 c
    427 1273 c
    411 1290 c
    270 1431 c
    252.333 1448 c
    234.333 1431 c
    93.3333 1290 c
    77.3333 1273 c
    93.3333 1252 c
    118.333 1205 c
    234.333 501 c
    0 0 z
  EndSpiro
EndSplineSet
Fore
Refer: 801 -1 N 1 0 0 1 0 0 2
Refer: 15 46 N 1 0 0 1 0 0 2
EndChar
StartChar: numbersign
Encoding: 35 35 4
Width: 1215
VWidth: 2065
GlyphClass: 1
Flags: W
HStem: 0 21G<386.5 478.5 736.5 828.5> 296 109<82 378 487 728 837 1133> 646 109<82 378 487 728 837 1133> 1031 20G<386.5 478.5 736.5 828.5>
VStem: 378 109<0 296 405 646 755 1051> 728 109<0 296 405 646 755 1051>
LayerCount: 2
Fore
SplineSet
82 319 m 2,0,-1
 82 382 l 2,1,2
 82 405 82 405 105 405 c 18,3,-1
 355 405 l 10,4,5
 378 405 378 405 378 428 c 2,6,-1
 378 623 l 10,7,8
 378 646 378 646 355 646 c 2,9,-1
 105 646 l 2,10,11
 82 646 82 646 82 669 c 2,12,-1
 82 732 l 2,13,14
 82 755 82 755 105 755 c 18,15,-1
 355 755 l 10,16,17
 378 755 378 755 378 778 c 2,18,-1
 378 1028 l 2,19,20
 378 1051 378 1051 401 1051 c 2,21,-1
 464 1051 l 2,22,23
 487 1051 487 1051 487 1028 c 18,24,-1
 487 778 l 10,25,26
 487 755 487 755 510 755 c 2,27,-1
 705 755 l 10,28,29
 728 755 728 755 728 778 c 2,30,-1
 728 1028 l 2,31,32
 728 1051 728 1051 751 1051 c 2,33,-1
 814 1051 l 2,34,35
 837 1051 837 1051 837 1028 c 18,36,-1
 837 778 l 10,37,38
 837 755 837 755 860 755 c 2,39,-1
 1110 755 l 2,40,41
 1133 755 1133 755 1133 732 c 2,42,-1
 1133 669 l 2,43,44
 1133 646 1133 646 1110 646 c 18,45,-1
 860 646 l 10,46,47
 837 646 837 646 837 623 c 2,48,-1
 837 428 l 10,49,50
 837 405 837 405 860 405 c 2,51,-1
 1110 405 l 2,52,53
 1133 405 1133 405 1133 382 c 2,54,-1
 1133 319 l 2,55,56
 1133 296 1133 296 1110 296 c 18,57,-1
 860 296 l 10,58,59
 837 296 837 296 837 273 c 2,60,-1
 837 23 l 2,61,62
 837 0 837 0 814 0 c 2,63,-1
 751 0 l 2,64,65
 728 0 728 0 728 23 c 18,66,-1
 728 273 l 10,67,68
 728 296 728 296 705 296 c 10,69,-1
 510 296 l 26,70,71
 487 296 487 296 487 273 c 2,72,-1
 487 23 l 2,73,74
 487 0 487 0 464 0 c 2,75,-1
 401 0 l 2,76,77
 378 0 378 0 378 23 c 18,78,-1
 378 273 l 10,79,80
 378 296 378 296 355 296 c 2,81,-1
 105 296 l 2,82,83
 82 296 82 296 82 319 c 2,0,-1
487 428 m 26,84,85
 487 405 487 405 510 405 c 2,86,-1
 705 405 l 10,87,88
 728 405 728 405 728 428 c 10,89,-1
 728 623 l 26,90,91
 728 646 728 646 705 646 c 2,92,-1
 510 646 l 10,93,94
 487 646 487 646 487 623 c 10,95,-1
 487 428 l 26,84,85
EndSplineSet
AlternateSubs2: "Access All Alternates" numbersign.uppercase
Substitution2: "Uppercase Numbers" numbersign.uppercase
EndChar
StartChar: dollar
Encoding: 36 36 5
Width: 1321
VWidth: 2065
GlyphClass: 1
Flags: MW
HStem: -45 20<706 790> 1450 21<593 667>
VStem: 651 75<-134 -44.886 255.006 646.994 754.195 775.738 885.006 1154 1471.32 1558>
DStem2: 56 163 104 132 0.538662 0.842522<0 72.1392> 235.524 1179 286.409 1152 0.573704 0.819062<7.07833 87.6348> 386 840 348 553 0.881634 -0.471934<0 101.943> 485 363 401 86 0.793105 -0.609084<0 102.095> 745 1455 707 1168 0.881634 -0.471934<0 101.943> 978 994 940 707 0.881634 -0.471934<0 101.943> 1080 232 1119 187 0.526767 0.85001<0 63.8106> 1091 1403 1145 1388 0.258509 0.966009<0 72.5323>
LayerCount: 2
Fore
SplineSet
651 796 m 2,0,-1
 651 1166 l 10,1,2
 651 1199 651 1199 625 1211 c 16,3,4
 512 1265 512 1265 443 1265 c 3,5,6
 367 1265 367 1265 314.5 1191.5 c 128,-1,7
 262 1118 262 1118 262 1041 c 3,8,9
 262 908 262 908 450 806 c 0,10,11
 550 752 550 752 599 752 c 3,12,13
 613 752 613 752 623 754 c 0,14,15
 651 760 651 760 651 796 c 2,0,-1
726 231 m 2,16,17
 726 201 726 201 756 189 c 0,18,19
 832 157 832 157 893 157 c 3,20,21
 1033 157 1033 157 1096 257 c 0,22,23
 1138 325 1138 325 1138 426 c 3,24,25
 1138 603 1138 603 881 739 c 0,26,27
 811 776 811 776 770 776 c 3,28,29
 726 776 726 776 726 733 c 18,30,-1
 726 231 l 2,16,17
623 -26 m 16,31,32
 501 10 501 10 359 118 c 0,33,34
 252 200 252 200 200 200 c 131,-1,35
 148 200 148 200 125 165 c 256,36,37
 111 143 111 143 95 143 c 3,38,39
 68 143 68 143 68 169 c 3,40,41
 68 182 68 182 77 196 c 0,42,43
 206 397 206 397 352 397 c 3,44,45
 440 397 440 397 537 323 c 0,46,47
 558 307 558 307 622 262 c 0,48,49
 632 255 632 255 639 255 c 3,50,51
 651 255 651 255 651 279 c 2,52,-1
 651 624 l 2,53,54
 651 647 651 647 642.5 647 c 131,-1,55
 634 647 634 647 621 634 c 0,56,57
 531 544 531 544 429 544 c 3,58,59
 365 544 365 544 294 581 c 0,60,61
 117 673 117 673 117 841.5 c 131,-1,62
 117 1010 117 1010 279.5 1240.5 c 128,-1,63
 442 1471 442 1471 628 1471 c 11,64,65
 651 1471 651 1471 651 1495 c 26,66,-1
 651 1535 l 2,67,68
 651 1558 651 1558 674 1558 c 2,69,-1
 703 1558 l 2,70,71
 726 1558 726 1558 726 1535 c 18,72,-1
 726 1483 l 2,73,74
 726 1454 726 1454 752 1446 c 0,75,76
 779 1437 779 1437 822 1414 c 0,77,78
 927 1358 927 1358 1004 1358 c 3,79,80
 1080 1358 1080 1358 1100 1436 c 256,81,82
 1108 1467 1108 1467 1129 1467 c 11,83,84
 1156 1467 1156 1467 1156 1439 c 3,85,86
 1156 1430 1156 1430 1153 1418 c 0,87,88
 1081 1129 1081 1129 876 1129 c 3,89,90
 820 1129 820 1129 753 1152 c 0,91,92
 747 1154 747 1154 741 1154 c 3,93,94
 726 1154 726 1154 726 1134 c 2,95,-1
 726 909 l 2,96,97
 726 885 726 885 734.5 885 c 131,-1,98
 743 885 743 885 756 899 c 0,99,100
 840 989 840 989 938 989 c 3,101,102
 987 989 987 989 1036 963 c 0,103,104
 1253 847 1253 847 1253 623.5 c 131,-1,105
 1253 400 1253 400 1145 229 c 0,106,107
 973 -45 973 -45 748 -45 c 3,108,109
 726 -45 726 -45 726 -68 c 18,110,-1
 726 -111 l 2,111,112
 726 -134 726 -134 703 -134 c 2,113,-1
 674 -134 l 2,114,115
 651 -134 651 -134 651 -111 c 18,116,-1
 651 -61 l 2,117,118
 651 -33 651 -33 623 -26 c 16,31,32
EndSplineSet
EndChar
StartChar: ampersand
Encoding: 38 38 7
Width: 1210
VWidth: 2028
GlyphClass: 1
Flags: MW
HStem: -20 20<886.989 928.658> -20 20<496.328 515.339> 1391 20<499.333 525.333>
DStem2: 243.5 681 263.5 638 0.896201 0.443649<0 40.6904 247.117 335.825> 541.5 1376 403 1228.5 0.655855 -0.754887<20.5099 267.59> 568 203 629 194 0.287871 0.957669<0 8.9411 293.574 336.997> 849 762.5 786 568 0.923332 -0.384003<16.5186 231.769> 1051.5 181.5 1087.5 152.5 0.684129 0.729361<3.47718 88.4336>
LayerCount: 2
Back
SplineSet
1119 742 m 0,0,1
 1123.12 740.697 1123.12 740.697 1126.22 737.138 c 0,2,3
 1128.98 733.974 1128.98 733.974 1130.46 729.469 c 0,3,4
 1132.47 723.315 1132.47 723.315 1132 712 c 0,5,6
 1129 634 1129 634 1086 576 c 0,7,8
 1064.78 547.187 1064.78 547.187 1037.75 529.888 c 0,9,10
 1007.74 510.683 1007.74 510.683 975 508 c 0,10,11
 934 505 934 505 872 532 c 0,12,13
 824 553 824 553 801 552 c 0,14,15
 780.577 551.087 780.577 551.087 761.592 539.645 c 0,16,17
 744.489 529.337 744.489 529.337 730.959 511.669 c 0,17,18
 710.761 485.293 710.761 485.293 697 436 c 0,19,20
 690 410 690 410 680 362.5 c 128,-1,21
 670 315 670 315 666 299 c 0,21,22
 625.751 132.607 625.751 132.607 527 -4.5 c 0,23,24
 521.182 -12.5781 521.182 -12.5781 517.049 -15.7812 c 0,25,26
 513.842 -18.2676 513.842 -18.2676 510.449 -19.3672 c 0,27,28
 506.62 -20.6094 506.62 -20.6094 503 -20 c 0,28,29
 498.294 -19.208 498.294 -19.208 493.753 -15.166 c 0,30,31
 491.652 -13.2959 491.652 -13.2959 486.667 -7.33301 c 0,31,32
 477.301 3.86719 477.301 3.86719 469 8 c 0,33,34
 462.343 11.3145 462.343 11.3145 446.5 13.5 c 0,34,35
 332.498 29.2246 332.498 29.2246 250 79 c 0,36,37
 172.613 125.691 172.613 125.691 125.027 199.212 c 0,38,39
 75.8125 275.25 75.8125 275.25 69 363 c 0,39,40
 61 469 61 469 115 557 c 0,41,42
 155.688 622.935 155.688 622.935 232.901 674.591 c 0,43,44
 288.641 711.881 288.641 711.881 382 751 c 0,44,45
 384.169 751.909 384.169 751.909 402.594 759.559 c 128,-1,46
 421.018 767.208 421.018 767.208 425.378 769.152 c 128,-1,47
 429.739 771.096 429.739 771.096 445.075 777.87 c 128,-1,48
 460.411 784.645 460.411 784.645 467.325 788.465 c 128,-1,49
 474.238 792.285 474.238 792.285 486.119 798.716 c 128,-1,50
 498 805.146 498 805.146 507.1 811.374 c 128,-1,51
 516.198 817.602 516.198 817.602 524.984 824.53 c 0,46,47
 559.377 851.649 559.377 851.649 577.892 884.73 c 0,48,49
 599.131 922.679 599.131 922.679 597 962 c 0,49,50
 594.693 1004.55 594.693 1004.55 564.15 1047.36 c 0,51,52
 545.22 1073.89 545.22 1073.89 501 1115 c 0,52,53
 431 1180 431 1180 408 1217 c 0,54,55
 402.394 1225.97 402.394 1225.97 399.809 1228.95 c 0,56,57
 394.333 1235.25 394.333 1235.25 388 1237 c 0,58,59
 381.021 1238.93 381.021 1238.93 373.277 1235.6 c 0,60,61
 367.299 1233.04 367.299 1233.04 361 1227 c 0,59,60
 335.996 1203.04 335.996 1203.04 333.561 1161.14 c 0,61,62
 331.95 1133.44 331.95 1133.44 343 1089 c 0,62,63
 378 949 378 949 474 768 c 0,64,65
 651 436 651 436 869 246 c 0,66,67
 907.067 212.924 907.067 212.924 934.258 198.846 c 0,68,69
 974.718 177.898 974.718 177.898 1012 182 c 0,69,70
 1055 187 1055 187 1097 226 c 0,71,72
 1108.42 236.703 1108.42 236.703 1114.15 239.469 c 0,73,74
 1119.52 242.061 1119.52 242.061 1124.69 242.104 c 0,75,76
 1130.63 242.154 1130.63 242.154 1135 239 c 0,77,78
 1139.62 235.661 1139.62 235.661 1141.3 229.65 c 0,79,80
 1142.78 224.366 1142.78 224.366 1141.47 218.273 c 0,78,79
 1139.78 210.403 1139.78 210.403 1131 198 c 0,80,81
 1071 114 1071 114 963 11 c 0,82,83
 947.812 -3.40723 947.812 -3.40723 938.621 -9.39062 c 0,84,85
 923.521 -19.2217 923.521 -19.2217 909 -20 c 0,85,86
 893.573 -20.8262 893.573 -20.8262 876.604 -11.5967 c 0,87,88
 866.993 -6.37012 866.993 -6.37012 849 8 c 2,88,89
 737 97 l 1,90,91
 448 337 448 337 291 682 c 0,92,93
 240.382 793.438 240.382 793.438 224.1 880.803 c 0,94,95
 202.897 994.56 202.897 994.56 231 1089 c 0,95,96
 257.126 1176.79 257.126 1176.79 330.509 1260.09 c 0,97,98
 381.286 1317.73 381.286 1317.73 478 1394 c 0,98,99
 490.135 1403.57 490.135 1403.57 497.39 1406.67 c 0,100,101
 503.13 1409.13 503.13 1409.13 508.589 1409.56 c 0,102,103
 514.754 1410.06 514.754 1410.06 520 1408 c 0,103,104
 527.308 1405.14 527.308 1405.14 533.245 1397.04 c 0,105,106
 535.827 1393.52 535.827 1393.52 542 1382 c 0,106,107
 564 1341 564 1341 634 1269 c 0,108,109
 680.02 1221.6 680.02 1221.6 701.74 1191.39 c 0,110,111
 735.377 1144.6 735.377 1144.6 746 1099 c 0,111,112
 761.947 1030.54 761.947 1030.54 732.066 959.276 c 0,113,114
 705.915 896.901 705.915 896.901 648.215 845.211 c 0,114,115
 615.244 815.673 615.244 815.673 567.929 788.347 c 128,-1,116
 520.613 761.02 520.613 761.02 490.666 747.761 c 128,-1,117
 460.718 734.502 460.718 734.502 399 709 c 0,116,117
 325.524 678.638 325.524 678.638 291.25 655.295 c 0,118,119
 234.442 616.605 234.442 616.605 214 565 c 0,119,120
 193.904 514.271 193.904 514.271 208.763 454.399 c 0,121,122
 221.11 404.647 221.11 404.647 258 354 c 0,122,123
 303.649 291.326 303.649 291.326 365.573 253.625 c 0,124,125
 431.822 213.291 431.822 213.291 505 208 c 0,125,126
 524.899 206.562 524.899 206.562 539.539 208.703 c 0,127,128
 558.258 211.442 558.258 211.442 572 220 c 0,128,129
 592.526 232.783 592.526 232.783 604.921 259.869 c 0,130,131
 612.666 276.793 612.666 276.793 620 310 c 0,131,132
 625 333 625 333 641 413 c 128,-1,133
 657 493 657 493 668 536 c 0,133,134
 691.002 626.422 691.002 626.422 725.25 673.552 c 0,135,136
 748.819 705.986 748.819 705.986 779.287 724.817 c 0,137,138
 813.267 745.82 813.267 745.82 850 747 c 0,138,139
 884.086 748.095 884.086 748.095 930.835 729.388 c 0,140,141
 935.109 727.677 935.109 727.677 963.742 715.355 c 128,-1,142
 992.375 703.035 992.375 703.035 1008 698 c 0,141,142
 1030.96 690.603 1030.96 690.603 1047.01 691.608 c 0,143,144
 1057.57 692.271 1057.57 692.271 1066.26 696.15 c 0,145,146
 1075.88 700.44 1075.88 700.44 1082 708 c 0,146,147
 1085.07 711.795 1085.07 711.795 1089.35 719.903 c 128,-1,148
 1093.63 728.012 1093.63 728.012 1095.97 731.284 c 0,148,149
 1100.45 737.574 1100.45 737.574 1105.85 740.437 c 0,150,151
 1112.61 744.02 1112.61 744.02 1119 742 c 0,0,1
  Spiro
    1119 742 c
    1132 712 c
    1086 576 c
    975 508 c
    872 532 c
    801 552 c
    697 436 c
    666 299 c
    527 -4.5 c
    503 -20 c
    486.667 -7.3333 c
    469 8 c
    446.5 13.5 c
    250 79 c
    69 363 c
    115 557 c
    382 751 c
    597 962 c
    501 1115 c
    408 1217 c
    388 1237 c
    361 1227 c
    343 1089 c
    474 768 c
    869 246 c
    1012 182 c
    1097 226 c
    1135 239 c
    1131 198 c
    963 11 c
    909 -20 c
    849 8 c
    737 97 c
    291 682 c
    231 1089 c
    478 1394 c
    520 1408 c
    542 1382 c
    634 1269 c
    746 1099 c
    399 709 c
    214 565 c
    258 354 c
    505 208 c
    572 220 c
    620 310 c
    668 536 c
    850 747 c
    1008 698 c
    1082 708 c
    0 0 z
  EndSpiro
EndSplineSet
Fore
SplineSet
68 390 m 3,0,1
 68 576 68 576 266 695 c 0,2,3
 277 701 277 701 277 707.5 c 131,-1,4
 277 714 277 714 275 718 c 0,5,6
 215 856 215 856 215 981 c 3,7,8
 215 1139 215 1139 344 1274 c 24,9,10
 474 1411 474 1411 512 1411 c 3,11,12
 525 1411 525 1411 534 1396 c 0,13,14
 577 1320 577 1320 644 1258 c 0,15,16
 752 1157 752 1157 752 1047 c 3,17,18
 752 886 752 886 502 753 c 0,19,20
 492 748 492 748 492 741 c 131,-1,21
 492 734 492 734 495 728 c 0,22,23
 531 653 531 653 628 516 c 0,24,25
 641 497 641 497 650 497 c 131,-1,26
 659 497 659 497 664 518 c 8,27,28
 715 747 715 747 858 747 c 3,29,30
 893 747 893 747 955.5 719 c 128,-1,31
 1018 691 1018 691 1042 691 c 3,32,33
 1076 691 1076 691 1088 717 c 128,-1,34
 1100 743 1100 743 1113 743 c 3,35,36
 1132 743 1132 743 1132 719 c 3,37,38
 1132 639 1132 639 1090 582 c 0,39,40
 1036 508 1036 508 966 508 c 3,41,42
 929 508 929 508 876.5 530 c 128,-1,43
 824 552 824 552 803 552 c 3,44,45
 739 552 739 552 705 462 c 0,46,47
 701 451 701 451 701 441 c 3,48,49
 701 421 701 421 716 403 c 0,50,51
 902 181 902 181 999 181 c 3,52,53
 1043 181 1043 181 1102 231 c 0,54,55
 1115 242 1115 242 1122 242 c 27,56,57
 1142 242 1142 242 1142 224 c 3,58,59
 1142 184 1142 184 968 16 c 24,60,61
 931 -20 931 -20 909.5 -20 c 131,-1,62
 888 -20 888 -20 863 -2 c 0,63,64
 741 87 741 87 658 167 c 0,65,66
 646 179 646 179 636.5 179 c 131,-1,67
 627 179 627 179 622 165 c 0,68,69
 571 50 571 50 528 -3 c 0,70,71
 514 -20 514 -20 506 -20 c 155,-1,72
 498 -20 498 -20 486 -5.5 c 128,-1,73
 474 9 474 9 454 12 c 0,74,75
 279 38 279 38 186 128 c 0,76,77
 68 244 68 244 68 390 c 3,0,1
202 506 m 131,-1,79
 202 421 202 421 269 340 c 0,80,81
 379 207 379 207 521 207 c 3,82,83
 550 207 550 207 571 219 c 16,84,85
 583 227 583 227 583 235.5 c 131,-1,86
 583 244 583 244 574 253 c 0,87,88
 405 437 405 437 309 645 c 0,89,90
 304 656 304 656 298 656 c 131,-1,91
 292 656 292 656 285 651 c 0,92,78
 202 591 202 591 202 506 c 131,-1,79
333 1156 m 3,93,94
 333 1056 333 1056 455 805 c 0,95,96
 461 793 461 793 467.5 793 c 131,-1,97
 474 793 474 793 479 795 c 0,98,99
 597 862 597 862 597 956 c 3,100,101
 597 1023 597 1023 531 1086 c 0,102,103
 425 1188 425 1188 404 1224 c 0,104,105
 396 1238 396 1238 382.5 1238 c 131,-1,106
 369 1238 369 1238 355 1220 c 0,107,108
 333 1193 333 1193 333 1156 c 3,93,94
EndSplineSet
EndChar
StartChar: quotesingle
Encoding: 39 39 8
Width: 446
VWidth: 2065
GlyphClass: 1
Flags: MW
HStem: 901 547<236.001 269.999>
VStem: 237 32<901.006 1023.74>
LayerCount: 2
Fore
SplineSet
93 1289.5 m 131,-1,1
 93 1297 93 1297 108 1305 c 0,2,3
 194 1350 194 1350 236 1433 c 0,4,5
 243 1448 243 1448 253 1448 c 131,-1,6
 263 1448 263 1448 270 1433 c 0,7,8
 308 1352 308 1352 398 1305 c 0,9,10
 413 1297 413 1297 413 1289.5 c 131,-1,11
 413 1282 413 1282 401 1273 c 0,12,13
 374 1253 374 1253 355 1215 c 0,14,15
 279 1062 279 1062 269 927 c 0,16,17
 267 901 267 901 253 901 c 131,-1,18
 239 901 239 901 237 927 c 0,19,20
 227 1066 227 1066 151 1215 c 0,21,22
 130 1257 130 1257 105 1273 c 0,23,0
 93 1282 93 1282 93 1289.5 c 131,-1,1
EndSplineSet
EndChar
StartChar: parenleft
Encoding: 40 40 9
Width: 508
VWidth: 2065
GlyphClass: 1
Flags: MW
HStem: -407 20<535.499 561.999> 1428 20<535.5 562>
VStem: 138 203<350 691>
LayerCount: 2
Fore
SplineSet
138 520.5 m 131,-1,1
 138 1014 138 1014 294 1257 c 16,2,3
 417 1448 417 1448 550 1448 c 3,4,5
 578 1448 578 1448 578 1427 c 3,6,7
 578 1412 578 1412 541 1402 c 0,8,9
 448 1377 448 1377 415 1267 c 0,10,11
 341 1017 341 1017 341 520.5 c 131,-1,12
 341 24 341 24 415 -226 c 0,13,14
 448 -336 448 -336 541 -361 c 0,15,16
 578 -371 578 -371 578 -386 c 3,17,18
 578 -407 578 -407 550 -407 c 3,19,20
 417 -407 417 -407 294 -216 c 8,21,0
 138 27 138 27 138 520.5 c 131,-1,1
EndSplineSet
EndChar
StartChar: asterisk
Encoding: 42 42 11
Width: 966
VWidth: 2065
Flags: MW
VStem: 460 47<1296 1349>
LayerCount: 2
Fore
SplineSet
120 1365 m 3,0,1
 120 1375 120 1375 139 1376 c 0,2,3
 205 1378 205 1378 270 1443 c 0,4,5
 276 1451 276 1451 284 1451 c 131,-1,6
 292 1451 292 1451 296 1433 c 0,7,8
 315 1328 315 1328 441 1287 c 0,9,10
 444 1286 444 1286 449 1286 c 3,11,12
 460 1286 460 1286 460 1300 c 3,13,14
 460 1433 460 1433 365 1484 c 24,15,16
 352 1491 352 1491 352 1498 c 131,-1,17
 352 1505 352 1505 364 1511 c 24,18,19
 445 1551 445 1551 470 1617 c 8,20,21
 475 1630 475 1630 483.5 1630 c 131,-1,22
 492 1630 492 1630 497 1617 c 16,23,24
 522 1551 522 1551 603 1511 c 24,25,26
 615 1505 615 1505 615 1498 c 131,-1,27
 615 1491 615 1491 602 1484 c 24,28,29
 507 1433 507 1433 507 1300 c 3,30,31
 507 1286 507 1286 518 1286 c 259,32,33
 522 1286 522 1286 526 1287 c 0,34,35
 653 1330 653 1330 671 1433 c 0,36,37
 675 1451 675 1451 683 1451 c 131,-1,38
 691 1451 691 1451 697 1443 c 0,39,40
 762 1378 762 1378 828 1376 c 0,41,42
 847 1375 847 1375 847 1365 c 3,43,44
 847 1358 847 1358 838 1351 c 0,45,46
 781 1301 781 1301 770 1216 c 24,47,48
 768 1201 768 1201 759 1201 c 3,49,50
 753 1201 753 1201 744 1210 c 0,51,52
 696 1258 696 1258 624 1258 c 3,53,54
 580 1258 580 1258 539 1243 c 0,55,56
 528 1239 528 1239 528 1232 c 3,57,58
 528 1228 528 1228 534 1220 c 0,59,60
 603 1127 603 1127 694 1127 c 3,61,62
 703 1127 703 1127 711 1128 c 152,-1,63
 719 1129 719 1129 725 1129 c 11,64,65
 738 1129 738 1129 738 1120 c 3,66,67
 738 1114 738 1114 734 1106 c 0,68,69
 705 1050 705 1050 705 1001 c 3,70,71
 705 983 705 983 708.5 969 c 128,-1,72
 712 955 712 955 712 951 c 3,73,74
 712 939 712 939 703 939 c 3,75,76
 698 939 698 939 690 944 c 0,77,78
 645 972 645 972 590 972 c 3,79,80
 572 972 572 972 555.5 969.5 c 128,-1,81
 539 967 539 967 535 967 c 3,82,83
 523 967 523 967 523 976 c 3,84,85
 523 981 523 981 527 990 c 0,86,87
 545 1030 545 1030 545 1062 c 3,88,89
 545 1126 545 1126 496 1194 c 0,90,91
 490 1202 490 1202 483.5 1202 c 131,-1,92
 477 1202 477 1202 471 1194 c 0,93,94
 422 1126 422 1126 422 1062 c 3,95,96
 422 1030 422 1030 440 990 c 0,97,98
 444 981 444 981 444 976 c 3,99,100
 444 967 444 967 432 967 c 3,101,102
 428 967 428 967 411.5 969.5 c 128,-1,103
 395 972 395 972 377 972 c 3,104,105
 322 972 322 972 277 944 c 0,106,107
 269 939 269 939 264 939 c 3,108,109
 255 939 255 939 255 951 c 3,110,111
 255 955 255 955 258.5 969 c 128,-1,112
 262 983 262 983 262 1001 c 3,113,114
 262 1050 262 1050 233 1106 c 0,115,116
 229 1114 229 1114 229 1120 c 3,117,118
 229 1129 229 1129 242 1129 c 19,119,120
 248 1129 248 1129 256 1128 c 152,-1,121
 264 1127 264 1127 273 1127 c 3,122,123
 364 1127 364 1127 433 1220 c 0,124,125
 439 1228 439 1228 439 1232 c 3,126,127
 439 1239 439 1239 428 1243 c 0,128,129
 387 1258 387 1258 343 1258 c 3,130,131
 271 1258 271 1258 223 1210 c 0,132,133
 214 1201 214 1201 208 1201 c 3,134,135
 199 1201 199 1201 197 1216 c 24,136,137
 186 1301 186 1301 129 1351 c 0,138,139
 120 1358 120 1358 120 1365 c 3,0,1
EndSplineSet
EndChar
StartChar: plus
Encoding: 43 43 12
Width: 1215
VWidth: 2065
GlyphClass: 1
Flags: W
HStem: 0 21G<561 653.5> 471 109<82 553 662 1133> 1031 20G<561.5 654>
VStem: 553 109<0 471 580 1051>
LayerCount: 2
Fore
SplineSet
82 494 m 2,0,-1
 82 557 l 2,1,2
 82 580 82 580 105 580 c 18,3,-1
 530 580 l 10,4,5
 553 580 553 580 553 603 c 2,6,-1
 553 1028 l 2,7,8
 553 1051 553 1051 576 1051 c 2,9,-1
 639 1051 l 2,10,11
 662 1051 662 1051 662 1028 c 18,12,-1
 662 603 l 10,13,14
 662 580 662 580 685 580 c 2,15,-1
 1110 580 l 2,16,17
 1133 580 1133 580 1133 557 c 2,18,-1
 1133 494 l 2,19,20
 1133 471 1133 471 1110 471 c 18,21,-1
 685 471 l 10,22,23
 662 471 662 471 662 448 c 2,24,-1
 662 23 l 2,25,26
 662 0 662 0 639 0 c 2,27,-1
 576 0 l 2,28,29
 553 0 553 0 553 23 c 18,30,-1
 553 448 l 10,31,32
 553 471 553 471 530 471 c 2,33,-1
 105 471 l 2,34,35
 82 471 82 471 82 494 c 2,0,-1
EndSplineSet
AlternateSubs2: "Access All Alternates" plus.uppercase
Substitution2: "Uppercase Numbers" plus.uppercase
EndChar
StartChar: comma
Encoding: 44 44 13
Width: 444
VWidth: 2065
GlyphClass: 1
Flags: MW
HStem: 278 20<240 264>
VStem: 93 20<128 152> 386 25<87 152>
DStem2: 252 276 113 141 0.707107 -0.707107<0 193.747> 202.669 -223.335 237.001 -244.333 0.505226 0.862987<0 105.446>
LayerCount: 2
Fore
SplineSet
93 139.5 m 131,-1,1
 93 148 93 148 108 155 c 0,2,3
 197 200 197 200 236 283 c 0,4,5
 243 298 243 298 252 298 c 131,-1,6
 261 298 261 298 268 283 c 0,7,8
 311 197 311 197 396 155 c 0,9,10
 406 150 406 150 406 142 c 3,11,12
 406 14 406 14 268 -199 c 16,13,14
 236 -249 236 -249 218 -249 c 3,15,16
 204 -249 204 -249 204 -233 c 3,17,18
 204 -225 204 -225 210 -214 c 24,19,20
 255 -132 255 -132 255 -68 c 3,21,22
 255 62 255 62 108 125 c 24,23,0
 93 131 93 131 93 139.5 c 131,-1,1
EndSplineSet
EndChar
StartChar: hyphen
Encoding: 45 45 14
AltUni2: 0000ad.ffffffff.0
Width: 712
VWidth: 2065
GlyphClass: 1
Flags: MW
HStem: 330 150<115.297 521.703> 571 150<190.297 596.703>
LayerCount: 2
Fore
SplineSet
87 342 m 3,0,1
 87 346 87 346 89 352 c 2,2,-1
 122 458 l 2,3,4
 129 480 129 480 152 480 c 18,5,-1
 532 480 l 2,6,7
 550 480 550 480 550 468 c 3,8,9
 550 464 550 464 548 458 c 2,10,-1
 515 352 l 2,11,12
 508 330 508 330 485 330 c 26,13,-1
 105 330 l 18,14,15
 87 330 87 330 87 342 c 3,0,1
162 583 m 3,16,17
 162 587 162 587 164 593 c 2,18,-1
 197 699 l 2,19,20
 204 721 204 721 227 721 c 18,21,-1
 607 721 l 2,22,23
 625 721 625 721 625 709 c 3,24,25
 625 705 625 705 623 699 c 2,26,-1
 590 593 l 2,27,28
 583 571 583 571 560 571 c 26,29,-1
 180 571 l 18,30,31
 162 571 162 571 162 583 c 3,16,17
EndSplineSet
EndChar
StartChar: period
Encoding: 46 46 15
Width: 444
VWidth: 2065
GlyphClass: 1
Flags: MW
HStem: -20 318<240 264>
VStem: 93 318<127 151>
DStem2: 115 139 252 2 0.707107 0.707107<0 193.747>
LayerCount: 2
Back
SplineSet
93 139 m 128,-1,1
 93 141.814 93 141.814 94.4805 144.539 c 0,2,3
 95.7803 146.93 95.7803 146.93 98.127 149.002 c 0,3,4
 100.813 151.373 100.813 151.373 108 155 c 0,5,6
 193 198 193 198 236 283 c 0,7,8
 239.627 290.187 239.627 290.187 241.998 292.873 c 0,9,10
 244.07 295.22 244.07 295.22 246.461 296.519 c 0,11,12
 249.187 298 249.187 298 252 298 c 128,-1,12
 254.813 298 254.813 298 257.539 296.519 c 0,13,14
 259.93 295.22 259.93 295.22 262.002 292.873 c 0,14,15
 264.373 290.187 264.373 290.187 268 283 c 0,16,17
 311 198 311 198 396 155 c 0,18,19
 403.187 151.373 403.187 151.373 405.873 149.002 c 0,20,21
 408.22 146.93 408.22 146.93 409.519 144.539 c 0,22,23
 411 141.814 411 141.814 411 139 c 128,-1,23
 411 136.187 411 136.187 409.519 133.461 c 0,24,25
 408.22 131.07 408.22 131.07 405.873 128.998 c 0,25,26
 403.187 126.627 403.187 126.627 396 123 c 0,27,28
 311 80 311 80 268 -5 c 0,29,30
 264.373 -12.1875 264.373 -12.1875 262.002 -14.873 c 0,31,32
 259.93 -17.2197 259.93 -17.2197 257.539 -18.5195 c 0,33,34
 254.814 -20 254.814 -20 252 -20 c 128,-1,34
 249.186 -20 249.186 -20 246.461 -18.5195 c 0,35,36
 244.07 -17.2197 244.07 -17.2197 241.998 -14.873 c 0,36,37
 239.627 -12.1875 239.627 -12.1875 236 -5 c 0,38,39
 193 80 193 80 108 123 c 0,40,41
 100.813 126.627 100.813 126.627 98.127 128.998 c 0,42,43
 95.7803 131.07 95.7803 131.07 94.4805 133.461 c 0,44,45
 93 136.186 93 136.186 93 139 c 128,-1,1
  Spiro
    93 139 c
    108 155 c
    236 283 c
    252 298 c
    268 283 c
    396 155 c
    411 139 c
    396 123 c
    268 -5 c
    252 -20 c
    236 -5 c
    108 123 c
    0 0 z
  EndSpiro
EndSplineSet
Fore
SplineSet
93 139 m 131,-1,1
 93 148 93 148 108 155 c 0,2,3
 196 197 196 197 236 283 c 0,4,5
 243 298 243 298 252 298 c 131,-1,6
 261 298 261 298 268 283 c 0,7,8
 310 195 310 195 396 155 c 0,9,10
 411 148 411 148 411 139 c 131,-1,11
 411 130 411 130 396 123 c 0,12,13
 308 81 308 81 268 -5 c 0,14,15
 261 -20 261 -20 252 -20 c 131,-1,16
 243 -20 243 -20 236 -5 c 0,17,18
 194 83 194 83 108 123 c 0,19,0
 93 130 93 130 93 139 c 131,-1,1
EndSplineSet
EndChar
StartChar: slash
Encoding: 47 47 16
Width: 969
VWidth: 2065
GlyphClass: 1
Flags: MW
HStem: 0 20<39 213> 1428 20G<757.5 930.5>
DStem2: 34 24 238 24 0.446191 0.894938<42.2849 1612.71>
LayerCount: 2
Fore
SplineSet
922 1448 m 18,0,1
 939 1448 939 1448 939 1437 c 3,2,3
 939 1432 939 1432 935 1424 c 2,4,-1
 238 24 l 2,5,6
 226 0 226 0 198 0 c 10,7,-1
 48 0 l 18,8,9
 30 0 30 0 30 11 c 3,10,11
 30 16 30 16 34 24 c 10,12,-1
 732 1424 l 18,13,14
 744 1448 744 1448 771 1448 c 10,15,-1
 922 1448 l 18,0,1
EndSplineSet
EndChar
StartChar: zero
Encoding: 48 48 17
Width: 888
VWidth: 2065
Flags: MW
HStem: -20 21G<438.5 456.5> 1051 20G<431.5 449.5>
DStem2: 205 848 240 821 0.626759 0.779213<0.897789 58.2547> 457 243 397 33 0.805133 -0.593094<0 76.2418> 486 1023 426 813 0.805133 -0.593094<0 76.2418> 613 186 648 160 0.626759 0.779213<1.677 59.0339>
LayerCount: 2
Fore
SplineSet
63 503.5 m 131,-1,1
 63 755 63 755 401 1052 c 256,2,3
 423 1071 423 1071 441 1071 c 131,-1,4
 459 1071 459 1071 471.5 1046 c 128,-1,5
 484 1021 484 1021 506 1006 c 256,6,7
 825 799 825 799 825 547.5 c 131,-1,8
 825 296 825 296 487 -1 c 256,9,10
 465 -20 465 -20 447 -20 c 131,-1,11
 429 -20 429 -20 416.5 5 c 128,-1,12
 404 30 404 30 382 45 c 256,13,0
 63 252 63 252 63 503.5 c 131,-1,1
187 644 m 3,14,15
 187 427 187 427 526 192 c 0,16,17
 552 174 552 174 578 174 c 155,-1,18
 604 174 604 174 628 205 c 256,19,20
 701 305 701 305 701 407 c 3,21,22
 701 626 701 626 362 859 c 0,23,24
 334 878 334 878 309 878 c 131,-1,25
 284 878 284 878 260 846 c 256,26,27
 187 746 187 746 187 644 c 3,14,15
EndSplineSet
Substitution2: "Subscript forms" zero.inferior
Substitution2: "Superscript forms" zero.superior
AlternateSubs2: "Access All Alternates" zero.uppercase zero.tab zero.uppertab
Substitution2: "Tabular Numbers" zero.tab
Substitution2: "Uppercase Numbers" zero.uppercase
EndChar
StartChar: one
Encoding: 49 49 18
Width: 627
VWidth: 17
Flags: MW
HStem: -20 21G<386 396> 1051 20G<470.75 490.25>
VStem: 287 203<189.461 783.022>
DStem2: 73 759 101 724 0.779416 0.626506<0 470.761>
LayerCount: 2
Fore
SplineSet
490 994 m 2,0,-1
 490 365 l 2,1,2
 490 217 490 217 531 192 c 24,3,4
 543 185 543 185 543 173.5 c 131,-1,5
 543 162 543 162 529 157 c 0,6,7
 454 130 454 130 407 -3 c 0,8,9
 401 -20 401 -20 391 -20 c 131,-1,10
 381 -20 381 -20 371 -6 c 0,11,12
 287 111 287 111 287 365 c 2,13,-1
 287 685 l 2,14,15
 287 785 287 785 228 785 c 3,16,17
 177 785 177 785 118 737 c 0,18,19
 106 727 106 727 96 727 c 3,20,21
 74 727 74 727 74 749 c 3,22,23
 74 760 74 760 87 770 c 10,24,-1
 441 1055 l 18,25,26
 461 1071 461 1071 480.5 1071 c 131,-1,27
 500 1071 500 1071 500 1053 c 3,28,29
 500 1047 500 1047 497 1038 c 0,30,31
 490 1016 490 1016 490 994 c 2,0,-1
EndSplineSet
Substitution2: "Subscript forms" one.inferior
Substitution2: "Superscript forms" one.superior
AlternateSubs2: "Access All Alternates" one.uppercase one.tab one.uppertab
Substitution2: "Tabular Numbers" one.tab
Substitution2: "Uppercase Numbers" one.uppercase
EndChar
StartChar: two
Encoding: 50 50 19
Width: 888
VWidth: 2065
Flags: MW
HStem: -20 20<104.5 117> -20 20<644.5 672.25> 54 203<362 427> 1051 20<410 424>
DStem2: 99.5 787.5 129.5 756 0.729809 0.683651<0.359289 400.79> 641 204 602 0 0.91809 -0.396371<0 45.0542> 741.327 188.331 790.329 167.678 0.421853 0.906664<1.94601 84.553>
LayerCount: 2
Fore
SplineSet
93 -1 m 19,0,1
 93 10 93 10 102 27 c 0,2,3
 199 211 199 211 367 334 c 128,-1,4
 535 457 535 457 535 600 c 3,5,6
 535 709 535 709 417 808 c 0,7,8
 371 846 371 846 317 846 c 3,9,10
 230 846 230 846 136 761 c 0,11,12
 125 751 125 751 115 751 c 3,13,14
 95 751 95 751 95 775 c 3,15,16
 95 783 95 783 106 793 c 10,17,-1
 377 1047 l 18,18,19
 403 1071 403 1071 418 1071 c 131,-1,20
 433 1071 433 1071 438.5 1048.5 c 128,-1,21
 444 1026 444 1026 465 1015 c 16,22,23
 726 878 726 878 726 683 c 131,-1,24
 726 488 726 488 392 290 c 24,25,26
 373 279 373 279 373 271 c 3,27,28
 373 257 373 257 393 257 c 3,29,30
 542 257 542 257 654 199 c 0,31,32
 681 185 681 185 703 185 c 3,33,34
 747 185 747 185 772 250 c 0,35,36
 780 271 780 271 794 271 c 27,37,38
 815 271 815 271 815 251 c 3,39,40
 815 182 815 182 748 60 c 16,41,42
 704 -20 704 -20 658 -20 c 27,43,44
 644 -20 644 -20 630 -13 c 0,45,46
 486 54 486 54 393 54 c 3,47,48
 177 54 177 54 139 1 c 0,49,50
 124 -20 124 -20 111 -20 c 3,51,52
 93 -20 93 -20 93 -1 c 19,0,1
EndSplineSet
Substitution2: "Subscript forms" two.inferior
Substitution2: "Superscript forms" two.superior
AlternateSubs2: "Access All Alternates" two.uppercase two.tab two.uppertab
Substitution2: "Tabular Numbers" two.tab
Substitution2: "Uppercase Numbers" two.uppercase
EndChar
StartChar: three
Encoding: 51 51 20
Width: 848
VWidth: 1688
Flags: MW
HStem: -391 20<113 140> 1051 20<349 366>
DStem2: 31 779 60 747 0.729764 0.683699<0 411.747> 119 -349 128.5 -394.75 0.978234 0.207504<0 101.003> 262.5 366.5 281 322.5 0.917237 0.398343<0 94.837>
LayerCount: 2
Fore
SplineSet
35 775 m 3,0,1
 35 783 35 783 46 793 c 10,2,-1
 317 1047 l 18,3,4
 343 1071 343 1071 358 1071 c 131,-1,5
 373 1071 373 1071 378.5 1048.5 c 128,-1,6
 384 1026 384 1026 405 1015 c 16,7,8
 666 877 666 877 666 678 c 3,9,10
 666 600 666 600 602 526 c 0,11,12
 595 519 595 519 595 512.5 c 155,-1,13
 595 506 595 506 605 501 c 0,14,15
 741 441 741 441 741 213 c 3,16,17
 741 -137 741 -137 395 -315 c 0,18,19
 247 -391 247 -391 120 -391 c 3,20,21
 98 -391 98 -391 98 -370 c 27,22,23
 98 -354 98 -354 132 -348 c 0,24,25
 552 -272 552 -272 552 117 c 3,26,27
 552 359 552 359 413 359 c 0,28,29
 368 359 368 359 300 330 c 0,30,31
 286 324 286 324 277 324 c 3,32,33
 255 324 255 324 255 347 c 27,34,35
 255 363 255 363 279 375 c 0,36,37
 475 473 475 473 475 593 c 131,-1,38
 475 713 475 713 380 794 c 0,39,40
 320 845 320 845 254 845 c 3,41,42
 170 845 170 845 76 761 c 0,43,44
 64 751 64 751 55 751 c 3,45,46
 35 751 35 751 35 775 c 3,0,1
EndSplineSet
Substitution2: "Subscript forms" three.inferior
Substitution2: "Superscript forms" three.superior
AlternateSubs2: "Access All Alternates" three.uppercase three.tab three.uppertab
Substitution2: "Tabular Numbers" three.tab
Substitution2: "Uppercase Numbers" three.uppercase
EndChar
StartChar: four
Encoding: 52 52 21
Width: 949
VWidth: 17
Flags: MW
HStem: -407 20<663 673> 0 45<336 564.973 770.101 907.991> 1051 20G<179.5 194>
VStem: 567 203<-197.524 -0.0054 45.0056 551.524>
DStem2: 205 1068 175 1034 0.707107 -0.707107<2.82843 65.0538>
LayerCount: 2
Fore
SplineSet
41 19 m 3,0,1
 41 32 41 32 59 49 c 0,2,3
 371 337 371 337 371 619 c 3,4,5
 371 840 371 840 189 1021 c 0,6,7
 170 1039 170 1039 170 1052 c 27,8,9
 170 1071 170 1071 189 1071 c 3,10,11
 199 1071 199 1071 219 1053 c 0,12,13
 485 825 485 825 485 539 c 131,-1,14
 485 253 485 253 328 71 c 0,15,16
 318 60 318 60 318 52.5 c 131,-1,17
 318 45 318 45 336 45 c 2,18,-1
 544 45 l 2,19,20
 567 45 567 45 567 67 c 18,21,-1
 567 361 l 2,22,23
 567 631 567 631 651 747 c 0,24,25
 661 761 661 761 671 761 c 131,-1,26
 681 761 681 761 687 744 c 0,27,28
 734 611 734 611 809 584 c 0,29,30
 823 579 823 579 823 567.5 c 131,-1,31
 823 556 823 556 811 549 c 24,32,33
 770 525 770 525 770 371 c 2,34,-1
 770 68 l 2,35,36
 770 45 770 45 792 45 c 18,37,-1
 873 45 l 2,38,39
 908 45 908 45 908 22.5 c 131,-1,40
 908 0 908 0 873 0 c 18,41,-1
 792 0 l 2,42,43
 770 0 770 0 770 -22 c 3,44,45
 770 -266 770 -266 686 -393 c 0,46,47
 676 -407 676 -407 666 -407 c 131,-1,48
 656 -407 656 -407 650 -390 c 0,49,50
 603 -257 603 -257 528 -230 c 0,51,52
 514 -225 514 -225 514 -213.5 c 131,-1,53
 514 -202 514 -202 526 -195 c 24,54,55
 567 -169 567 -169 567 -22 c 3,56,57
 567 0 567 0 544 0 c 26,58,-1
 83 0 l 18,59,60
 41 0 41 0 41 19 c 3,0,1
EndSplineSet
Substitution2: "Subscript forms" four.inferior
Substitution2: "Superscript forms" four.superior
AlternateSubs2: "Access All Alternates" four.uppercase four.tab four.uppertab
Substitution2: "Tabular Numbers" four.tab
Substitution2: "Uppercase Numbers" four.uppercase
EndChar
StartChar: five
Encoding: 53 53 22
Width: 877
VWidth: 2065
Flags: MW
HStem: 401 206<136 230> 811 198<480 538> 1051 20<304 317 745 758>
DStem2: 58 429 103 420 0.333404 0.942784<6.51813 626.867> 150 -349 159.5 -394.75 0.978234 0.207504<0 101.003> 342 1056 328 839 0.909839 -0.414961<0 77.3087>
LayerCount: 2
Fore
SplineSet
53 406 m 3,0,1
 53 415 53 415 58 429 c 10,2,-1
 267 1020 l 18,3,4
 285 1071 285 1071 311 1071 c 27,5,6
 322 1071 322 1071 335 1061 c 0,7,8
 411 1009 411 1009 538 1009 c 3,9,10
 689 1009 689 1009 718 1047 c 0,11,12
 735 1071 735 1071 750 1071 c 131,-1,13
 765 1071 765 1071 765 1054 c 27,14,15
 765 1047 765 1047 762 1038 c 8,16,17
 686 811 686 811 492 811 c 3,18,19
 375 811 375 811 278 864 c 0,20,21
 263 872 263 872 257 855 c 18,22,-1
 176 625 l 10,23,24
 170 607 170 607 189 607 c 27,25,26
 750 607 750 607 750 132 c 3,27,28
 750 -105 750 -105 541.5 -248.5 c 144,-1,29
 333 -392 333 -392 152 -392 c 27,30,31
 130 -392 130 -392 130 -371 c 27,32,33
 130 -355 130 -355 164 -348 c 0,34,35
 574 -264 574 -264 574 68.5 c 131,-1,36
 574 401 574 401 138 401 c 27,37,38
 119 401 119 401 100 393 c 128,-1,39
 81 385 81 385 70 385 c 27,40,41
 53 385 53 385 53 406 c 3,0,1
EndSplineSet
AlternateSubs2: "Access All Alternates" five.uppercase five.tab five.uppertab
Substitution2: "Tabular Numbers" five.tab
Substitution2: "Uppercase Numbers" five.uppercase
EndChar
StartChar: six
Encoding: 54 54 23
Width: 888
VWidth: 2065
Flags: MW
HStem: -20 19<440 457> 1051 20<437 452>
DStem2: 246.5 888.5 293.5 864.5 0.643848 0.765153<0 11.8972> 457 243 397 33 0.805133 -0.593094<0 76.2418> 486 1023 426 813 0.805133 -0.593094<0 76.2418> 603.5 1425 608.5 1378.5 0.979293 0.20245<0 101.682> 628 207 663 181 0.6 0.8<0.199999 59.4>
LayerCount: 2
Fore
SplineSet
62 671 m 3,0,1
 62 1220 62 1220 480 1386 c 0,2,3
 622 1442 622 1442 711 1442 c 3,4,5
 733 1442 733 1442 733 1421 c 3,6,7
 733 1405 733 1405 699 1398 c 0,8,9
 317 1327 317 1327 253 967 c 0,10,11
 245 918 245 918 245 908 c 131,-1,12
 245 898 245 898 250.5 898 c 131,-1,13
 256 898 256 898 268 914 c 0,14,15
 391 1071 391 1071 446 1071 c 3,16,17
 459 1071 459 1071 471.5 1045.5 c 128,-1,18
 484 1020 484 1020 506 1006 c 0,19,20
 826 799 826 799 826 552.5 c 131,-1,21
 826 306 826 306 487 -1 c 0,22,23
 466 -20 466 -20 447.5 -20 c 131,-1,24
 429 -20 429 -20 415.5 7 c 128,-1,25
 402 34 402 34 382 45 c 0,26,27
 62 221 62 221 62 671 c 3,0,1
244 693 m 27,28,29
 244 366 244 366 490 217 c 0,30,31
 536 189 536 189 573 189 c 131,-1,32
 610 189 610 189 635 218 c 0,33,34
 701 295 701 295 701 407 c 27,35,36
 701 619 701 619 397 833 c 0,37,38
 352 865 352 865 320 865 c 3,39,40
 244 865 244 865 244 693 c 27,28,29
EndSplineSet
AlternateSubs2: "Access All Alternates" six.uppercase six.tab six.uppertab
Substitution2: "Tabular Numbers" six.tab
Substitution2: "Uppercase Numbers" six.uppercase
EndChar
StartChar: seven
Encoding: 55 55 24
Width: 827
VWidth: 2065
Flags: MW
HStem: -407 21<414 428> 386 75<295 719> 796 201<472 560> 1050 21<237 263 788 802>
DStem2: 89.668 806.835 132.331 789.67 0.326346 0.94525<0 72.2956> 306 1050 267 846 0.91809 -0.396371<0 45.0542> 572 664 615 653 0.456091 0.889933<9.82264 449.472>
LayerCount: 2
Fore
SplineSet
93 800 m 3,0,1
 93 869 93 869 160 991 c 16,2,3
 204 1071 204 1071 250 1071 c 27,4,5
 264 1071 264 1071 278 1064 c 0,6,7
 412 997 412 997 515 997 c 3,8,9
 740 997 740 997 769 1048 c 0,10,11
 782 1071 782 1071 793 1071 c 3,12,13
 816 1071 816 1071 816 1049 c 27,14,15
 816 1040 816 1040 806 1022 c 0,16,17
 602 654 602 654 564 482 c 0,18,19
 563 477 563 477 563 474 c 3,20,21
 563 461 563 461 579 461 c 2,22,-1
 702 461 l 2,23,24
 719 461 719 461 719 445 c 2,25,-1
 719 403 l 2,26,27
 719 386 719 386 702 386 c 18,28,-1
 559 386 l 10,29,30
 536 386 536 386 531 364 c 16,31,32
 504 244 504 244 504 145 c 3,33,34
 504 -151 504 -151 577 -190 c 0,35,36
 590 -197 590 -197 590 -205.5 c 131,-1,37
 590 -214 590 -214 579 -223 c 0,38,39
 487 -298 487 -298 439 -392 c 0,40,41
 431 -407 431 -407 420.5 -407 c 131,-1,42
 410 -407 410 -407 401 -389 c 0,43,44
 352 -291 352 -291 352 -177 c 3,45,46
 352 75 352 75 447 365 c 0,47,48
 449 370 449 370 449 374 c 3,49,50
 449 386 449 386 431 386 c 2,51,-1
 312 386 l 2,52,53
 295 386 295 386 295 403 c 2,54,-1
 295 445 l 2,55,56
 295 461 295 461 312 461 c 18,57,-1
 459 461 l 2,58,59
 481 461 481 461 488 480 c 0,60,61
 519 581 519 581 618 772 c 0,62,63
 624 783 624 783 624 790 c 3,64,65
 624 801 624 801 609 801 c 2,66,-1
 602 801 l 1,67,68
 558 796 558 796 507 796 c 3,69,70
 356 796 356 796 254 852 c 0,71,72
 229 866 229 866 205 866 c 3,73,74
 161 866 161 866 136 801 c 0,75,76
 128 780 128 780 114 780 c 27,77,78
 93 780 93 780 93 800 c 3,0,1
EndSplineSet
AlternateSubs2: "Access All Alternates" seven.uppercase seven.tab seven.uppertab
Substitution2: "Tabular Numbers" seven.tab
Substitution2: "Uppercase Numbers" seven.uppercase
EndChar
StartChar: eight
Encoding: 56 56 25
Width: 888
VWidth: 2065
Flags: MW
HStem: -20 20<435.337 452.337> 1418 20<466 483>
DStem2: 229.666 1214.33 263.666 1184.33 0.636383 0.771373<0 50.3514> 367 982 247 814 0.85086 -0.525392<0 321.392> 448 245 416.612 28.9385 0.875951 -0.482401<0 76.7341> 515.665 1382.83 434 1191 0.82404 -0.566532<0 41.3854> 638 205 672 175 0.636383 0.771373<0 50.3514>
LayerCount: 2
Fore
SplineSet
63 416 m 3,0,1
 63 572 63 572 304 747 c 0,2,3
 314 754 314 754 314 762 c 131,-1,4
 314 770 314 770 303 778 c 0,5,6
 155 884 155 884 155 1015 c 3,7,8
 155 1195 155 1195 432 1416 c 0,9,10
 459 1438 459 1438 474.5 1438 c 131,-1,11
 490 1438 490 1438 500 1412.5 c 128,-1,12
 510 1387 510 1387 529 1374 c 0,13,14
 733 1242 733 1242 733 1117 c 131,-1,15
 733 992 733 992 587 879 c 0,16,17
 575 870 575 870 575 862.5 c 131,-1,18
 575 855 575 855 585 849 c 0,19,20
 825 689 825 689 825 498 c 27,21,22
 825 275 825 275 487 1 c 0,23,24
 461 -20 461 -20 445 -20 c 131,-1,25
 429 -20 429 -20 419 6.5 c 128,-1,26
 409 33 409 33 391 43 c 0,27,28
 63 230 63 230 63 416 c 3,0,1
227 521 m 3,29,30
 227 373 227 373 487 222 c 0,31,32
 546 188 546 188 584 188 c 131,-1,33
 622 188 622 188 644 213 c 0,34,35
 710 291 710 291 710 371 c 3,36,37
 710 546 710 546 388 725 c 0,38,39
 380 730 380 730 371 730 c 131,-1,40
 362 730 362 730 352 722 c 0,41,42
 227 623 227 623 227 521 c 3,29,30
258 1144 m 3,43,44
 258 1039 258 1039 501 900 c 0,45,46
 509 895 509 895 517.5 895 c 131,-1,47
 526 895 526 895 535 905 c 0,48,49
 586 957 586 957 586 1010 c 3,50,51
 586 1101 586 1101 433 1195 c 0,52,53
 376 1231 376 1231 339 1231 c 131,-1,54
 302 1231 302 1231 280 1204 c 128,-1,55
 258 1177 258 1177 258 1144 c 3,43,44
EndSplineSet
AlternateSubs2: "Access All Alternates" eight.uppercase eight.tab eight.uppertab
Substitution2: "Tabular Numbers" eight.tab
Substitution2: "Uppercase Numbers" eight.uppercase
EndChar
StartChar: less
Encoding: 60 60 29
Width: 1215
VWidth: 2065
GlyphClass: 1
Flags: MW
DStem2: 213 541 362 541 0.707107 0.707107<82.737 1029.55> 362 509 213 510 0.70661 -0.707604<-22.598 923.489>
LayerCount: 2
Fore
SplineSet
206 525.5 m 131,-1,1
 206 533 206 533 213 541 c 10,2,-1
 925 1253 l 18,3,4
 933 1261 933 1261 941 1261 c 155,-1,5
 949 1261 949 1261 957 1253 c 18,6,-1
 1000 1210 l 2,7,8
 1008 1202 1008 1202 1008 1194.5 c 131,-1,9
 1008 1187 1008 1187 999 1178 c 2,10,-1
 362 541 l 18,11,12
 354 533 354 533 354 525 c 131,-1,13
 354 517 354 517 362 509 c 10,14,-1
 999 -129 l 18,15,16
 1006 -137 1006 -137 1006 -144.5 c 131,-1,17
 1006 -152 1006 -152 999 -160 c 2,18,-1
 957 -202 l 2,19,20
 948 -210 948 -210 940 -210 c 131,-1,21
 932 -210 932 -210 924 -202 c 2,22,-1
 213 510 l 2,23,0
 206 518 206 518 206 525.5 c 131,-1,1
EndSplineSet
EndChar
StartChar: at
Encoding: 64 64 33
Width: 1445
VWidth: 2065
GlyphClass: 1
Flags: MW
HStem: -20 21<563 572 1030 1038.5> 1051 20<746.25 756.75>
VStem: 842 200<213.689 775.717>
DStem2: 776 1044 652 884 0.802568 -0.596561<0 228.934> 831 224 825 163 0.805951 0.591982<-107.663 -29.2481> 1280.67 -26.3359 1315.33 -55.6729 0.643424 0.76551<0 100.867>
LayerCount: 2
Fore
SplineSet
68 517 m 3,0,1
 68 851 68 851 283 1075 c 0,2,3
 478 1278 478 1278 742 1278 c 3,4,5
 1025 1278 1025 1278 1217 1050 c 0,6,7
 1377 861 1377 861 1377 596 c 3,8,9
 1377 326 1377 326 1195 153 c 0,10,11
 1080 46 1080 46 1067 7 c 16,12,13
 1059 -20 1059 -20 1033 -20 c 3,14,15
 1027 -20 1027 -20 1015.5 -8 c 128,-1,16
 1004 4 1004 4 990 7 c 0,17,18
 866 33 866 33 846 156 c 0,19,20
 844 168 844 168 836 168 c 3,21,22
 832 168 832 168 825 163 c 10,23,-1
 599 -3 l 18,24,25
 576 -20 576 -20 567 -20 c 131,-1,26
 558 -20 558 -20 558 -3 c 3,27,28
 558 19 558 19 496 77 c 0,29,30
 339 224 339 224 339 461 c 131,-1,31
 339 698 339 698 534 843 c 0,32,33
 670 945 670 945 732 1055 c 0,34,35
 741 1071 741 1071 751 1071 c 131,-1,36
 761 1071 761 1071 776 1057 c 0,37,38
 956 877 956 877 1080 854 c 0,39,40
 1107 849 1107 849 1107 836.5 c 131,-1,41
 1107 824 1107 824 1090 816 c 0,42,43
 1042 793 1042 793 1042 734 c 2,44,-1
 1042 262 l 2,45,46
 1042 232 1042 232 1050 213 c 0,47,48
 1068 171 1068 171 1116.5 171 c 131,-1,49
 1165 171 1165 171 1226 251 c 0,50,51
 1332 391 1332 391 1332 595 c 3,52,53
 1332 842 1332 842 1183 1020 c 0,54,55
 1005 1233 1005 1233 741 1233 c 3,56,57
 494 1233 494 1233 315 1043 c 0,58,59
 113 826 113 826 113 517 c 3,60,61
 113 175 113 175 321 -45 c 0,62,63
 519 -255 519 -255 789 -255 c 3,64,65
 1095 -255 1095 -255 1327 29 c 0,66,67
 1345 51 1345 51 1359 51 c 3,68,69
 1377 51 1377 51 1377 32 c 3,70,71
 1377 19 1377 19 1364 2 c 0,72,73
 1133 -300 1133 -300 787 -300 c 3,74,75
 496 -300 496 -300 283 -70 c 0,76,77
 68 163 68 163 68 517 c 3,0,1
535 576 m 3,78,79
 535 350 535 350 656 221 c 0,80,81
 700 173 700 173 731 173 c 131,-1,82
 762 173 762 173 781 187 c 10,83,-1
 831 224 l 18,84,85
 842 232 842 232 842 246 c 2,86,-1
 842 748 l 2,87,88
 842 760 842 760 829 764 c 0,89,90
 754 788 754 788 681 865 c 0,91,92
 667 879 667 879 656.5 879 c 131,-1,93
 646 879 646 879 632 863 c 0,94,95
 535 745 535 745 535 576 c 3,78,79
EndSplineSet
EndChar
StartChar: A
Encoding: 65 65 34
Width: 1490
VWidth: 2065
GlyphClass: 1
Flags: MW
HStem: -20 20<651 706 1211 1264> 1451 20<385 481 1400 1417>
VStem: 1059 226<278.446 1210.27>
DStem2: 61 1285 108 1255 0.551592 0.834114<-72.6621 0> 154 221 185 175 0.836244 0.548357<0.699155 72.9452> 163 899 203 677 0.921171 -0.389158<0 123.24> 230 513 268 471 0.72032 0.693642<0 72.8591> 625 315 487 61 0.655921 -0.75483<0 101.21> 749 1382 613 1126 0.666947 -0.745105<0 100.042> 928 169 968 131 0.700209 0.713938<0.878693 72.1352> 1410 1484 1445 1442 0.759257 0.650791<-73.214 -0.759257> 1412 169 1452 129 0.707107 0.707107<0 73.5391>
LayerCount: 2
Back
SplineSet
322 523 m 17,0,-1
 268 471 l 9,1,-1
 230 513 l 17,2,-1
 283 563 l 9,3,-1
 322 523 l 17,0,-1
1445 1442 m 17,0,-1
 1389 1394 l 9,1,-1
 1353 1438 l 17,2,-1
 1410 1484 l 9,3,-1
 1445 1442 l 17,0,-1
487 61 m 5,0,-1
 235 349 l 5,1,-1
 418 163 l 5,2,-1
 625 315 l 5,3,-1
 877 25 l 5,4,-1
 698 207 l 5,5,-1
 487 61 l 5,0,-1
108 1255 m 17,0,-1
 67 1193 l 9,1,-1
 20 1225 l 17,2,-1
 61 1285 l 9,3,-1
 108 1255 l 17,0,-1
1019 183 m 17,4,-1
 968 131 l 9,5,-1
 928 169 l 17,6,-1
 978 221 l 9,7,-1
 1019 183 l 17,4,-1
246 215 m 17,4,-1
 185 175 l 9,5,-1
 154 221 l 17,6,-1
 215 261 l 9,7,-1
 246 215 l 17,4,-1
1504 181 m 21,4,-1
 1452 129 l 13,5,-1
 1412 169 l 21,6,-1
 1464 221 l 13,7,-1
 1504 181 l 21,4,-1
163 899 m 21,0,-1
 535 745 l 13,1,-1
 279 829 l 29,2,-1
 203 677 l 5,3,-1
 -171 835 l 13,4,-1
 71 751 l 29,5,-1
 163 899 l 21,0,-1
613 1126 m 1,0,-1
 357 1412 l 1,1,-1
 543 1228 l 1,2,-1
 749 1382 l 1,3,-1
 1005 1096 l 1,4,-1
 823 1276 l 1,5,-1
 613 1126 l 1,0,-1
EndSplineSet
Fore
SplineSet
-50 982 m 3,0,1
 -50 1123 -50 1123 41 1256 c 0,2,3
 188 1471 188 1471 428.5 1471 c 131,-1,4
 669 1471 669 1471 788.5 1338 c 128,-1,5
 908 1205 908 1205 908 1012 c 3,6,7
 908 724 908 724 506 406 c 0,8,9
 482 387 482 387 482 374 c 3,10,11
 482 356 482 356 526 350 c 0,12,13
 605 339 605 339 688 243.5 c 128,-1,14
 771 148 771 148 855 148 c 3,15,16
 910 148 910 148 957 199 c 0,17,18
 1059 308 1059 308 1059 456 c 2,19,-1
 1059 1176 l 2,20,21
 1059 1212 1059 1212 1027.5 1212 c 131,-1,22
 996 1212 996 1212 996 1238.5 c 131,-1,23
 996 1265 996 1265 1023 1272 c 0,24,25
 1198 1317 1198 1317 1380 1460 c 0,26,27
 1394 1471 1394 1471 1408 1471 c 3,28,29
 1432 1471 1432 1471 1432 1447 c 3,30,31
 1432 1431 1432 1431 1415 1416 c 0,32,33
 1285 1305 1285 1305 1285 1184 c 2,34,-1
 1285 302 l 2,35,36
 1285 150 1285 150 1365 150 c 3,37,38
 1393 150 1393 150 1435 192 c 0,39,40
 1449 206 1449 206 1464 206 c 3,41,42
 1490 206 1490 206 1490 180 c 3,43,44
 1490 167 1490 167 1478 155 c 2,45,-1
 1360 35 l 2,46,47
 1306 -20 1306 -20 1242 -20 c 3,48,49
 1091 -20 1091 -20 1069 152 c 16,50,51
 1064 191 1064 191 1045.5 191 c 131,-1,52
 1027 191 1027 191 998 161 c 0,53,54
 823 -20 823 -20 677 -20 c 3,55,56
 555 -20 555 -20 453 98.5 c 128,-1,57
 351 217 351 217 281 217 c 3,58,59
 249 217 249 217 217 196 c 0,60,61
 203 187 203 187 189 187 c 3,62,63
 165 187 165 187 165 212 c 3,64,65
 165 228 165 228 184 241 c 0,66,67
 683 563 683 563 683 885 c 3,68,69
 683 1047 683 1047 579 1163 c 8,70,71
 440 1319 440 1319 295 1319 c 131,-1,72
 150 1319 150 1319 88 1225 c 0,73,74
 37 1148 37 1148 37 1071 c 3,75,76
 37 951 37 951 216 877 c 0,77,78
 409 797 409 797 409 686 c 3,79,80
 409 611 409 611 294 496 c 0,81,82
 281 483 281 483 269 483 c 11,83,84
 242 483 242 483 242 512 c 3,85,86
 242 524 242 524 256 537 c 0,87,88
 283 561 283 561 283 586 c 3,89,90
 283 643 283 643 146 701 c 0,91,92
 -50 784 -50 784 -50 982 c 3,0,1
EndSplineSet
AlternateSubs2: "Access All Alternates" A.modern A.modern2
AlternateSubs2: "Modern A" A.modern A.modern2
Substitution2: "Modern variants" A.modern
EndChar
StartChar: B
Encoding: 66 66 35
Width: 1680
VWidth: 2065
GlyphClass: 1
Flags: MW
HStem: -45 20<904 1001> 1451 20<350 447 1118 1196>
DStem2: 131 264 157 215 0.879707 0.475517<0 83.691> 387 729 427 689 0.74666 0.665206<3.25815 72.9147> 631 387 518 121 0.726363 -0.687311<0 100.746> 723 1350 575 1102 0.626278 -0.7796<0 100.652> 814 1240 864 1215 0.452692 0.891667<0.342949 72.8972> 911 749 937 700 0.879721 0.47549<0 770.956> 1459 1221 1226 1050 0.276097 -0.96113<0 100.023> 1437 840 1346 565 0.780869 -0.624695<0 100.732> 1382 182 1419 140 0.753425 0.657534<-72.3425 0>
LayerCount: 2
Back
SplineSet
387 729 m 25,12,-1
 441 778 l 1,13,-1
 482 738 l 1,14,-1
 427 689 l 1,15,-1
 387 729 l 25,12,-1
897 1280 m 17,16,-1
 864 1215 l 9,17,-1
 814 1240 l 17,18,-1
 847 1305 l 9,19,-1
 897 1280 l 17,16,-1
1226 1050 m 1,20,-1
 1120 1419 l 1,21,-1
 1207 1172 l 1,22,-1
 1459 1221 l 1,23,-1
 1565 852 l 1,24,-1
 1480 1093 l 1,25,-1
 1226 1050 l 1,20,-1
575 1102 m 1,26,-1
 334 1402 l 1,27,-1
 510 1208 l 1,28,-1
 723 1350 l 1,29,-1
 964 1051 l 1,30,-1
 792 1241 l 1,31,-1
 575 1102 l 1,26,-1
1419 140 m 17,32,-1
 1364 92 l 9,33,-1
 1327 135 l 17,34,-1
 1382 182 l 9,35,-1
 1419 140 l 17,32,-1
518 121 m 1,36,-1
 239 385 l 1,37,-1
 440 217 l 1,38,-1
 631 387 l 1,39,-1
 910 124 l 1,40,-1
 714 288 l 1,41,-1
 518 121 l 1,36,-1
1346 565 m 1,42,-1
 1046 805 l 1,43,-1
 1260 654 l 1,44,-1
 1437 840 l 1,45,-1
 1737 600 l 1,46,-1
 1528 748 l 1,47,-1
 1346 565 l 1,42,-1
205 304 m 17,48,-1
 131 264 l 9,49,-1
 157 215 l 17,50,-1
 231 255 l 9,51,-1
 205 304 l 17,48,-1
911 749 m 25,52,-1
 1589 1116 l 25,53,-1
 1616 1067 l 25,54,-1
 937 700 l 25,55,-1
 911 749 l 25,52,-1
EndSplineSet
Fore
SplineSet
-119 1031 m 131,-1,1
 -119 1205 -119 1205 27.5 1338 c 128,-1,2
 174 1471 174 1471 398 1471 c 3,3,4
 624 1471 624 1471 754 1311 c 0,5,6
 772 1289 772 1289 785 1269.5 c 128,-1,7
 798 1250 798 1250 808 1250 c 131,-1,8
 818 1250 818 1250 827 1268 c 0,9,10
 929 1471 929 1471 1159 1471 c 3,11,12
 1386 1471 1386 1471 1475 1164 c 0,13,14
 1496 1091 1496 1091 1530 1091 c 3,15,16
 1542 1091 1542 1091 1554 1097.5 c 128,-1,17
 1566 1104 1566 1104 1578 1104 c 3,18,19
 1603 1104 1603 1104 1603 1078 c 3,20,21
 1603 1061 1603 1061 1578 1047 c 2,22,-1
 1332 914 l 2,23,24
 1302 897 1302 897 1302 885 c 131,-1,25
 1302 873 1302 873 1340 866 c 0,26,27
 1423 850 1423 850 1486 800 c 0,28,29
 1612 700 1612 700 1612 505.5 c 131,-1,30
 1612 311 1612 311 1392 117 c 256,31,32
 1209 -45 1209 -45 951 -45 c 131,-1,33
 693 -45 693 -45 474 162 c 0,34,35
 372 258 372 258 281 258 c 3,36,37
 237 258 237 258 195 236 c 0,38,39
 180 228 180 228 166 228 c 3,40,41
 141 228 141 228 141 253 c 3,42,43
 141 270 141 270 167 284 c 0,44,45
 662 552 662 552 662 811 c 3,46,47
 662 992 662 992 553.5 1127.5 c 128,-1,48
 445 1263 445 1263 293.5 1263 c 131,-1,49
 142 1263 142 1263 58.5 1173 c 128,-1,50
 -25 1083 -25 1083 -25 977 c 131,-1,51
 -25 871 -25 871 43.5 784 c 128,-1,52
 112 697 112 697 230 697 c 131,-1,53
 348 697 348 697 411 752 c 0,54,55
 428 767 428 767 441 767 c 3,56,57
 469 767 469 767 469 740 c 3,58,59
 469 727 469 727 452 712 c 0,60,61
 362 633 362 633 208 633 c 131,-1,62
 54 633 54 633 -32.5 745 c 128,-1,0
 -119 857 -119 857 -119 1031 c 131,-1,1
548 438.5 m 131,-1,64
 548 420 548 420 581 405 c 0,65,66
 639 380 639 380 686 334 c 0,67,68
 959 76 959 76 1107 76 c 131,-1,69
 1255 76 1255 76 1356 160 c 0,70,71
 1432 223 1432 223 1432 337 c 3,72,73
 1432 495 1432 495 1300 601 c 0,74,75
 1133 735 1133 735 1035 735 c 3,76,77
 1001 735 1001 735 975 721 c 0,78,79
 958 712 958 712 946 712 c 3,80,81
 920 712 920 712 920 738 c 3,82,83
 920 754 920 754 949 770 c 2,84,-1
 1279 949 l 2,85,86
 1298 959 1298 959 1298 971 c 128,-1,87
 1298 983 1298 983 1279 998 c 0,88,89
 1230 1033 1230 1033 1210 1102 c 0,90,91
 1135 1365 1135 1365 1036.5 1365 c 131,-1,92
 938 1365 938 1365 878 1244 c 0,93,94
 856 1200 856 1200 856 1166.5 c 131,-1,95
 856 1133 856 1133 864 1103 c 0,96,97
 883 1030 883 1030 883 958 c 3,98,99
 883 740 883 740 574 479 c 0,100,63
 548 457 548 457 548 438.5 c 131,-1,64
EndSplineSet
EndChar
StartChar: C
Encoding: 67 67 36
Width: 1295
VWidth: 2065
GlyphClass: 1
Flags: MW
HStem: -45 20<753.875 808.5> 1451 20<552.375 592.326 1035.05 1063>
DStem2: 432.147 412.343 281 165.5 0.618363 -0.785892<0 100.528> 829.864 881.677 715 616 0.722913 -0.690939<0 100.53> 724.5 1236.5 757.5 1191.5 0.778651 0.627457<0 63.3278> 731.5 273.599 761 226 0.849683 0.527293<0 72.968> 798.305 1353.01 747.725 1328.88 0.463306 -0.886198<0 57.8091> 1121.16 1444.88 1030.19 1170.11 0.781062 -0.624454<0 100.528> 1218.33 149.812 1247.83 102.214 0.849683 0.527294<0 72.9685> 1283.21 1341.69 1328.76 1309.13 0.581003 0.813901<0 72.9739>
LayerCount: 2
Back
SplineSet
774 1276 m 21,0,-1
 724.5 1236.5 l 5,1,-1
 757.5 1191.5 l 5,2,-1
 809 1233 l 13,3,-1
 774 1276 l 21,0,-1
281 165.5 m 5,4,-1
 43.6611 467.14 l 5,5,-1
 217.553 271.235 l 5,6,-1
 432.147 412.343 l 5,7,-1
 669.481 110.703 l 5,8,-1
 499.923 301.999 l 5,9,-1
 281 165.5 l 5,4,-1
798.305 1353.01 m 21,10,-1
 825.086 1301.77 l 13,11,-1
 775.5 1275.75 l 21,12,-1
 747.725 1328.88 l 13,13,-1
 798.305 1353.01 l 21,10,-1
1371.5 1369 m 21,14,-1
 1328.76 1309.13 l 13,15,-1
 1283.21 1341.69 l 21,16,-1
 1325.6 1401.09 l 13,17,-1
 1371.5 1369 l 21,14,-1
1030.19 1170.11 m 5,18,-1
 730.4 1409.79 l 5,19,-1
 944.329 1258.62 l 5,20,-1
 1121.16 1444.88 l 5,21,-1
 1420.94 1205.21 l 5,22,-1
 1212.28 1352.88 l 5,23,-1
 1030.19 1170.11 l 5,18,-1
823.5 264.786 m 21,24,-1
 761 226 l 13,25,-1
 731.5 273.599 l 21,26,-1
 793.5 312.074 l 13,27,-1
 823.5 264.786 l 21,24,-1
715 616 m 5,28,-1
 437.533 881.192 l 5,29,-1
 637.289 711.742 l 5,30,-1
 829.864 881.677 l 5,31,-1
 1107.33 616.483 l 5,32,-1
 912.511 781.982 l 5,33,-1
 715 616 l 5,28,-1
1310.33 141 m 21,34,-1
 1247.83 102.214 l 13,35,-1
 1218.33 149.812 l 21,36,-1
 1280.33 188.288 l 13,37,-1
 1310.33 141 l 21,34,-1
959.323 1171.22 m 5,0,-1
 1199 1471 l 5,1,-1
EndSplineSet
Fore
SplineSet
68 741 m 155,-1,1
 68 1048 68 1048 217.5 1259.5 c 128,-1,2
 367 1471 367 1471 573 1471 c 3,3,4
 731 1471 731 1471 806 1339 c 0,5,6
 814 1325 814 1325 823.5 1325 c 131,-1,7
 833 1325 833 1325 842 1332 c 2,8,-1
 984 1448 l 10,9,10
 1012 1471 1012 1471 1051 1471 c 131,-1,11
 1090 1471 1090 1471 1160.5 1414 c 128,-1,12
 1231 1357 1231 1357 1263 1357 c 131,-1,13
 1295 1357 1295 1357 1307 1375 c 0,14,15
 1321 1395 1321 1395 1334 1395 c 27,16,17
 1364 1395 1364 1395 1364 1367 c 27,18,19
 1364 1357 1364 1357 1353 1343 c 0,20,21
 1204 1153 1204 1153 1125 1153 c 131,-1,22
 1046 1153 1046 1153 988 1204 c 128,-1,23
 930 1255 930 1255 883 1255 c 131,-1,24
 836 1255 836 1255 797 1223 c 0,25,26
 728 1165 728 1165 728 1091 c 3,27,28
 728 980 728 980 883 831 c 0,29,30
 1072 648 1072 648 1072 547 c 3,31,32
 1072 413 1072 413 784 240 c 0,33,34
 764 228 764 228 756 228 c 27,35,36
 729 228 729 228 729 255 c 27,37,38
 729 272 729 272 758 290 c 0,39,40
 830 335 830 335 830 403 c 3,41,42
 830 505 830 505 667.5 661.5 c 128,-1,43
 505 818 505 818 505 938 c 155,-1,44
 505 1058 505 1058 627 1157 c 2,45,-1
 756 1262 l 2,46,47
 767 1271 767 1271 767 1281 c 131,-1,48
 767 1291 767 1291 761 1302 c 0,49,50
 709 1384 709 1384 618 1384 c 3,51,52
 464 1384 464 1384 382 1225 c 128,-1,53
 300 1066 300 1066 300 899 c 3,54,55
 300 582 300 582 483.5 346.5 c 128,-1,56
 667 111 667 111 978 111 c 19,57,58
 1146 111 1146 111 1260 176 c 0,59,60
 1274 184 1274 184 1282 184 c 27,61,62
 1309 184 1309 184 1309 153 c 27,63,64
 1309 140 1309 140 1288 127 c 0,65,66
 1011 -45 1011 -45 782 -45 c 27,67,68
 448 -45 448 -45 258 194.5 c 128,-1,0
 68 434 68 434 68 741 c 155,-1,1
EndSplineSet
EndChar
StartChar: D
Encoding: 68 68 37
Width: 1487
VWidth: 2065
GlyphClass: 1
Flags: MW
HStem: -45 20<720 782> 1451 20<551 613>
DStem2: -2.599 139.95 37.5 100 0.757952 0.652311<4.33288 73.3525> 344.5 543.501 364.5 491.247 0.948232 0.317578<2.36986 57.4753> 527 318.15 460 39 0.84459 -0.535414<0 92.8734> 645 899 535 630 0.728983 -0.684532<0 103.951> 537 1146 567 1098 0.886098 0.463498<4.33507 73.3553> 568 372 598 324 0.886098 0.463498<4.33507 73.3553> 879 1425 863 1136 0.917111 -0.398631<0 100.531> 1161.49 209.5 1235 204 0.703888 0.710311<0 47.8386>
LayerCount: 2
Back
SplineSet
568 372 m 25,0,-1
 633 406 l 1,1,-1
 663 358 l 1,2,-1
 598 324 l 25,3,-1
 568 372 l 25,0,-1
537 1146 m 25,0,-1
 602 1180 l 1,1,-1
 632 1132 l 1,2,-1
 567 1098 l 25,3,-1
 537 1146 l 25,0,-1
535 630 m 17,0,-1
 289 861 l 9,1,-1
 454 735 l 25,2,-1
 645 899 l 1,3,-1
 891 668 l 9,4,-1
 725 811 l 25,5,-1
 535 630 l 17,0,-1
93.0977 147.849 m 17,0,-1
 37.5 100 l 25,1,-1
 -2.59863 139.95 l 25,2,-1
 52.999 187.799 l 9,3,-1
 93.0977 147.849 l 17,0,-1
460 39 m 17,0,-1
 104 264.68 l 9,1,-1
 357 129 l 25,2,-1
 527 318.15 l 1,3,-1
 883 92.4697 l 9,4,-1
 621 234 l 25,5,-1
 460 39 l 17,0,-1
1235 204 m 17,0,-1
 1166.62 135 l 1,1,-1
 1161.49 209.5 l 1,2,-1
 1229.86 278.5 l 9,3,-1
 1235 204 l 17,0,-1
863 1136 m 1,0,-1
 511 1289 l 1,1,-1
 757 1199 l 1,2,-1
 879 1425 l 1,3,-1
 1231 1272 l 1,4,-1
 991 1360 l 1,5,-1
 863 1136 l 1,0,-1
EndSplineSet
Fore
SplineSet
-110 888 m 3,0,1
 -110 1129 -110 1129 89 1300 c 128,-1,2
 288 1471 288 1471 581 1471 c 27,3,4
 775 1471 775 1471 922 1406 c 0,5,6
 1419 1186 1419 1186 1419 704 c 3,7,8
 1419 390 1419 390 1219 188 c 0,9,10
 989 -45 989 -45 750 -45 c 3,11,12
 592 -45 592 -45 432 56.5 c 128,-1,13
 272 158 272 158 168 158 c 3,14,15
 100 158 100 158 61 121 c 0,16,17
 44 104 44 104 27 104 c 27,18,19
 2 104 2 104 2 129 c 27,20,21
 2 143 2 143 21 161 c 0,22,23
 212 342 212 342 384 342 c 3,24,25
 493 342 493 342 575 288 c 256,26,27
 799 141 799 141 946.5 141 c 131,-1,28
 1094 141 1094 141 1179 227 c 0,29,30
 1285 334 1285 334 1285 497 c 3,31,32
 1285 948 1285 948 813 1157 c 0,33,34
 662 1224 662 1224 477 1224 c 3,35,36
 271 1224 271 1224 120.5 1122 c 128,-1,37
 -30 1020 -30 1020 -30 841 c 3,38,39
 -30 718 -30 718 59.5 628.5 c 128,-1,40
 149 539 149 539 275 539 c 3,41,42
 331 539 331 539 374 553 c 0,43,44
 390 558 390 558 401 558 c 27,45,46
 427 558 427 558 427 532 c 27,47,48
 427 512 427 512 394 501 c 0,49,50
 341 483 341 483 275 483 c 3,51,52
 101 483 101 483 -4.5 597 c 128,-1,53
 -110 711 -110 711 -110 888 c 3,0,1
362 912 m 3,54,55
 362 1056 362 1056 580 1169 c 0,56,57
 593 1175 593 1175 603 1175 c 3,58,59
 629 1175 629 1175 629 1147 c 3,60,61
 629 1131 629 1131 606 1119 c 0,62,63
 560 1094 560 1094 560 1051 c 3,64,65
 560 978 560 978 701 846.5 c 152,-1,66
 842 715 842 715 842 594 c 3,67,68
 842 450 842 450 624 337 c 0,69,70
 611 331 611 331 601 331 c 3,71,72
 575 331 575 331 575 359 c 3,73,74
 575 375 575 375 598 387 c 0,75,76
 644 412 644 412 644 455 c 3,77,78
 644 525 644 525 503 659.5 c 152,-1,79
 362 794 362 794 362 912 c 3,54,55
EndSplineSet
EndChar
StartChar: E
Encoding: 69 69 38
Width: 1418
VWidth: 2065
GlyphClass: 1
Flags: MW
HStem: -45 20<753.875 808.5> 1451 20<552.375 592.326 1035.05 1063>
DStem2: 432.147 412.343 281 165.5 0.618363 -0.785892<0 100.528> 829.864 881.677 715 616 0.722913 -0.690939<0 100.53> 724.5 1236.5 757.5 1191.5 0.778651 0.627457<0 63.3278> 731.5 273.599 761 226 0.849683 0.527293<0 72.968> 798.305 1353.01 747.725 1328.88 0.463306 -0.886198<0 57.8091> 905.25 788.75 953.131 759.73 0.517809 0.855496<0 72.976> 1121.16 1444.88 1030.19 1170.11 0.781062 -0.624454<0 100.528> 1184.8 982.756 1071.93 716.236 0.728047 -0.685527<0 100.532> 1218.33 149.812 1247.83 102.214 0.849683 0.527294<0 72.9685> 1283.21 1341.69 1328.76 1309.13 0.581003 0.813901<0 72.9739> 1301.22 877.063 1349.11 848.043 0.517804 0.855499<0 72.9775>
LayerCount: 2
Back
SplineSet
1071.93 716.236 m 1,0,-1
 792.486 979.36 l 1,1,-1
 993.498 811.396 l 1,2,-1
 1184.8 982.756 l 1,3,-1
 1464.23 719.643 l 1,4,-1
 1268.19 883.692 l 1,5,-1
 1071.93 716.236 l 1,0,-1
991.222 822.662 m 17,6,-1
 953.131 759.73 l 9,7,-1
 905.25 788.75 l 17,8,-1
 943.026 851.188 l 9,9,-1
 991.222 822.662 l 17,6,-1
1387.2 910.974 m 17,10,-1
 1349.11 848.043 l 9,11,-1
 1301.22 877.063 l 17,12,-1
 1339 939.5 l 9,13,-1
 1387.2 910.974 l 17,10,-1
EndSplineSet
Fore
SplineSet
68 741 m 155,-1,1
 68 1048 68 1048 217.5 1259.5 c 128,-1,2
 367 1471 367 1471 573 1471 c 3,3,4
 731 1471 731 1471 806 1339 c 0,5,6
 814 1325 814 1325 823.5 1325 c 131,-1,7
 833 1325 833 1325 842 1332 c 2,8,-1
 984 1448 l 10,9,10
 1012 1471 1012 1471 1051 1471 c 131,-1,11
 1090 1471 1090 1471 1160.5 1414 c 128,-1,12
 1231 1357 1231 1357 1263 1357 c 131,-1,13
 1295 1357 1295 1357 1308 1376 c 128,-1,14
 1321 1395 1321 1395 1334 1395 c 27,15,16
 1364 1395 1364 1395 1364 1367 c 27,17,18
 1364 1357 1364 1357 1353 1343 c 0,19,20
 1196 1143 1196 1143 1128.5 1143 c 155,-1,21
 1061 1143 1061 1143 993.5 1199 c 128,-1,22
 926 1255 926 1255 881 1255 c 131,-1,23
 836 1255 836 1255 797 1223 c 0,24,25
 728 1165 728 1165 728 1091 c 3,26,27
 728 986 728 986 893 821 c 0,28,29
 902 812 902 812 910.5 812 c 131,-1,30
 919 812 919 812 927 825 c 0,31,32
 1027 997 1027 997 1120 997 c 3,33,34
 1172 997 1172 997 1218 952 c 0,35,36
 1274 898 1274 898 1303 898 c 3,37,38
 1314 898 1314 898 1320 907 c 0,39,40
 1334 930 1334 930 1348 930 c 11,41,42
 1376 930 1376 930 1376 901 c 19,43,44
 1376 894 1376 894 1368 879 c 0,45,46
 1271 690 1271 690 1152 690 c 3,47,48
 1098 690 1098 690 1032 754 c 0,49,50
 998 787 998 787 983 787 c 3,51,52
 960 787 960 787 960 759 c 27,53,54
 960 753 960 753 970 740 c 0,55,56
 1072 620 1072 620 1072 547 c 3,57,58
 1072 413 1072 413 784 240 c 0,59,60
 764 228 764 228 756 228 c 27,61,62
 729 228 729 228 729 255 c 27,63,64
 729 272 729 272 758 290 c 0,65,66
 830 335 830 335 830 403 c 3,67,68
 830 505 830 505 667.5 661.5 c 128,-1,69
 505 818 505 818 505 938 c 155,-1,70
 505 1058 505 1058 627 1157 c 2,71,-1
 756 1262 l 2,72,73
 768 1272 768 1272 768 1282 c 131,-1,74
 768 1292 768 1292 761 1302 c 0,75,76
 704 1384 704 1384 618 1384 c 3,77,78
 464 1384 464 1384 382 1225 c 128,-1,79
 300 1066 300 1066 300 899 c 3,80,81
 300 582 300 582 483.5 346.5 c 128,-1,82
 667 111 667 111 978 111 c 19,83,84
 1146 111 1146 111 1260 176 c 0,85,86
 1274 184 1274 184 1282 184 c 27,87,88
 1309 184 1309 184 1309 153 c 27,89,90
 1309 140 1309 140 1288 127 c 0,91,92
 1011 -45 1011 -45 782 -45 c 27,93,94
 448 -45 448 -45 258 194.5 c 128,-1,0
 68 434 68 434 68 741 c 155,-1,1
EndSplineSet
EndChar
StartChar: F
Encoding: 70 70 39
Width: 1408
VWidth: 2065
GlyphClass: 1
Flags: MW
HStem: -294 56<534 599> 1451 20<530 626>
DStem2: 86.997 404.332 83.667 348.436 0.995537 -0.0943701<1.95933 58.2708> 126 140 413.074 141.315 0.319174 0.947696<0 92.8726> 481.001 559.218 509.329 510.998 0.867491 0.497453<0.587313 63.0163> 837.24 762.811 689.93 516.408 0.646162 -0.7632<0 92.8713> 707.348 1095.66 739 1049.5 0.816584 0.577226<0 67.3554> 984.33 1361.3 954 1075.83 0.906746 -0.421678<0 92.8731> 973 637 1026 613 0.63255 0.774519<-19.4192 33.8685> 1171 877.906 999 670.27 0.759806 -0.65015<4.30823 271.122> 1288.33 1266.42 1318 1218.95 0.860657 0.509185<1.36273 72.0376>
LayerCount: 2
Back
SplineSet
481.001 559.218 m 17,0,-1
 535.667 590.565 l 1,1,-1
 563.995 542.346 l 1,2,-1
 509.329 510.998 l 9,3,-1
 481.001 559.218 l 17,0,-1
953.999 1075.83 m 17,8,-1
 571.8 1253.57 l 9,9,-1
 840.224 1151.76 l 25,10,-1
 984.331 1361.3 l 1,11,-1
 1366.53 1183.56 l 9,12,-1
 1088.42 1290.02 l 25,13,-1
 953.999 1075.83 l 17,8,-1
707.348 1095.66 m 25,0,-1
 763 1135 l 25,1,-1
 794.653 1088.84 l 25,2,-1
 739 1049.5 l 25,3,-1
 707.348 1095.66 l 25,0,-1
689.93 516.408 m 17,0,-1
 417.571 838.104 l 9,1,-1
 618.507 633.061 l 25,2,-1
 837.236 762.811 l 1,3,-1
 1109.6 441.114 l 9,4,-1
 901.816 654.429 l 25,5,-1
 689.93 516.408 l 17,0,-1
86.9971 404.332 m 17,0,-1
 145.008 398.833 l 1,1,-1
 141.677 342.938 l 1,2,-1
 83.667 348.436 l 9,3,-1
 86.9971 404.332 l 17,0,-1
413.074 141.315 m 17,0,-1
 278.542 -258.145 l 9,1,-1
 350.154 19.8652 l 25,2,-1
 126 140 l 1,3,-1
 260.534 539.461 l 9,4,-1
 185.378 251.316 l 25,5,-1
 413.074 141.315 l 17,0,-1
768 1128 m 24,0,-1
917 480 m 25,0,-1
 1267 907 l 25,1,-1
874.444 776.455 m 25,2,-1
 1293.94 417.499 l 25,3,-1
1040 990 m 25,4,-1
 1459.5 631.043 l 25,5,-1
1092 356 m 25,6,-1
 1442 783 l 25,7,-1
875 517 m 25,8,-1
 1225 944 l 25,9,-1
EndSplineSet
Fore
SplineSet
-57 917 m 131,-1,1
 -57 1132 -57 1132 116.5 1301.5 c 152,-1,2
 290 1471 290 1471 588 1471 c 3,3,4
 753 1471 753 1471 1034 1339 c 0,5,6
 1182 1269 1182 1269 1261 1269 c 3,7,8
 1294 1269 1294 1269 1313.5 1281 c 128,-1,9
 1333 1293 1333 1293 1347 1293 c 27,10,11
 1371 1293 1371 1293 1371 1267 c 3,12,13
 1371 1250 1371 1250 1348 1237 c 0,14,15
 1153 1127 1153 1127 1059 1033 c 0,16,17
 1050 1024 1050 1024 1037.5 1024 c 131,-1,18
 1025 1024 1025 1024 1014 1032 c 8,19,20
 704 1248 704 1248 414 1248 c 3,21,22
 240 1248 240 1248 137.5 1130 c 152,-1,23
 35 1012 35 1012 35 876.5 c 131,-1,24
 35 741 35 741 122.5 643 c 152,-1,25
 210 545 210 545 334 545 c 131,-1,26
 458 545 458 545 514 577 c 0,27,28
 526 584 526 584 534 584 c 27,29,30
 564 584 564 584 564 557 c 27,31,32
 564 545 564 545 544 531 c 0,33,34
 472 483 472 483 326.5 483 c 131,-1,35
 181 483 181 483 62 592.5 c 152,-1,0
 -57 702 -57 702 -57 917 c 131,-1,1
79 375 m 155,-1,37
 79 401 79 401 106 401 c 3,38,39
 174 401 174 401 254 376 c 0,40,41
 416 325 416 325 416 192 c 11,42,43
 416 143 416 143 390 73 c 128,-1,44
 364 3 364 3 364 -58 c 3,45,46
 364 -131 364 -131 407 -176 c 0,47,48
 467 -238 467 -238 559 -238 c 27,49,50
 725 -238 725 -238 813 -129 c 0,51,52
 876 -49 876 -49 876 89 c 3,53,54
 876 289 876 289 648 564 c 0,55,56
 538 697 538 697 538 817 c 3,57,58
 538 984 538 984 739 1117 c 0,59,60
 756 1128 756 1128 768 1128 c 3,61,62
 791 1128 791 1128 791 1101 c 27,63,64
 791 1087 791 1087 771 1071 c 0,65,66
 729 1038 729 1038 729 985 c 3,67,68
 729 887 729 887 873 719 c 0,69,70
 901 686 901 686 938 637 c 0,71,72
 947 626 947 626 955.5 626 c 131,-1,73
 964 626 964 626 973 637 c 2,74,-1
 1153 856 l 2,75,76
 1163 868 1163 868 1173 868 c 155,-1,77
 1183 868 1183 868 1192 860 c 2,78,-1
 1358 718 l 2,79,80
 1367 710 1367 710 1367 701 c 131,-1,81
 1367 692 1367 692 1359 682 c 2,82,-1
 1223 516 l 2,83,84
 1213 504 1213 504 1203 504 c 131,-1,85
 1193 504 1193 504 1185 511 c 2,86,-1
 1062 616 l 2,87,88
 1054 623 1054 623 1044 623 c 155,-1,89
 1034 623 1034 623 1026 613 c 2,90,-1
 1006 588 l 2,91,92
 995 575 995 575 995 563 c 131,-1,93
 995 551 995 551 1001 541 c 0,94,95
 1105 368 1105 368 1105 195 c 3,96,97
 1105 9 1105 9 1014 -115 c 0,98,99
 882 -294 882 -294 559 -294 c 27,100,101
 328 -294 328 -294 204 -172 c 0,102,103
 116 -85 116 -85 116 41 c 3,104,105
 116 112 116 112 139 181 c 128,-1,106
 162 250 162 250 162 284 c 3,107,108
 162 341 162 341 113 346 c 0,109,36
 79 349 79 349 79 375 c 155,-1,37
EndSplineSet
EndChar
StartChar: G
Encoding: 71 71 40
Width: 1576
VWidth: 2065
GlyphClass: 1
Flags: MW
HStem: -45 20<734.667 841.667> 1451 20<595 673 1177 1198>
DStem2: 352 558 123 380 0.299015 -0.954248<0 101.382> 659 230 686 180 0.891667 0.452692<1.44038 72.8972> 817 854 686 595 0.679252 -0.733905<0 101.099> 819 1266 846 1217 0.865735 0.500503<-120.54 20.9702 91.0923 169.792> 890 1307 842 1279 0.506422 -0.862286<-72.0488 -0.164245> 914 836 948 791 0.812868 0.582448<1.42732 620.564> 984 26 992 -29 0.98853 0.151025<-72.6844 -0.398158> 1269 1367 1120 1119 0.622163 -0.782888<0 101.454> 1386 884 1226 643 0.587862 -0.808961<0 100.902>
LayerCount: 2
Back
SplineSet
123 380 m 1,0,-1
 8 747 l 1,1,-1
 102 502 l 1,2,-1
 352 558 l 1,3,-1
 467 192 l 1,4,-1
 376 431 l 1,5,-1
 123 380 l 1,0,-1
1226 643 m 1,6,-1
 1000 954 l 1,7,-1
 1167 751 l 1,8,-1
 1386 884 l 1,9,-1
 1612 573 l 1,10,-1
 1450 771 l 1,11,-1
 1226 643 l 1,6,-1
1120 1119 m 1,12,-1
 881 1420 l 1,13,-1
 1056 1224 l 1,14,-1
 1269 1367 l 1,15,-1
 1509 1065 l 1,16,-1
 1338 1256 l 1,17,-1
 1120 1119 l 1,12,-1
686 595 m 1,18,-1
 425 877 l 1,19,-1
 615 697 l 1,20,-1
 817 854 l 1,21,-1
 1078 572 l 1,22,-1
 894 750 l 1,23,-1
 686 595 l 1,18,-1
842 1279 m 17,24,-1
 805 1342 l 9,25,-1
 855 1370 l 17,26,-1
 890 1307 l 9,27,-1
 842 1279 l 17,24,-1
750 214 m 17,28,-1
 686 180 l 9,29,-1
 659 230 l 17,30,-1
 724 263 l 9,31,-1
 750 214 l 17,28,-1
992 -29 m 17,32,-1
 920 -40 l 9,33,-1
 912 16 l 17,34,-1
 984 26 l 9,35,-1
 992 -29 l 17,32,-1
946 1340 m 6,0,-1
 819 1266 l 6,1,-1
 692 1192 l 6,2,3
840 783 m 25,0,0
 1503 1258 l 25,0,0
 1536 1213 l 25,0,0
 874 738 l 25,0,0
 840 783 l 25,0,0
EndSplineSet
Fore
SplineSet
68 699 m 3,0,1
 68 1039 68 1039 237.5 1255 c 128,-1,2
 407 1471 407 1471 638 1471 c 3,3,4
 798 1471 798 1471 876 1332 c 0,5,6
 885 1316 885 1316 895 1316 c 131,-1,7
 905 1316 905 1316 915 1322 c 2,8,-1
 1150 1459 l 2,9,10
 1171 1471 1171 1471 1187 1471 c 3,11,12
 1214 1471 1214 1471 1230 1439 c 0,13,14
 1261 1377 1261 1377 1309 1316.5 c 128,-1,15
 1357 1256 1357 1256 1443 1216 c 0,16,17
 1471 1203 1471 1203 1471 1185 c 131,-1,18
 1471 1167 1471 1167 1451 1152 c 2,19,-1
 1242 1002 l 2,20,21
 1224 989 1224 989 1224 978.5 c 131,-1,22
 1224 968 1224 968 1253 962 c 0,23,24
 1341 946 1341 946 1424.5 831 c 128,-1,25
 1508 716 1508 716 1508 537 c 3,26,27
 1508 155 1508 155 1080 -4 c 0,28,29
 1026 -24 1026 -24 956.5 -34.5 c 128,-1,30
 887 -45 887 -45 785 -45 c 3,31,32
 258 -45 258 -45 106 434 c 16,33,34
 68 554 68 554 68 699 c 3,0,1
329 801 m 3,35,36
 329 627 329 627 371 496 c 0,37,38
 525 15 525 15 862 15 c 3,39,40
 906 15 906 15 952.5 21.5 c 128,-1,41
 999 28 999 28 1052 48 c 0,42,43
 1285 136 1285 136 1285 407 c 3,44,45
 1285 561 1285 561 1188 695 c 128,-1,46
 1091 829 1091 829 1022 829 c 3,47,48
 1001 829 1001 829 983.5 816.5 c 128,-1,49
 966 804 966 804 954 804 c 11,50,51
 928 804 928 804 928 830 c 19,52,53
 928 846 928 846 949 861 c 10,54,-1
 1196 1038 l 18,55,56
 1209 1047 1209 1047 1209 1058 c 131,-1,57
 1209 1069 1209 1069 1192 1077 c 0,58,59
 1126 1111 1126 1111 1079 1170.5 c 128,-1,60
 1032 1230 1032 1230 1014 1282 c 0,61,62
 1009 1298 1009 1298 997 1298 c 131,-1,63
 985 1298 985 1298 977 1293 c 2,64,-1
 846 1217 l 2,65,66
 732 1151 732 1151 732 1052 c 3,67,68
 732 945 732 945 868 798 c 128,-1,69
 1004 651 1004 651 1004 523 c 3,70,71
 1004 347 1004 347 726 201 c 0,72,73
 709 192 709 192 695 192 c 3,74,75
 670 192 670 192 670 219 c 19,76,77
 670 236 670 236 698 250 c 0,78,79
 790 296 790 296 790 380 c 3,80,81
 790 483 790 483 655 628.5 c 128,-1,82
 520 774 520 774 520 897 c 3,83,84
 520 1095 520 1095 819 1266 c 0,85,86
 833 1274 833 1274 833 1284 c 131,-1,87
 833 1294 833 1294 828 1303 c 0,88,89
 776 1397 776 1397 670 1397 c 3,90,91
 519 1397 519 1397 424 1261 c 128,-1,92
 329 1125 329 1125 329 801 c 3,35,36
EndSplineSet
AlternateSubs2: "Access All Alternates" G.modern
Substitution2: "Modern G" G.modern
Substitution2: "Modern variants" G.modern
EndChar
StartChar: H
Encoding: 72 72 41
Width: 1369
VWidth: 2065
GlyphClass: 1
Flags: MW
HStem: -20 21<251 319> 1050 21<949 975> 1450 21<598 666>
DStem2: 251 284 127 23 0.697933 -0.716163<0 100.375> 316 1275 356 1236 0.700209 0.713938<0.164755 72.8354> 449 850 324 588 0.696633 -0.717428<0 100.887> 496 148 535 108 0.707107 0.707107<0 72.832> 552 790 584 744 0.813295 0.581852<-22.1835 234.557> 568 -194 582 -248 0.967913 0.251285<0 106.461> 783 1437 658 1176 0.696594 -0.717466<0 100.184> 999 1052 875 791 0.697933 -0.716163<0 100.375> 974 1284 1017 1247 0.707107 0.707107<4.24264 62.2254> -150 174 -110 134 0.707107 0.707107<0 57.9828>
LayerCount: 2
Back
SplineSet
474.915 734.814 m 29,0,-1
 1008.41 1116.54 l 29,1,-1
 1041 1071 l 29,2,-1
 507.502 689.272 l 29,3,-1
 474.915 734.814 l 29,0,-1
1017 1247 m 21,10,-1
 1058 1288 l 13,11,-1
 1018 1328 l 21,12,-1
 974 1284 l 13,13,-1
 1017 1247 l 21,10,-1
496 148 m 21,0,-1
 547 200 l 5,1,-1
 587 160 l 5,2,-1
 535 108 l 5,3,-1
 496 148 l 21,0,-1
316 1275 m 21,0,-1
 367 1327 l 5,1,-1
 407 1288 l 5,2,-1
 356 1236 l 5,3,-1
 316 1275 l 21,0,-1
658 1176 m 5,0,-1
 391 1451 l 5,1,-1
 584 1275 l 5,2,-1
 783 1437 l 5,3,-1
 1050 1162 l 5,4,-1
 862 1335 l 5,5,-1
 658 1176 l 5,0,-1
672 -167 m 13,6,-1
 685 -221 l 21,7,-1
 582 -248 l 13,8,-1
 568 -194 l 21,9,-1
 672 -167 l 13,6,-1
-109 215 m 21,10,-1
 -150 174 l 13,11,-1
 -110 134 l 21,12,-1
 -66 178 l 13,13,-1
 -109 215 l 21,10,-1
127 23 m 5,14,-1
 -141 298 l 5,15,-1
 53 122 l 5,16,-1
 251 284 l 5,17,-1
 519 9 l 5,18,-1
 330 182 l 5,19,-1
 127 23 l 5,14,-1
875 791 m 5,20,-1
 607 1066 l 5,21,-1
 801 890 l 5,22,-1
 999 1052 l 5,23,-1
 1267 777 l 5,24,-1
 1078 950 l 5,25,-1
 875 791 l 5,20,-1
324 588 m 5,26,-1
 57 864 l 5,27,-1
 250 687 l 5,28,-1
 449 850 l 5,29,-1
 717 574 l 5,30,-1
 528 747 l 5,31,-1
 324 588 l 5,26,-1
EndSplineSet
Fore
SplineSet
-137 171 m 3,0,1
 -137 187 -137 187 -119 205 c 0,2,3
 4 327 4 327 106 327 c 131,-1,4
 208 327 208 327 298 235 c 128,-1,5
 388 143 388 143 453 143 c 3,6,7
 491 143 491 143 517 169 c 128,-1,8
 543 195 543 195 543 234 c 3,9,10
 543 360 543 360 285 628 c 0,11,12
 148 770 148 770 148 938.5 c 131,-1,13
 148 1107 148 1107 329 1289 c 128,-1,14
 510 1471 510 1471 630 1471 c 131,-1,15
 750 1471 750 1471 837 1381.5 c 128,-1,16
 924 1292 924 1292 964 1292 c 3,17,18
 982 1292 982 1292 994 1304 c 128,-1,19
 1006 1316 1006 1316 1022 1316 c 3,20,21
 1046 1316 1046 1316 1046 1292 c 3,22,23
 1046 1276 1046 1276 1031 1261 c 0,24,25
 908 1138 908 1138 802 1138 c 131,-1,26
 696 1138 696 1138 615 1221 c 128,-1,27
 534 1304 534 1304 478.5 1304 c 131,-1,28
 423 1304 423 1304 370 1250 c 128,-1,29
 317 1196 317 1196 317 1118 c 3,30,31
 317 984 317 984 506 791 c 0,32,33
 516 781 516 781 528 781 c 131,-1,34
 540 781 540 781 552 790 c 2,35,-1
 928 1059 l 2,36,37
 945 1071 945 1071 963 1071 c 131,-1,38
 981 1071 981 1071 1000 1051 c 0,39,40
 1301 734 1301 734 1301 457 c 3,41,42
 1301 -56 1301 -56 605 -242 c 0,43,44
 590 -246 590 -246 579 -246 c 3,45,46
 550 -246 550 -246 550 -220 c 3,47,48
 550 -198 550 -198 590 -188 c 0,49,50
 1061 -71 1061 -71 1061 353 c 3,51,52
 1061 607 1061 607 806 862 c 0,53,54
 793 875 793 875 780 875 c 131,-1,55
 767 875 767 875 753 865 c 2,56,-1
 584 744 l 2,57,58
 571 735 571 735 571 725 c 131,-1,59
 571 715 571 715 579 704 c 0,60,61
 694 560 694 560 694 408 c 3,62,63
 694 267 694 267 562 135 c 0,64,65
 407 -20 407 -20 287.5 -20 c 131,-1,66
 168 -20 168 -20 76 75 c 128,-1,67
 -16 170 -16 170 -58 170 c 3,68,69
 -74 170 -74 170 -85.5 158.5 c 128,-1,70
 -97 147 -97 147 -112 147 c 3,71,72
 -137 147 -137 147 -137 171 c 3,0,1
EndSplineSet
EndChar
StartChar: I
Encoding: 73 73 42
Width: 1198
VWidth: 2065
GlyphClass: 1
Flags: MW
HStem: -45 20<530 624> 1451 20<472 566>
DStem2: 25 296 61 254 0.753425 0.657534<-72.7397 -0.493151> 1050 1198 1080 1152 0.847998 0.529999<1.06 75.4718> 421 321 259 81 0.580253 -0.814436<0 101.464> 547 828 580 783 0.808143 0.588986<-72.6233 0> 802 1377 657 1127 0.636073 -0.771629<0 100.677> 978 735 845 478 0.675134 -0.737695<0 99.7947> 931 158 969 118 0.727394 0.68622<-72.6296 0>
LayerCount: 2
Back
SplineSet
258.643 80.6836 m 257,0,-1
 35.6992 393.785 l 257,1,-1
 200.312 189.493 l 257,2,-1
 420.729 320.925 l 257,3,-1
 643.914 9.80762 l 257,4,-1
 483.663 208.535 l 257,5,-1
 258.643 80.6836 l 257,0,-1
845 478 m 257,0,-1
 586 761 l 257,1,-1
 775 579 l 257,2,-1
 978 735 l 257,3,-1
 1237 453 l 257,4,-1
 1053 631 l 257,5,-1
 845 478 l 257,0,-1
969 118 m 17,32,-1
 917 67 l 9,33,-1
 878 108 l 17,34,-1
 931 158 l 9,35,-1
 969 118 l 17,32,-1
61 254 m 17,32,-1
 7 206 l 9,33,-1
 -30 248 l 17,34,-1
 25 296 l 9,35,-1
 61 254 l 17,32,-1
580 783 m 17,32,-1
 522 739 l 9,33,-1
 488 785 l 17,34,-1
 547 828 l 9,35,-1
 580 783 l 17,32,-1
656.788 1126.77 m 257,0,-1
 413.026 1422.78 l 257,1,-1
 591.73 1231.06 l 257,2,-1
 802.381 1377.04 l 257,3,-1
 1047.26 1081.89 l 257,4,-1
 873 1269 l 257,5,-1
 656.788 1126.77 l 257,0,-1
1050 1198 m 25,0,0
 1113 1239 l 25,0,0
 1144 1191 l 25,0,0
 1080 1152 l 25,0,0
 1050 1198 l 25,0,0
EndSplineSet
Fore
SplineSet
-18 245 m 3,0,1
 -18 258 -18 258 -1 273 c 0,2,3
 144 398 144 398 255 398 c 131,-1,4
 366 398 366 398 487 229 c 128,-1,5
 608 60 608 60 718 60 c 131,-1,6
 828 60 828 60 904 133 c 0,7,8
 954 181 954 181 954 246 c 3,9,10
 954 358 954 358 806 520 c 0,11,12
 705 631 705 631 705 756.5 c 131,-1,13
 705 882 705 882 847 1031 c 0,14,15
 862 1047 862 1047 862 1059 c 131,-1,16
 862 1071 862 1071 830 1071 c 3,17,18
 703 1071 703 1071 613 1180 c 128,-1,19
 523 1289 523 1289 400.5 1289 c 131,-1,20
 278 1289 278 1289 201 1203.5 c 152,-1,21
 124 1118 124 1118 124 1016.5 c 131,-1,22
 124 915 124 915 184.5 838.5 c 152,-1,23
 245 762 245 762 350.5 762 c 131,-1,24
 456 762 456 762 514 804 c 0,25,26
 530 816 530 816 543 816 c 3,27,28
 569 816 569 816 569 790 c 3,29,30
 569 775 569 775 547 758 c 0,31,32
 469 699 469 699 332 699 c 131,-1,33
 195 699 195 699 110.5 793.5 c 152,-1,34
 26 888 26 888 26 1059.5 c 139,-1,35
 26 1231 26 1231 170 1351 c 152,-1,36
 314 1471 314 1471 519 1471 c 131,-1,37
 724 1471 724 1471 836 1336.5 c 128,-1,38
 948 1202 948 1202 1029 1202 c 3,39,40
 1057 1202 1057 1202 1081 1218 c 0,41,42
 1096 1228 1096 1228 1106 1228 c 11,43,44
 1134 1228 1134 1228 1134 1197 c 3,45,46
 1134 1185 1134 1185 1113 1172 c 0,47,48
 919 1052 919 1052 919 904 c 3,49,50
 919 799 919 799 1024.5 684.5 c 128,-1,51
 1130 570 1130 570 1130 444 c 3,52,53
 1130 275 1130 275 944 94 c 0,54,55
 799 -45 799 -45 573.5 -45 c 131,-1,56
 348 -45 348 -45 243.5 102 c 128,-1,57
 139 249 139 249 79 249 c 3,58,59
 55 249 55 249 38.5 234 c 128,-1,60
 22 219 22 219 8 219 c 3,61,62
 -18 219 -18 219 -18 245 c 3,0,1
EndSplineSet
AlternateSubs2: "Access All Alternates" I.hist
Substitution2: "Historical variants" I.hist
Substitution2: "I to J" I.hist
EndChar
StartChar: J
Encoding: 74 74 43
Width: 1275
VWidth: 2065
GlyphClass: 1
Flags: MW
HStem: -294 23<538 653> 1448 23<463 578>
DStem2: -70 1 -29 -38 0.74666 0.665206<4.67002 73.6614> 424 53 295 -206 0.684634 -0.728887<0 100.464> 558 653 598 613 0.74666 0.665206<3.25815 72.9147> 840 1370 728 1103 0.732701 -0.680551<0 99.6447> 1042 635 892 389 0.621505 -0.78341<0 99.4931> 952 -124 952 -198 0.751317 0.659941<0 49.658> 1133 1194 1163 1147 0.844213 0.536008<0.134002 74.6257>
LayerCount: 2
Back
SplineSet
1025.55 -133.229 m 17,0,-1
 952.07 -197.501 l 1,1,-1
 952.08 -124.166 l 1,2,-1
 1023.76 -57.7109 l 9,3,-1
 1025.55 -133.229 l 17,0,-1
558 653 m 25,0,-1
 612 702 l 1,1,-1
 653 662 l 1,2,-1
 598 613 l 25,3,-1
 558 653 l 25,0,-1
728.262 1102.59 m 257,0,-1
 447.893 1364.86 l 257,1,-1
 649.673 1197.64 l 257,2,-1
 840.148 1369.81 l 257,3,-1
 1120.54 1108.54 l 257,4,-1
 923.66 1271.64 l 257,5,-1
 728.262 1102.59 l 257,0,-1
1133.12 1193.99 m 25,0,0
 1195.52 1234.39 l 25,0,0
 1226.5 1187 l 25,0,0
 1162.87 1147.3 l 25,0,0
 1133.12 1193.99 l 25,0,0
295 -206 m 1,0,-1
 32 74 l 1,1,-1
 222 -106 l 1,2,-1
 424 53 l 1,3,-1
 686 -227 l 1,4,-1
 501 -51 l 1,5,-1
 295 -206 l 1,0,-1
892 389 m 1,0,-1
 653.904 689.386 l 1,1,-1
 827.611 494.31 l 1,2,-1
 1042.28 635.441 l 1,3,-1
 1280.3 336.055 l 1,4,-1
 1110.05 525.381 l 1,5,-1
 892 389 l 1,0,-1
-70 1 m 25,0,-1
 -15 50 l 1,1,-1
 26 11 l 1,2,-1
 -29 -38 l 25,3,-1
 -70 1 l 25,0,-1
EndSplineSet
Fore
SplineSet
-58 1 m 19,0,1
 -58 12 -58 12 -42 26 c 0,2,3
 108 157 108 157 217.5 157 c 131,-1,4
 327 157 327 157 477.5 -4.5 c 128,-1,5
 628 -166 628 -166 768 -166 c 131,-1,6
 908 -166 908 -166 972 -105.5 c 128,-1,7
 1036 -45 1036 -45 1036 49 c 3,8,9
 1036 203 1036 203 843 450 c 0,10,11
 747 573 747 573 747 722.5 c 131,-1,12
 747 872 747 872 912 1020 c 0,13,14
 931 1037 931 1037 931 1049.5 c 131,-1,15
 931 1062 931 1062 892 1062 c 3,16,17
 771 1062 771 1062 661.5 1165 c 128,-1,18
 552 1268 552 1268 425 1268 c 131,-1,19
 298 1268 298 1268 199 1181.5 c 152,-1,20
 100 1095 100 1095 100 954 c 131,-1,21
 100 813 100 813 191 717 c 152,-1,22
 282 621 282 621 401.5 621 c 131,-1,23
 521 621 521 621 583 676 c 0,24,25
 600 691 600 691 613 691 c 3,26,27
 641 691 641 691 641 664 c 3,28,29
 641 651 641 651 624 636 c 0,30,31
 533 556 533 556 372.5 556 c 131,-1,32
 212 556 212 556 104 673.5 c 152,-1,33
 -4 791 -4 791 -4 988.5 c 139,-1,34
 -4 1186 -4 1186 152 1328.5 c 152,-1,35
 308 1471 308 1471 520 1471 c 131,-1,36
 732 1471 732 1471 878 1335.5 c 144,-1,37
 1024 1200 1024 1200 1111 1200 c 3,38,39
 1143 1200 1143 1200 1164 1214 c 0,40,41
 1176 1222 1176 1222 1190 1222 c 3,42,43
 1216 1222 1216 1222 1216 1194 c 3,44,45
 1216 1180 1216 1180 1196 1168 c 0,46,47
 972 1029 972 1029 972 877 c 131,-1,48
 972 725 972 725 1097.5 567 c 128,-1,49
 1223 409 1223 409 1223 249 c 3,50,51
 1223 42 1223 42 1003 -153 c 0,52,53
 844 -294 844 -294 611.5 -294 c 131,-1,54
 379 -294 379 -294 239.5 -147 c 128,-1,55
 100 0 100 0 36 0 c 3,56,57
 14 0 14 0 -2 -14 c 128,-1,58
 -18 -28 -18 -28 -29 -28 c 3,59,60
 -58 -28 -58 -28 -58 1 c 19,0,1
EndSplineSet
EndChar
StartChar: K
Encoding: 75 75 44
Width: 1505
VWidth: 2065
GlyphClass: 1
Flags: MW
HStem: -20 20<214 274 1155 1201> 1415 56<804 873>
VStem: 1346 112<898 988>
DStem2: -124 160 -89 117 0.772726 0.634739<0 72.2223> 246 277 105 27 0.665686 -0.746232<0 92.6962> 515 757 355 518 0.607186 -0.79456<0 92.75> 467 138 502 95 0.772726 0.634739<0 72.2223> 469 896 524 884 0.219839 0.975536<0.384718 72.7805> 688 566.32 722 521.545 0.8527 0.522401<5.60143 36.3551 329.542 365.634 618.947 655.565> 1039 666 879 427 0.604542 -0.796573<0 93.6542> 1139 1005 923 816 0.379556 -0.925169<0 92.8727> 1167 425 936 254 0.305549 -0.952176<0 92.2403> 1220 260 1082 8 0.675617 -0.737253<0 92.5525> 1155 623 1183 574 0.871576 0.490261<0.381314 72.94> 1357 140 1388 94 0.819232 0.573462<0 71.6828>
LayerCount: 2
Back
SplineSet
552 483 m 29,0,-1
 1422 1016 l 29,1,-1
 1454 970 l 29,2,-1
 584 437 l 29,3,-1
 552 483 l 29,0,-1
469 896 m 17,0,-1
 485 967 l 1,1,-1
 540 955 l 1,2,-1
 524 884 l 1,3,-1
 469 896 l 17,0,-1
936 254 m 17,36,-1
 807 656 l 1,37,-1
 915 389 l 1,38,-1
 1167 425 l 1,39,-1
 1294 23 l 1,40,-1
 1185 300 l 1,41,-1
 936 254 l 17,36,-1
-124 160 m 17,10,-1
 -68 206 l 1,11,-1
 -33 163 l 1,12,-1
 -89 117 l 1,13,-1
 -124 160 l 17,10,-1
355 518 m 17,0,-1
 100 853 l 1,1,-1
 290 638 l 1,2,-1
 515 757 l 1,3,-1
 771 422 l 1,4,-1
 574 645 l 1,5,-1
 355 518 l 17,0,-1
1155 623 m 17,6,-1
 1219 659 l 1,7,-1
 1246 610 l 1,8,-1
 1183 574 l 1,9,-1
 1155 623 l 17,6,-1
467 138 m 17,10,-1
 523 184 l 1,11,-1
 558 141 l 1,12,-1
 502 95 l 1,13,-1
 467 138 l 17,10,-1
105 27 m 17,18,-1
 -176 342 l 1,19,-1
 30 142 l 1,20,-1
 246 277 l 1,21,-1
 526 -38 l 1,22,-1
 313 170 l 1,23,-1
 105 27 l 17,18,-1
923 816 m 21,24,-1
 763 1206 l 5,25,-1
 891 949 l 5,26,-1
 1139 1005 l 5,27,-1
 1299 615 l 5,28,-1
 1167 882 l 5,29,-1
 923 816 l 21,24,-1
1082 8 m 17,30,-1
 797 319 l 1,31,-1
 1006 122 l 1,32,-1
 1220 260 l 1,33,-1
 1504 -51 l 1,34,-1
 1288 155 l 1,35,-1
 1082 8 l 17,30,-1
879 427 m 17,36,-1
 623 762 l 1,37,-1
 814 547 l 1,38,-1
 1039 666 l 1,39,-1
 1294 330 l 1,40,-1
 1098 554 l 1,41,-1
 879 427 l 17,36,-1
1357 140 m 17,42,-1
 1417 182 l 1,43,-1
 1448 135 l 1,44,-1
 1388 94 l 1,45,-1
 1357 140 l 17,42,-1
EndSplineSet
Fore
SplineSet
-112 155 m 3,0,1
 -112 170 -112 170 -96 183 c 0,2,3
 48 301 48 301 151 301 c 3,4,5
 225 301 225 301 297.5 219 c 128,-1,6
 370 137 370 137 437 137 c 3,7,8
 466 137 466 137 489 156 c 128,-1,9
 512 175 512 175 512 210 c 3,10,11
 512 314 512 314 342.5 535.5 c 128,-1,12
 173 757 173 757 173 950 c 131,-1,13
 173 1143 173 1143 375.5 1307 c 128,-1,14
 578 1471 578 1471 840 1471 c 131,-1,15
 1102 1471 1102 1471 1280 1311.5 c 128,-1,16
 1458 1152 1458 1152 1458 943 c 131,-1,17
 1458 734 1458 734 1216 593 c 0,18,19
 1204 586 1204 586 1191 586 c 3,20,21
 1166 586 1166 586 1166 612 c 3,22,23
 1166 629 1166 629 1189 642 c 0,24,25
 1346 732 1346 732 1346 943 c 131,-1,26
 1346 1154 1346 1154 1186.5 1284.5 c 128,-1,27
 1027 1415 1027 1415 840 1415 c 131,-1,28
 653 1415 653 1415 525.5 1316 c 128,-1,29
 398 1217 398 1217 398 1063 c 3,30,31
 398 999 398 999 423 930 c 0,32,33
 440 884 440 884 453.5 884 c 131,-1,34
 467 884 467 884 477 931 c 0,35,36
 540 1227 540 1227 798 1227 c 3,37,38
 1049 1227 1049 1227 1162 949 c 0,39,40
 1185 893 1185 893 1212 893 c 3,41,42
 1221 893 1221 893 1232.5 900 c 128,-1,43
 1244 907 1244 907 1258 907 c 3,44,45
 1282 907 1282 907 1282 882 c 3,46,47
 1282 865 1282 865 1258 850 c 2,48,-1
 1020 704 l 2,49,50
 998 691 998 691 998 679 c 3,51,52
 998 666 998 666 1024 656 c 0,53,54
 1056 644 1056 644 1083 608 c 0,55,56
 1128 548 1128 548 1173 405.5 c 128,-1,57
 1218 263 1218 263 1268.5 207 c 128,-1,58
 1319 151 1319 151 1356 151 c 3,59,60
 1373 151 1373 151 1386.5 160.5 c 128,-1,61
 1400 170 1400 170 1412 170 c 3,62,63
 1437 170 1437 170 1437 142 c 3,64,65
 1437 128 1437 128 1420 116 c 2,66,-1
 1268 12 l 2,67,68
 1221 -20 1221 -20 1177 -20 c 3,69,70
 1107 -20 1107 -20 1042.5 50.5 c 128,-1,71
 978 121 978 121 930 272 c 128,-1,72
 882 423 882 423 838 481 c 0,73,74
 793 539 793 539 760 539 c 3,75,76
 751 539 751 539 740 532.5 c 128,-1,77
 729 526 729 526 718 526 c 11,78,79
 692 526 692 526 692 553 c 19,80,81
 692 569 692 569 712 581 c 2,82,-1
 978 744 l 2,83,84
 999 757 999 757 999 769.5 c 131,-1,85
 999 782 999 782 974 793 c 0,86,87
 923 816 923 816 895 884 c 0,88,89
 813 1084 813 1084 692 1084 c 0,90,91
 564 1084 564 1084 532 920 c 0,92,93
 526 889 526 889 526 857 c 3,94,95
 526 753 526 753 596 645 c 0,96,97
 679 519 679 519 679 380 c 131,-1,98
 679 241 679 241 521.5 110.5 c 128,-1,99
 364 -20 364 -20 243 -20 c 3,100,101
 147 -20 147 -20 72.5 63.5 c 128,-1,102
 -2 147 -2 147 -41 147 c 3,103,104
 -52 147 -52 147 -63 138 c 128,-1,105
 -74 129 -74 129 -87 129 c 3,106,107
 -112 129 -112 129 -112 155 c 3,0,1
EndSplineSet
AlternateSubs2: "Access All Alternates" K.modern
Substitution2: "Modern variants" K.modern
Substitution2: "Modern K" K.modern
EndChar
StartChar: L
Encoding: 76 76 45
Width: 1095
VWidth: 2065
GlyphClass: 1
Flags: MW
HStem: -45 20<606.667 679.667> 1415 56<510 574>
VStem: 840 190<1030 1140>
DStem2: -44 212 -9 168 0.790085 0.612997<0.681108 73.4098> 393 368 284 100 0.736398 -0.676549<0 101.048> 324 969 174 721 0.623104 -0.782139<0 100.505> 547 845 519 796 0.880471 -0.4741<0 72.4018> 988 232 1033 198 0.597824 0.801627<0 73.247>
LayerCount: 2
Back
SplineSet
547 845 m 17,4,-1
 611 810 l 9,5,-1
 584 761 l 17,6,-1
 519 796 l 9,7,-1
 547 845 l 17,4,-1
1077 257 m 17,4,-1
 1033 198 l 9,5,-1
 988 232 l 17,6,-1
 1032 291 l 9,7,-1
 1077 257 l 17,4,-1
284 100 m 1,0,-1
 1 360 l 1,1,-1
 204 195 l 1,2,-1
 393 368 l 1,3,-1
 676 109 l 1,4,-1
 478 271 l 1,5,-1
 284 100 l 1,0,-1
174 721 m 1,0,-1
 -65 1021 l 1,1,-1
 110 826 l 1,2,-1
 324 969 l 1,3,-1
 563 669 l 1,4,-1
 392 859 l 1,5,-1
 174 721 l 1,0,-1
49 213 m 17,4,-1
 -9 168 l 9,5,-1
 -44 212 l 17,6,-1
 14 257 l 9,7,-1
 49 213 l 17,4,-1
-12 237 m 24,0,-1
EndSplineSet
Fore
SplineSet
-32 205 m 3,0,1
 -32 222 -32 222 -12 237 c 0,2,3
 123 343 123 343 189.5 413 c 128,-1,4
 256 483 256 483 256 548.5 c 131,-1,5
 256 614 256 614 146 756.5 c 128,-1,6
 36 899 36 899 36 1053 c 131,-1,7
 36 1207 36 1207 187 1339 c 128,-1,8
 338 1471 338 1471 541 1471 c 131,-1,9
 744 1471 744 1471 887 1362 c 128,-1,10
 1030 1253 1030 1253 1030 1090 c 131,-1,11
 1030 927 1030 927 923 840 c 128,-1,12
 816 753 816 753 686 753 c 3,13,14
 595 753 595 753 549 780 c 0,15,16
 530 791 530 791 530 804 c 3,17,18
 530 834 530 834 554 834 c 3,19,20
 567 834 567 834 578 828 c 0,21,22
 604 813 604 813 664 813 c 131,-1,23
 724 813 724 813 782 879 c 128,-1,24
 840 945 840 945 840 1090.5 c 131,-1,25
 840 1236 840 1236 755 1325.5 c 128,-1,26
 670 1415 670 1415 540.5 1415 c 131,-1,27
 411 1415 411 1415 342 1333 c 128,-1,28
 273 1251 273 1251 273 1142 c 131,-1,29
 273 1033 273 1033 371.5 909 c 128,-1,30
 470 785 470 785 470 683.5 c 131,-1,31
 470 582 470 582 326 450 c 0,32,33
 302 428 302 428 302 412.5 c 131,-1,34
 302 397 302 397 332 389 c 0,35,36
 385 375 385 375 429 335 c 0,37,38
 645 139 645 139 779 139 c 131,-1,39
 913 139 913 139 1009 260 c 0,40,41
 1024 279 1024 279 1040 279 c 3,42,43
 1065 279 1065 279 1065 255 c 3,44,45
 1065 240 1065 240 1054 226 c 0,46,47
 848 -45 848 -45 645.5 -45 c 131,-1,48
 443 -45 443 -45 238 142 c 0,49,50
 157 216 157 216 104.5 216 c 131,-1,51
 52 216 52 216 21 191 c 0,52,53
 7 180 7 180 -7 180 c 3,54,55
 -32 180 -32 180 -32 205 c 3,0,1
EndSplineSet
EndChar
StartChar: M
Encoding: 77 77 46
Width: 2109
VWidth: 2065
GlyphClass: 1
Flags: MW
HStem: -20 20<383 431 952 991 1763 1788> 1451 20<361 468 1050 1121 1609 1683>
VStem: -57 56<987 1045> 467 56<568 617>
DStem2: 33 181 77 146 0.61856 0.785738<0 57.3421> 196 823 353 659 0.982788 0.184735<0 124.001> 428 291 254 59 0.541415 -0.840755<0 100.849> 597 176 638 138 0.646685 0.762757<0 57.4887> 740 1337 598 1085 0.644776 -0.764372<0 101.063> 686 69 735 41 0.506422 0.862286<0.670667 73.0616> 785 1305 827 1269 0.642871 0.765974<0 72.4119> 1030 264 887 15 0.659344 -0.751842<0 92.9224> 1337 1348 1156 1125 0.530425 -0.847732<0 93.0374> 1163 202 1209 171 0.557836 0.829951<0 72.9405> 1933 1237 1692 1076 0.231503 -0.972834<0 100.834> 1957 207 1996 167 0.715376 0.69874<0 57.2301> 2003 1011 2031 963 0.871576 0.490261<0.871576 73.4302> 1382 1311 1431 1284 0.479812 0.877371<0 72.767>
LayerCount: 2
Back
SplineSet
887 15 m 17,0,-1
 609 332 l 1,1,-1
 814 130 l 1,2,-1
 1030 264 l 1,3,-1
 1308 -52 l 1,4,-1
 1096 157 l 1,5,-1
 887 15 l 17,0,-1
1156 1125 m 17,0,-1
 932 1483 l 1,1,-1
 1102 1251 l 1,2,-1
 1337 1348 l 1,3,-1
 1560 991 l 1,4,-1
 1385 1232 l 1,5,-1
 1156 1125 l 17,0,-1
1163 202 m 17,6,-1
 1203 263 l 1,7,-1
 1250 232 l 1,8,-1
 1209 171 l 1,9,-1
 1163 202 l 17,6,-1
686 69 m 17,6,-1
 723 132 l 1,7,-1
 771 104 l 1,8,-1
 735 41 l 1,9,-1
 686 69 l 17,6,-1
1382 1311 m 21,6,-1
 1417 1375 l 5,7,-1
 1466 1348 l 5,8,-1
 1431 1284 l 5,9,-1
 1382 1311 l 21,6,-1
785 1305 m 17,6,-1
 832 1361 l 1,7,-1
 875 1324 l 1,8,-1
 827 1269 l 1,9,-1
 785 1305 l 17,6,-1
2003 1011 m 17,0,-1
 2067 1047 l 1,1,-1
 2094 999 l 1,2,-1
 2031 963 l 1,3,-1
 2003 1011 l 17,0,-1
196 823 m 17,114,-1
 592 897 l 9,115,-1
 332 828 l 25,116,-1
 353 659 l 1,117,-1
 -46 584 l 9,118,-1
 202 648 l 25,119,-1
 196 823 l 17,114,-1
2037 207 m 17,120,-1
 1996 167 l 9,121,-1
 1957 207 l 17,122,-1
 2000 249 l 9,123,-1
 2037 207 l 17,120,-1
597 176 m 17,124,-1
 634 220 l 9,125,-1
 677 184 l 17,126,-1
 638 138 l 9,127,-1
 597 176 l 17,124,-1
1933 1237 m 1,132,-1
 2022 864 l 1,133,-1
 1946 1115 l 1,134,-1
 1692 1076 l 1,135,-1
 1603 1450 l 1,136,-1
 1677 1205 l 1,137,-1
 1933 1237 l 1,132,-1
598 1085 m 1,142,-1
 350 1379 l 1,143,-1
 530 1189 l 1,144,-1
 740 1337 l 1,145,-1
 988 1045 l 1,146,-1
 812 1229 l 1,147,-1
 598 1085 l 1,142,-1
113 191 m 17,148,-1
 77 146 l 9,149,-1
 33 181 l 17,150,-1
 70 228 l 9,151,-1
 113 191 l 17,148,-1
254 59 m 1,152,-1
 46 382 l 1,153,-1
 201 170 l 1,154,-1
 428 291 l 1,155,-1
 636 -32 l 1,156,-1
 484 174 l 1,157,-1
 254 59 l 1,152,-1
EndSplineSet
Fore
SplineSet
-57 1017 m 3,0,1
 -57 1203 -57 1203 71 1337 c 128,-1,2
 199 1471 199 1471 412.5 1471 c 131,-1,3
 626 1471 626 1471 757 1317 c 0,4,5
 767 1305 767 1305 776 1305 c 131,-1,6
 785 1305 785 1305 795 1317 c 0,7,8
 924 1471 924 1471 1083.5 1471 c 131,-1,9
 1243 1471 1243 1471 1345 1332 c 0,10,11
 1359 1313 1359 1313 1371 1313 c 131,-1,12
 1383 1313 1383 1313 1394 1333 c 0,13,14
 1470 1471 1470 1471 1649 1471 c 3,15,16
 1877 1471 1877 1471 1945 1187 c 0,17,18
 1983 1028 1983 1028 2027 1028 c 3,19,20
 2034 1028 2034 1028 2042.5 1033 c 128,-1,21
 2051 1038 2051 1038 2059 1038 c 3,22,23
 2085 1038 2085 1038 2085 1008 c 3,24,25
 2085 994 2085 994 2066 983 c 0,26,27
 1762 807 1762 807 1762 556 c 3,28,29
 1762 415 1762 415 1820.5 312.5 c 128,-1,30
 1879 210 1879 210 1936 210 c 3,31,32
 1960 210 1960 210 1973.5 223 c 128,-1,33
 1987 236 1987 236 1997 236 c 3,34,35
 2024 236 2024 236 2024 207 c 3,36,37
 2024 194 2024 194 2012 183 c 2,38,-1
 1822 2 l 2,39,40
 1799 -20 1799 -20 1776 -20 c 131,-1,41
 1753 -20 1753 -20 1726 -1 c 0,42,43
 1553 121 1553 121 1553 396 c 131,-1,44
 1553 671 1553 671 1811 883 c 0,45,46
 1828 897 1828 897 1828 911 c 131,-1,47
 1828 925 1828 925 1802 937 c 0,48,49
 1716 976 1716 976 1679 1131 c 0,50,51
 1626 1355 1626 1355 1519 1355 c 3,52,53
 1468 1355 1468 1355 1443 1306 c 16,54,55
 1423 1267 1423 1267 1423 1221 c 3,56,57
 1423 1188 1423 1188 1434 1150 c 0,58,59
 1462 1051 1462 1051 1462 931 c 3,60,61
 1462 545 1462 545 1229 201 c 0,62,63
 1080 -20 1080 -20 970 -20 c 3,64,65
 918 -20 918 -20 868.5 36 c 128,-1,66
 819 92 819 92 787 92 c 3,67,68
 764 92 764 92 752.5 71.5 c 128,-1,69
 741 51 741 51 726 51 c 3,70,71
 697 51 697 51 697 77 c 3,72,73
 697 88 697 88 703 98 c 0,74,75
 825 302 825 302 931 302 c 3,76,77
 996 302 996 302 1045 246.5 c 128,-1,78
 1094 191 1094 191 1125 191 c 131,-1,79
 1156 191 1156 191 1182 231 c 0,80,81
 1267 362 1267 362 1267 653 c 3,82,83
 1267 947 1267 947 1127 1171 c 0,84,85
 1037 1315 1037 1315 928 1315 c 3,86,87
 867 1315 867 1315 835 1278 c 0,88,89
 821 1262 821 1262 821 1247.5 c 131,-1,90
 821 1233 821 1233 830 1218 c 0,91,92
 924 1061 924 1061 924 807 c 3,93,94
 924 495 924 495 660 164 c 0,95,96
 513 -20 513 -20 409 -20 c 131,-1,97
 305 -20 305 -20 228 100 c 0,98,99
 171 188 171 188 129 188 c 3,100,101
 111 188 111 188 98 172 c 128,-1,102
 85 156 85 156 71 156 c 3,103,104
 44 156 44 156 44 182 c 3,105,106
 44 195 44 195 55 209 c 0,107,108
 179 367 179 367 279 367 c 131,-1,109
 379 367 379 367 456 247 c 0,110,111
 512 160 512 160 554 160 c 3,112,113
 584 160 584 160 615 197 c 0,114,115
 748 357 748 357 748 632 c 131,-1,116
 748 907 748 907 559 1131 c 0,117,118
 438 1275 438 1275 290.5 1275 c 131,-1,119
 143 1275 143 1275 71 1206 c 128,-1,120
 -1 1137 -1 1137 -1 1017 c 3,121,122
 -1 825 -1 825 172 825 c 3,123,124
 207 825 207 825 249 833 c 128,-1,125
 291 841 291 841 326 841 c 3,126,127
 523 841 523 841 523 595 c 3,128,129
 523 558 523 558 495 558 c 155,-1,130
 467 558 467 558 467 595 c 3,131,132
 467 656 467 656 374 656 c 3,133,134
 338 656 338 656 289 647 c 128,-1,135
 240 638 240 638 201 638 c 3,136,137
 -57 638 -57 638 -57 1017 c 3,0,1
EndSplineSet
EndChar
StartChar: N
Encoding: 78 78 47
Width: 1640
VWidth: 2065
GlyphClass: 1
Flags: MW
HStem: -20 20<383 433 1289 1324> 1451 20<367 464 1125 1190>
VStem: -57 56<987 1045> 467 56<568 617>
DStem2: 33 181 77 146 0.61856 0.785738<0 57.3421> 852 1241 899 1210 0.550842 0.834609<0.0166922 57.9887> 196 823 353 659 0.982788 0.184735<0 124.001> 428 291 254 59 0.541415 -0.840755<0 100.849> 597 176 638 138 0.646685 0.762757<0 57.4887> 740 1337 598 1085 0.644776 -0.764372<0 101.063> 1464 1237 1223 1076 0.231503 -0.972834<0 100.834> 1488 207 1527 167 0.715376 0.69874<0 57.2301> 1534 1011 1562 963 0.871576 0.490261<0.871576 73.4302>
LayerCount: 2
Back
SplineSet
-57 1045 m 25,0,0
 -1 1045 l 25,0,0
 -1 987 l 25,0,0
 -57 987 l 25,0,0
 -57 1045 l 25,0,0
467 617 m 25,0,0
 523 617 l 25,0,0
 523 568 l 25,0,0
 467 568 l 25,0,0
 467 617 l 25,0,0
1534 1011 m 21,0,-1
 1598 1047 l 5,1,-1
 1625 999 l 5,2,-1
 1562 963 l 5,3,-1
 1534 1011 l 21,0,-1
196 823 m 17,114,-1
 592 897 l 9,115,-1
 332 828 l 25,116,-1
 353 659 l 1,117,-1
 -46 584 l 9,118,-1
 202 648 l 25,119,-1
 196 823 l 17,114,-1
1568 207 m 21,120,-1
 1527 167 l 13,121,-1
 1488 207 l 21,122,-1
 1531 249 l 13,123,-1
 1568 207 l 21,120,-1
597 176 m 17,124,-1
 634 220 l 9,125,-1
 677 184 l 17,126,-1
 638 138 l 9,127,-1
 597 176 l 17,124,-1
1464 1237 m 5,132,-1
 1553 864 l 5,133,-1
 1477 1115 l 5,134,-1
 1223 1076 l 5,135,-1
 1134 1450 l 5,136,-1
 1208 1205 l 5,137,-1
 1464 1237 l 5,132,-1
930 1259 m 21,138,-1
 899 1210 l 13,139,-1
 852 1241 l 21,140,-1
 885 1291 l 13,141,-1
 930 1259 l 21,138,-1
598 1085 m 1,142,-1
 350 1379 l 1,143,-1
 530 1189 l 1,144,-1
 740 1337 l 1,145,-1
 988 1045 l 1,146,-1
 812 1229 l 1,147,-1
 598 1085 l 1,142,-1
113 191 m 17,148,-1
 77 146 l 9,149,-1
 33 181 l 17,150,-1
 70 228 l 9,151,-1
 113 191 l 17,148,-1
254 59 m 1,152,-1
 46 382 l 1,153,-1
 201 170 l 1,154,-1
 428 291 l 1,155,-1
 636 -32 l 1,156,-1
 484 174 l 1,157,-1
 254 59 l 1,152,-1
EndSplineSet
Fore
SplineSet
-57 1017 m 3,0,1
 -57 1203 -57 1203 70 1337 c 128,-1,2
 197 1471 197 1471 419 1471 c 131,-1,3
 641 1471 641 1471 799 1265 c 16,4,5
 819 1239 819 1239 835 1239 c 131,-1,6
 851 1239 851 1239 868 1265 c 0,7,8
 1003 1471 1003 1471 1153 1471 c 3,9,10
 1408 1471 1408 1471 1476 1187 c 0,11,12
 1514 1028 1514 1028 1558 1028 c 3,13,14
 1565 1028 1565 1028 1573.5 1033 c 128,-1,15
 1582 1038 1582 1038 1590 1038 c 3,16,17
 1616 1038 1616 1038 1616 1008 c 3,18,19
 1616 994 1616 994 1597 983 c 0,20,21
 1293 807 1293 807 1293 556 c 3,22,23
 1293 415 1293 415 1351.5 312.5 c 128,-1,24
 1410 210 1410 210 1467 210 c 3,25,26
 1491 210 1491 210 1504.5 223 c 128,-1,27
 1518 236 1518 236 1528 236 c 3,28,29
 1555 236 1555 236 1555 207 c 3,30,31
 1555 194 1555 194 1543 183 c 2,32,-1
 1353 2 l 2,33,34
 1330 -20 1330 -20 1307 -20 c 131,-1,35
 1284 -20 1284 -20 1257 -1 c 0,36,37
 1084 121 1084 121 1084 396 c 131,-1,38
 1084 671 1084 671 1342 883 c 0,39,40
 1359 897 1359 897 1359 911 c 131,-1,41
 1359 925 1359 925 1333 937 c 0,42,43
 1246 977 1246 977 1210 1131 c 0,44,45
 1165 1321 1165 1321 1067 1321 c 131,-1,46
 969 1321 969 1321 915 1235 c 0,47,48
 885 1186 885 1186 885 1140 c 131,-1,49
 885 1094 885 1094 895 1057 c 0,50,51
 924 952 924 952 924 807 c 3,52,53
 924 495 924 495 660 164 c 0,54,55
 513 -20 513 -20 409 -20 c 131,-1,56
 305 -20 305 -20 228 100 c 0,57,58
 171 188 171 188 129 188 c 3,59,60
 111 188 111 188 98 172 c 128,-1,61
 85 156 85 156 71 156 c 3,62,63
 44 156 44 156 44 182 c 3,64,65
 44 195 44 195 55 209 c 0,66,67
 183 367 183 367 281.5 367 c 131,-1,68
 380 367 380 367 456 247 c 0,69,70
 512 160 512 160 554 160 c 3,71,72
 584 160 584 160 615 197 c 0,73,74
 748 357 748 357 748 632 c 131,-1,75
 748 907 748 907 559 1131 c 0,76,77
 438 1275 438 1275 290.5 1275 c 131,-1,78
 143 1275 143 1275 71 1206 c 128,-1,79
 -1 1137 -1 1137 -1 1017 c 3,80,81
 -1 825 -1 825 172 825 c 3,82,83
 207 825 207 825 249 833 c 128,-1,84
 291 841 291 841 326 841 c 3,85,86
 523 841 523 841 523 595 c 3,87,88
 523 558 523 558 495 558 c 155,-1,89
 467 558 467 558 467 595 c 3,90,91
 467 656 467 656 374 656 c 3,92,93
 338 656 338 656 289 647 c 128,-1,94
 240 638 240 638 201 638 c 3,95,96
 -57 638 -57 638 -57 1017 c 3,0,1
EndSplineSet
AlternateSubs2: "Access All Alternates" N.modern
Substitution2: "Modern variants" N.modern
Substitution2: "Modern N" N.modern
EndChar
StartChar: O
Encoding: 79 79 48
Width: 1497
VWidth: 2065
GlyphClass: 1
Flags: MW
HStem: -45 20<658 782> 1451 20<695 732>
DStem2: 4 205 45 167 0.733761 0.679408<4.26668 73.5935> 358 836 354 546 0.9322 -0.361944<0 101.235> 472 320 371 51 0.77364 -0.633625<0 92.3076> 372 1227 400 1178 0.907563 0.419917<4.83582 73.8241> 470 383 515 348 0.68622 0.727394<5.42114 72.8629> 893 1429 877 1140 0.917111 -0.398631<0 100.531> 1143 162 1216 153 0.737154 0.675725<0 47.7307>
LayerCount: 2
Back
SplineSet
1135 154 m 17,0,-1
 1188 204 l 1,1,-1
 1226 162 l 1,2,-1
 1172 113 l 1,3,-1
 1135 154 l 17,0,-1
354 546 m 1,0,-1
 -4 685 l 1,1,-1
 246 605 l 1,2,-1
 358 836 l 1,3,-1
 716 698 l 1,4,-1
 473 776 l 1,5,-1
 354 546 l 1,0,-1
467 1209 m 17,0,-1
 400 1178 l 25,1,-1
 372 1227 l 25,2,-1
 439 1258 l 9,3,-1
 467 1209 l 17,0,-1
565 401 m 17,0,-1
 515 348 l 25,1,-1
 470 383 l 25,2,-1
 520 436 l 9,3,-1
 565 401 l 17,0,-1
99 216 m 21,0,-1
 45 167 l 29,1,-1
 4 205 l 29,2,-1
 58 255 l 13,3,-1
 99 216 l 21,0,-1
371 51 m 17,0,-1
 45 318 l 9,1,-1
 280 153 l 25,2,-1
 472 320 l 1,3,-1
 798 53 l 9,4,-1
 555 225 l 25,5,-1
 371 51 l 17,0,-1
877 1140 m 1,0,-1
 525 1293 l 1,1,-1
 771 1203 l 1,2,-1
 893 1429 l 1,3,-1
 1245 1276 l 1,4,-1
 1005 1364 l 1,5,-1
 877 1140 l 1,0,-1
EndSplineSet
Fore
SplineSet
17 203 m 3,0,1
 17 217 17 217 33 232 c 0,2,3
 176 365 176 365 299.5 365 c 131,-1,4
 423 365 423 365 530 272 c 8,5,6
 744 87 744 87 902 87 c 3,7,8
 1063 87 1063 87 1168.5 186.5 c 128,-1,9
 1274 286 1274 286 1274 496 c 3,10,11
 1274 967 1274 967 833 1159 c 0,12,13
 684 1224 684 1224 570 1224 c 259,14,15
 499 1224 499 1224 432 1193 c 0,16,17
 261 1110 261 1110 261 969 c 3,18,19
 261 874 261 874 428 809 c 0,20,21
 654 720 654 720 654 586 c 3,22,23
 654 495 654 495 542 376 c 0,24,25
 527 360 527 360 510 360 c 3,26,27
 483 360 483 360 483 384 c 3,28,29
 483 397 483 397 494.5 409.5 c 128,-1,30
 506 422 506 422 506 434 c 3,31,32
 506 488 506 488 316 561 c 0,33,34
 51 663 51 663 51 871.5 c 131,-1,35
 51 1080 51 1080 406 1243 c 0,36,37
 568 1317 568 1317 652 1438 c 8,38,39
 675 1471 675 1471 706 1471 c 3,40,41
 795 1471 795 1471 955 1402 c 0,42,43
 1429 1196 1429 1196 1429 677 c 3,44,45
 1429 355 1429 355 1192 131 c 0,46,47
 1007 -45 1007 -45 716 -45 c 3,48,49
 490 -45 490 -45 336.5 80 c 128,-1,50
 183 205 183 205 111 205 c 3,51,52
 87 205 87 205 72.5 192 c 128,-1,53
 58 179 58 179 44 179 c 3,54,55
 17 179 17 179 17 203 c 3,0,1
EndSplineSet
EndChar
StartChar: P
Encoding: 80 80 49
Width: 1602
VWidth: 2065
GlyphClass: 1
Flags: MW
HStem: -407 20<487 504> -45 20<934 1000> 1451 20<236 326 1157 1172>
DStem2: 210 118 253 82 0.636182 0.771539<0 72.4706> 291 733 318 684 0.886098 0.463498<1.21327 73.3553> 460 -381 501 -418 0.679408 0.733761<0.706584 72.9141> 656 1270 461 1056 0.458643 -0.888621<0 100.729> 714 1214 735 1161 0.864285 0.503002<-13.9224 163.223> 1207 1224 1091 959 0.722585 -0.691282<0 99.3698> 1306 225 1350 191 0.606449 0.795122<0 72.8009>
LayerCount: 2
Back
SplineSet
525 1104 m 1,0,-1
 1147 1466 l 10,1,2
 1172 1480 1172 1480 1186 1456.5 c 152,-1,3
 1200 1433 1200 1433 1175 1418 c 18,4,-1
 548 1052 l 1,5,-1
551 -364.25 m 17,0,-1
 501 -418.25 l 9,1,-1
 460 -381.25 l 17,2,-1
 509 -327.25 l 9,3,-1
 551 -364.25 l 17,0,-1
382 718 m 17,0,-1
 318 684 l 9,1,-1
 291 733 l 17,2,-1
 356 767 l 9,3,-1
 382 718 l 17,0,-1
1395 250 m 17,0,-1
 1350 191 l 9,1,-1
 1306 225 l 17,2,-1
 1350 283 l 9,3,-1
 1395 250 l 17,0,-1
1091 959 m 1,0,-1
 814 1224 l 1,1,-1
 1014 1055 l 1,2,-1
 1207 1224 l 1,3,-1
 1483 958 l 1,4,-1
 1289 1124 l 1,5,-1
 1091 959 l 1,0,-1
461 1056 m 1,6,-1
 285 1397 l 1,7,-1
 418 1172 l 1,8,-1
 656 1270 l 1,9,-1
 832 929 l 1,10,-1
 702 1149 l 1,11,-1
 461 1056 l 1,6,-1
617 63 m 1,12,-1
 303 285 l 1,13,-1
 526 146 l 1,14,-1
 691 343 l 1,15,-1
 1005 121 l 1,16,-1
 788 256 l 1,17,-1
 617 63 l 1,12,-1
300 139 m 17,0,-1
 253 82 l 9,1,-1
 210 118 l 17,2,-1
 256 174 l 9,3,-1
 300 139 l 17,0,-1
EndSplineSet
Fore
SplineSet
-191 1015.5 m 131,-1,1
 -191 1164 -191 1164 -120 1273 c 8,2,3
 10 1471 10 1471 283 1471 c 131,-1,4
 556 1471 556 1471 679 1226 c 0,5,6
 687 1210 687 1210 697 1210 c 131,-1,7
 707 1210 707 1210 714 1214 c 2,8,-1
 1147 1466 l 2,9,10
 1156 1471 1156 1471 1166 1471 c 131,-1,11
 1176 1471 1176 1471 1183 1461 c 128,-1,12
 1190 1451 1190 1451 1190 1440 c 131,-1,13
 1190 1429 1190 1429 1170.5 1410.5 c 136,-1,14
 1151 1392 1151 1392 1151 1368 c 3,15,16
 1151 1278 1151 1278 1255 1178 c 0,17,18
 1534 910 1534 910 1534 638 c 3,19,20
 1534 431 1534 431 1373 221 c 0,21,22
 1169 -45 1169 -45 970 -45 c 3,23,24
 859 -45 859 -45 755 -4 c 0,25,26
 747 -1 747 -1 741 -1 c 3,27,28
 728 -1 728 -1 722 -20 c 0,29,30
 661 -248 661 -248 528 -389 c 0,31,32
 511 -407 511 -407 497 -407 c 3,33,34
 471 -407 471 -407 471 -382 c 3,35,36
 471 -369 471 -369 487 -351 c 0,37,38
 589 -242 589 -242 589 54 c 3,39,40
 589 82 589 82 566 99 c 0,41,42
 482 158 482 158 385 158 c 3,43,44
 316 158 316 158 278 112 c 0,45,46
 263 94 263 94 249 94 c 3,47,48
 222 94 222 94 222 118 c 3,49,50
 222 133 222 133 234 147 c 0,51,52
 400 365 400 365 553 365 c 3,53,54
 580 365 580 365 580 394 c 3,55,56
 580 823 580 823 430 1116 c 0,57,58
 343 1285 343 1285 203.5 1285 c 131,-1,59
 64 1285 64 1285 -19.5 1211 c 136,-1,60
 -103 1137 -103 1137 -103 1013.5 c 155,-1,61
 -103 890 -103 890 -27.5 805.5 c 144,-1,62
 48 721 48 721 159.5 721 c 139,-1,63
 271 721 271 721 324 750 c 0,64,65
 335 756 335 756 348 756 c 3,66,67
 372 756 372 756 372 730 c 3,68,69
 372 713 372 713 350 701 c 0,70,71
 264 655 264 655 132 655 c 131,-1,72
 0 655 0 655 -95.5 761 c 152,-1,0
 -191 867 -191 867 -191 1015.5 c 131,-1,1
716 1135 m 3,73,74
 716 1129 716 1129 718 1122 c 8,75,76
 773 941 773 941 773 395 c 3,77,78
 771 354 771 354 771 316 c 11,79,80
 771 287 771 287 794 271 c 16,81,82
 993 141 993 141 1110 141 c 3,83,84
 1244 141 1244 141 1329 255 c 0,85,86
 1391 338 1391 338 1391 438 c 3,87,88
 1391 672 1391 672 1051 997 c 0,89,90
 935 1108 935 1108 902 1227 c 0,91,92
 897 1245 897 1245 888 1245 c 131,-1,93
 879 1245 879 1245 870 1240 c 2,94,-1
 735 1161 l 2,95,96
 716 1150 716 1150 716 1135 c 3,73,74
EndSplineSet
EndChar
StartChar: Q
Encoding: 81 81 50
Width: 1534
VWidth: 2065
GlyphClass: 1
Flags: MW
HStem: -45 20<658 782> -20 20<1253 1311> 1451 20<695 732>
DStem2: 4 205 45 167 0.733761 0.679408<4.26668 73.5935> 358 836 354 546 0.9322 -0.361944<0 101.235> 472 320 371 51 0.77364 -0.633625<0 92.3076> 372 1227 400 1178 0.907563 0.419917<4.83582 73.8241> 470 383 515 348 0.68622 0.727394<5.42114 72.8629> 809 188 852 153 0.628019 0.778198<0 72.2359> 893 1429 877 1140 0.917111 -0.398631<0 100.531> 1442 131 1485 95 0.628019 0.778198<0 72.2359>
LayerCount: 2
Fore
SplineSet
17 203 m 3,0,1
 17 217 17 217 33 232 c 0,2,3
 176 365 176 365 299.5 365 c 131,-1,4
 423 365 423 365 530 272 c 8,5,6
 744 87 744 87 902 87 c 3,7,8
 978 87 978 87 1041 109 c 0,9,10
 1057 114 1057 114 1057 123.5 c 131,-1,11
 1057 133 1057 133 1048 143 c 0,12,13
 984 211 984 211 934 211 c 3,14,15
 900 211 900 211 881 188 c 128,-1,16
 862 165 862 165 846 165 c 3,17,18
 821 165 821 165 821 189 c 3,19,20
 821 203 821 203 833 217 c 0,21,22
 948 359 948 359 1058 359 c 3,23,24
 1147 359 1147 359 1208 291 c 0,25,26
 1217 281 1217 281 1225.5 281 c 131,-1,27
 1234 281 1234 281 1241 296 c 0,28,29
 1274 378 1274 378 1274 496 c 3,30,31
 1274 967 1274 967 833 1159 c 0,32,33
 684 1224 684 1224 570 1224 c 259,34,35
 496 1224 496 1224 432 1193 c 0,36,37
 261 1110 261 1110 261 969 c 3,38,39
 261 874 261 874 428 809 c 0,40,41
 654 720 654 720 654 586 c 3,42,43
 654 495 654 495 542 376 c 0,44,45
 527 360 527 360 510 360 c 3,46,47
 483 360 483 360 483 384 c 3,48,49
 483 397 483 397 494.5 409.5 c 128,-1,50
 506 422 506 422 506 434 c 3,51,52
 506 488 506 488 316 561 c 0,53,54
 51 663 51 663 51 871.5 c 131,-1,55
 51 1080 51 1080 406 1243 c 0,56,57
 568 1317 568 1317 652 1438 c 8,58,59
 675 1471 675 1471 706 1471 c 3,60,61
 795 1471 795 1471 955 1402 c 0,62,63
 1429 1196 1429 1196 1429 677 c 3,64,65
 1429 431 1429 431 1289 240 c 0,66,67
 1281 229 1281 229 1281 218 c 131,-1,68
 1281 207 1281 207 1291 197 c 0,69,70
 1357 128 1357 128 1406 128 c 3,71,72
 1440 128 1440 128 1459 151.5 c 128,-1,73
 1478 175 1478 175 1494 175 c 3,74,75
 1519 175 1519 175 1519 151 c 3,76,77
 1519 137 1519 137 1507 122 c 0,78,79
 1392 -20 1392 -20 1282 -20 c 3,80,81
 1204 -20 1204 -20 1134 47 c 0,82,83
 1122 59 1122 59 1111.5 59 c 131,-1,84
 1101 59 1101 59 1091 53 c 0,85,86
 934 -45 934 -45 712 -45 c 131,-1,87
 490 -45 490 -45 336.5 80 c 128,-1,88
 183 205 183 205 111 205 c 3,89,90
 87 205 87 205 72.5 192 c 128,-1,91
 58 179 58 179 44 179 c 3,92,93
 17 179 17 179 17 203 c 3,0,1
EndSplineSet
EndChar
StartChar: R
Encoding: 82 82 51
Width: 1670
VWidth: 2065
GlyphClass: 1
Flags: MW
HStem: -20 20<391 442 1371 1406> 1451 20<386 480 1135 1200>
DStem2: 43 181 87 146 0.61856 0.785738<0 57.3421> 438 291 264 59 0.541415 -0.840755<0 100.849> 443 729 483 689 0.74666 0.665206<3.25815 72.9147> 607 176 648 138 0.646685 0.762757<0 57.4887> 750 1337 608 1085 0.644776 -0.764372<0 101.063> 858 1239 908 1214 0.452692 0.891667<0.342949 72.8972> 965 699 1000 655 0.830971 0.556316<4.60607 707.413> 1313 780 1115 573 0.459487 -0.888184<0 92.8757> 1408 479 1153 346 0.149384 -0.988779<0 93.4147> 1468 1199 1222 1051 0.211149 -0.977454<0 92.7205> 1438 270 1269 38 0.573144 -0.819454<0 93.2519> 1567 140 1598 94 0.819232 0.573462<0 71.6828>
LayerCount: 2
Back
SplineSet
828.924 607.752 m 25,0,-1
 1826.05 1275.38 l 1,1,-1
 1857.21 1228.85 l 1,2,-1
 860.08 561.219 l 1,3,-1
 828.924 607.752 l 25,0,-1
443 729 m 25,4,-1
 497 778 l 1,5,-1
 538 738 l 1,6,-1
 483 689 l 1,7,-1
 443 729 l 25,4,-1
607 176 m 17,124,-1
 644 220 l 1,125,-1
 687 184 l 1,126,-1
 648 138 l 1,127,-1
 607 176 l 17,124,-1
608 1085 m 1,142,-1
 360 1379 l 1,143,-1
 540 1189 l 1,144,-1
 750 1337 l 1,145,-1
 998 1045 l 1,146,-1
 822 1229 l 1,147,-1
 608 1085 l 1,142,-1
123 191 m 17,148,-1
 87 146 l 1,149,-1
 43 181 l 1,150,-1
 80 228 l 1,151,-1
 123 191 l 17,148,-1
264 59 m 1,152,-1
 56 382 l 1,153,-1
 211 170 l 1,154,-1
 438 291 l 1,155,-1
 646 -32 l 1,156,-1
 494 174 l 1,157,-1
 264 59 l 1,152,-1
1222 1051 m 17,0,-1
 1133 1463 l 1,1,-1
 1214 1188 l 1,2,-1
 1468 1199 l 1,3,-1
 1557 787 l 1,4,-1
 1474 1073 l 1,5,-1
 1222 1051 l 17,0,-1
1153 346 m 17,6,-1
 1090 763 l 1,7,-1
 1153 483 l 1,8,-1
 1408 479 l 1,9,-1
 1471 62 l 1,10,-1
 1406 352 l 1,11,-1
 1153 346 l 17,6,-1
1115 573 m 17,12,-1
 921 948 l 1,13,-1
 1071 703 l 1,14,-1
 1313 780 l 1,15,-1
 1507 405 l 1,16,-1
 1352 660 l 1,17,-1
 1115 573 l 17,12,-1
858 1239 m 17,18,-1
 891 1304 l 1,19,-1
 941 1279 l 1,20,-1
 908 1214 l 1,21,-1
 858 1239 l 17,18,-1
1269 38 m 17,22,-1
 1028 384 l 1,23,-1
 1209 161 l 1,24,-1
 1438 270 l 1,25,-1
 1680 -76 l 1,26,-1
 1493 156 l 1,27,-1
 1269 38 l 17,22,-1
1567 140 m 17,42,-1
 1627 182 l 1,43,-1
 1658 135 l 1,44,-1
 1598 94 l 1,45,-1
 1567 140 l 17,42,-1
EndSplineSet
Fore
SplineSet
-66 1032 m 131,-1,1
 -66 1207 -66 1207 76 1339 c 128,-1,2
 218 1471 218 1471 434 1471 c 131,-1,3
 650 1471 650 1471 809 1265 c 0,4,5
 826 1242 826 1242 843 1242 c 131,-1,6
 860 1242 860 1242 875 1272 c 0,7,8
 975 1471 975 1471 1169 1471 c 3,9,10
 1410 1471 1410 1471 1483 1130 c 0,11,12
 1495 1074 1495 1074 1518 1074 c 3,13,14
 1525 1074 1525 1074 1534 1080 c 128,-1,15
 1543 1086 1543 1086 1556 1086 c 3,16,17
 1581 1086 1581 1086 1581 1060 c 3,18,19
 1581 1044 1581 1044 1560 1030 c 2,20,-1
 1272 837 l 18,21,22
 1259 828 1259 828 1259 817 c 3,23,24
 1259 807 1259 807 1281 794 c 0,25,26
 1317 772 1317 772 1340 728 c 0,27,28
 1383 644 1383 644 1411.5 455.5 c 128,-1,29
 1440 267 1440 267 1481 208.5 c 128,-1,30
 1522 150 1522 150 1565 150 c 3,31,32
 1581 150 1581 150 1595.5 160 c 128,-1,33
 1610 170 1610 170 1622 170 c 3,34,35
 1647 170 1647 170 1647 142 c 3,36,37
 1647 128 1647 128 1630 116 c 2,38,-1
 1478 12 l 2,39,40
 1431 -20 1431 -20 1389 -20 c 3,41,42
 1310 -20 1310 -20 1245 73 c 128,-1,43
 1180 166 1180 166 1150 364.5 c 136,-1,44
 1120 563 1120 563 1091 619 c 128,-1,45
 1062 675 1062 675 1040 675 c 3,46,47
 1030 675 1030 675 1021 669 c 128,-1,48
 1012 663 1012 663 999 663 c 3,49,50
 973 663 973 663 973 689 c 3,51,52
 973 704 973 704 995 719 c 2,53,-1
 1291 917 l 18,54,55
 1308 928 1308 928 1308 939.5 c 131,-1,56
 1308 951 1308 951 1287 962 c 0,57,58
 1236 989 1236 989 1214 1088 c 0,59,60
 1154 1360 1154 1360 1061 1360 c 3,61,62
 982 1360 982 1360 925 1247 c 0,63,64
 899 1197 899 1197 899 1134 c 3,65,66
 899 1095 899 1095 909 1053 c 0,67,68
 934 948 934 948 934 807 c 3,69,70
 934 494 934 494 670 164 c 0,71,72
 523 -20 523 -20 419 -20 c 131,-1,73
 315 -20 315 -20 238 100 c 0,74,75
 181 188 181 188 139 188 c 3,76,77
 121 188 121 188 108 172 c 128,-1,78
 95 156 95 156 81 156 c 3,79,80
 54 156 54 156 54 182 c 3,81,82
 54 195 54 195 65 209 c 0,83,84
 190 367 190 367 290 367 c 131,-1,85
 390 367 390 367 466 247 c 0,86,87
 522 160 522 160 564 160 c 3,88,89
 594 160 594 160 625 197 c 0,90,91
 758 357 758 357 758 632 c 131,-1,92
 758 907 758 907 569 1131 c 24,93,94
 461 1259 461 1259 321.5 1259 c 131,-1,95
 182 1259 182 1259 107 1171 c 128,-1,96
 32 1083 32 1083 32 976 c 131,-1,97
 32 869 32 869 100 783 c 128,-1,98
 168 697 168 697 287 697 c 131,-1,99
 406 697 406 697 468 752 c 0,100,101
 485 767 485 767 498 767 c 3,102,103
 526 767 526 767 526 740 c 3,104,105
 526 727 526 727 509 712 c 0,106,107
 419 633 419 633 264.5 633 c 131,-1,108
 110 633 110 633 22 745 c 128,-1,0
 -66 857 -66 857 -66 1032 c 131,-1,1
EndSplineSet
EndChar
StartChar: S
Encoding: 83 83 52
Width: 1591
VWidth: 2065
GlyphClass: 1
Flags: MW
HStem: -45 20<741.75 872.75> 1451 20<808 884>
VStem: 1468 55<502 577>
DStem2: 320.251 1171.27 357.993 1129.9 0.738347 0.674421<0 72.9681> 420.527 382.635 326.152 109.01 0.773248 -0.634104<0 100.531> 490.557 821.124 446.825 786.147 0.625059 -0.780577<0 72.9685> 814.75 818.4 1067.12 676.672 0.762013 0.647562<0 100.531> 1002.03 1430.68 932.604 1149.68 0.827065 -0.562106<0 100.532> 1398.23 1335.92 1438.17 1296.67 0.700538 0.713615<0 72.9684>
LayerCount: 2
Back
SplineSet
1467 577 m 25,0,-1
 1523 577 l 25,1,-1
 1523 502 l 25,2,-1
 1468 502 l 25,3,-1
 1467 577 l 25,0,-1
814.75 818.4 m 1,12,-1
 1107.22 1066.94 l 1,13,-1
 918.016 885.784 l 1,14,-1
 1067.12 676.672 l 1,15,-1
 774.648 428.133 l 1,16,-1
 959.413 604.78 l 1,17,-1
 814.75 818.4 l 1,12,-1
492.803 728.73 m 17,18,-1
 446.825 786.147 l 9,19,-1
 490.557 821.124 l 17,20,-1
 536.167 764.167 l 9,21,-1
 492.803 728.73 l 17,18,-1
412.304 1179.51 m 17,22,-1
 357.993 1129.9 l 9,23,-1
 320.251 1171.27 l 17,24,-1
 374.127 1220.48 l 9,25,-1
 412.304 1179.51 l 17,22,-1
932.604 1149.68 m 1,26,-1
 615.165 1365.43 l 1,27,-1
 840.16 1231.28 l 1,28,-1
 1002.03 1430.68 l 1,29,-1
 1319.46 1214.93 l 1,30,-1
 1100 1346 l 1,31,-1
 932.604 1149.68 l 1,26,-1
1489.7 1349.16 m 17,32,-1
 1438.17 1296.67 l 9,33,-1
 1398.23 1335.92 l 17,34,-1
 1449.35 1387.99 l 9,35,-1
 1489.7 1349.16 l 17,32,-1
326.152 109.01 m 1,36,-1
 29.3691 352.388 l 1,37,-1
 241.408 198.58 l 1,38,-1
 420.527 382.635 l 1,39,-1
 717.307 139.256 l 1,40,-1
 510.5 289.5 l 1,41,-1
 326.152 109.01 l 1,36,-1
EndSplineSet
Fore
SplineSet
68 631.5 m 131,-1,1
 68 942 68 942 345 1194 c 0,2,3
 651 1471 651 1471 846 1471 c 3,4,5
 943 1471 943 1471 1063 1389 c 128,-1,6
 1183 1307 1183 1307 1276.5 1307 c 131,-1,7
 1370 1307 1370 1307 1416 1354 c 0,8,9
 1437 1375 1437 1375 1454 1375 c 3,10,11
 1476 1375 1476 1375 1476 1353 c 3,12,13
 1476 1337 1476 1337 1456 1315 c 0,14,15
 1274 1113 1274 1113 1131 1113 c 131,-1,16
 988 1113 988 1113 877.5 1188 c 128,-1,17
 767 1263 767 1263 635 1263 c 131,-1,18
 503 1263 503 1263 378 1149 c 128,-1,19
 253 1035 253 1035 253 778 c 131,-1,20
 253 521 253 521 460.5 351 c 128,-1,21
 668 181 668 181 921.5 181 c 131,-1,22
 1175 181 1175 181 1321.5 293 c 128,-1,23
 1468 405 1468 405 1468 531.5 c 131,-1,24
 1468 658 1468 658 1398 711 c 128,-1,25
 1328 764 1328 764 1248.5 764 c 131,-1,26
 1169 764 1169 764 1041.5 655 c 128,-1,27
 914 546 914 546 773 546 c 131,-1,28
 632 546 632 546 472 755 c 0,29,30
 459 772 459 772 459 784 c 3,31,32
 459 810 459 810 484 810 c 3,33,34
 499 810 499 810 516 789 c 0,35,36
 560 735 560 735 638.5 735 c 131,-1,37
 717 735 717 735 844 843 c 128,-1,38
 971 951 971 951 1122.5 951 c 131,-1,39
 1274 951 1274 951 1398.5 844 c 128,-1,40
 1523 737 1523 737 1523 531.5 c 131,-1,41
 1523 326 1523 326 1310.5 140.5 c 128,-1,42
 1098 -45 1098 -45 807 -45 c 131,-1,43
 516 -45 516 -45 292 138 c 128,-1,0
 68 321 68 321 68 631.5 c 131,-1,1
EndSplineSet
AlternateSubs2: "Access All Alternates" S.modern
Substitution2: "Modern variants" S.modern
Substitution2: "Modern S" S.modern
EndChar
StartChar: T
Encoding: 84 84 53
Width: 1318
VWidth: 2065
GlyphClass: 1
Flags: MW
HStem: -45 20<774 867> 1451 20<494 587>
DStem2: 0 323 45 289 0.657534 0.753425<3.9726 73> 349 729 381 682 0.865735 0.500503<4.17988 73.9256> 460 437 330 177 0.675322 -0.737523<0 103.964> 750 841 640 572 0.728982 -0.684532<0 103.951> 642 1088 672 1040 0.886098 0.463498<4.33507 73.3553> 673 314 703 266 0.886098 0.463498<4.33507 73.3553> 1055 1268 960 994 0.767978 -0.640476<0 102.532> 1198 153 1244 119 0.665206 0.74666<5.21304 73.6614> 1298 1155 1343 1121 0.665206 0.74666<4.54784 72.9962>
LayerCount: 2
Back
SplineSet
349 729 m 25,0,-1
 413 766 l 1,1,-1
 445 719 l 1,2,-1
 381 682 l 25,3,-1
 349 729 l 25,0,-1
1298 1155 m 25,4,-1
 1346 1210 l 1,5,-1
 1392 1176 l 1,6,-1
 1343 1121 l 25,7,-1
 1298 1155 l 25,4,-1
1198 153 m 25,8,-1
 1247 208 l 1,9,-1
 1292 174 l 1,10,-1
 1244 119 l 25,11,-1
 1198 153 l 25,8,-1
0 323 m 29,12,-1
 48 378 l 5,13,-1
 93 344 l 5,14,-1
 45 289 l 29,15,-1
 0 323 l 29,12,-1
330 177 m 17,16,-1
 103 426 l 9,17,-1
 258 288 l 25,18,-1
 460 437 l 1,19,-1
 688 188 l 9,20,-1
 534 343 l 25,21,-1
 330 177 l 17,16,-1
960 994 m 17,22,-1
 701 1210 l 9,23,-1
 873 1094 l 25,24,-1
 1055 1268 l 1,25,-1
 1313 1052 l 9,26,-1
 1139 1185 l 25,27,-1
 960 994 l 17,22,-1
913 1035 m 25,28,-1
913 1035 m 25,0,-1
673 314 m 25,0,-1
 738 348 l 1,1,-1
 768 300 l 1,2,-1
 703 266 l 25,3,-1
 673 314 l 25,0,-1
642 1088 m 25,4,-1
 707 1122 l 1,5,-1
 737 1074 l 1,6,-1
 672 1040 l 25,7,-1
 642 1088 l 25,4,-1
640 572 m 17,8,-1
 394 803 l 9,9,-1
 559 677 l 25,10,-1
 750 841 l 1,11,-1
 996 610 l 9,12,-1
 830 753 l 25,13,-1
 640 572 l 17,8,-1
EndSplineSet
Fore
SplineSet
-52 1009.5 m 131,-1,1
 -52 1190 -52 1190 111 1330.5 c 136,-1,2
 274 1471 274 1471 545.5 1471 c 131,-1,3
 817 1471 817 1471 1096 1234 c 0,4,5
 1193 1152 1193 1152 1258 1152 c 3,6,7
 1296 1152 1296 1152 1321 1181 c 0,8,9
 1337 1199 1337 1199 1352 1199 c 3,10,11
 1379 1199 1379 1199 1379 1174 c 3,12,13
 1379 1161 1379 1161 1366 1147 c 0,14,15
 1203 971 1203 971 1074 971 c 3,16,17
 987 971 987 971 909 1037 c 0,18,19
 612 1289 612 1289 411 1289 c 3,20,21
 216 1289 216 1289 127.5 1200 c 136,-1,22
 39 1111 39 1111 39 990.5 c 131,-1,23
 39 870 39 870 107.5 796 c 144,-1,24
 176 722 176 722 256.5 722 c 131,-1,25
 337 722 337 722 382 748 c 0,26,27
 394 755 394 755 407 755 c 3,28,29
 434 755 434 755 434 728 c 0,30,31
 434 712 434 712 414 701 c 0,32,33
 334 655 334 655 227.5 655 c 131,-1,34
 121 655 121 655 34.5 742 c 152,-1,0
 -52 829 -52 829 -52 1009.5 c 131,-1,1
14 325 m 3,35,36
 14 339 14 339 29 356 c 0,37,38
 164 510 164 510 279 510 c 131,-1,39
 394 510 394 510 503 391 c 0,40,41
 792 73 792 73 1005 73 c 3,42,43
 1128 73 1128 73 1223 181 c 0,44,45
 1239 199 1239 199 1253 199 c 3,46,47
 1279 199 1279 199 1279 172 c 3,48,49
 1279 159 1279 159 1267 145 c 0,50,51
 1104 -45 1104 -45 818 -45 c 131,-1,52
 532 -45 532 -45 279 233 c 0,53,54
 180 342 180 342 119 342 c 3,55,56
 91 342 91 342 73 321.5 c 128,-1,57
 55 301 55 301 40 301 c 3,58,59
 14 301 14 301 14 325 c 3,35,36
467 854 m 3,60,61
 467 1010 467 1010 685 1111 c 0,62,63
 698 1117 698 1117 708 1117 c 3,64,65
 734 1117 734 1117 734 1089 c 3,66,67
 734 1073 734 1073 711 1061 c 0,68,69
 665 1036 665 1036 665 993 c 3,70,71
 665 920 665 920 806 788.5 c 152,-1,72
 947 657 947 657 947 536 c 3,73,74
 947 380 947 380 729 279 c 0,75,76
 716 273 716 273 706 273 c 3,77,78
 680 273 680 273 680 301 c 3,79,80
 680 317 680 317 703 329 c 0,81,82
 749 354 749 354 749 397 c 3,83,84
 749 467 749 467 608 601.5 c 152,-1,85
 467 736 467 736 467 854 c 3,60,61
EndSplineSet
EndChar
StartChar: U
Encoding: 85 85 54
Width: 1287
VWidth: 2065
GlyphClass: 1
Flags: MW
HStem: -20 20<443 502 1013 1058> 1451 20<370 435 1196 1214>
VStem: 856 226<278.546 1213.22>
DStem2: -49 221 -18 175 0.836244 0.548357<0.699155 72.9452> 342 1052 204 798 0.655921 -0.75483<0 101.21> 422 315 284 61 0.655921 -0.75483<0 101.21> 514 1212 557 1178 0.626557 0.779376<0.443174 65.437> 725 169 765 131 0.700209 0.713938<0.878693 72.1352> 1207 1484 1242 1442 0.759257 0.650791<-73.214 -0.759257> 1209 169 1249 129 0.707107 0.707107<0 73.5391>
LayerCount: 2
Back
SplineSet
204 798 m 5,0,-1
 -48 1086 l 1,1,-1
 136 900 l 1,2,-1
 342 1052 l 1,3,-1
 594 762 l 1,4,-1
 416 944 l 1,5,-1
 204 798 l 5,0,-1
1242 1442 m 17,0,-1
 1186 1394 l 9,1,-1
 1150 1438 l 17,2,-1
 1207 1484 l 9,3,-1
 1242 1442 l 17,0,-1
284 61 m 1,0,-1
 32 349 l 1,1,-1
 215 163 l 1,2,-1
 422 315 l 1,3,-1
 674 25 l 1,4,-1
 495 207 l 1,5,-1
 284 61 l 1,0,-1
816 183 m 17,4,-1
 765 131 l 9,5,-1
 725 169 l 17,6,-1
 775 221 l 9,7,-1
 816 183 l 17,4,-1
43 215 m 17,4,-1
 -18 175 l 9,5,-1
 -49 221 l 17,6,-1
 12 261 l 9,7,-1
 43 215 l 17,4,-1
1301 181 m 17,4,-1
 1249 129 l 9,5,-1
 1209 169 l 17,6,-1
 1261 221 l 9,7,-1
 1301 181 l 17,4,-1
EndSplineSet
Fore
SplineSet
-38 212 m 3,0,1
 -38 228 -38 228 -20 240 c 0,2,3
 264 430 264 430 264 619 c 3,4,5
 264 729 264 729 154.5 854.5 c 128,-1,6
 45 980 45 980 45 1122 c 131,-1,7
 45 1264 45 1264 162.5 1367.5 c 128,-1,8
 280 1471 280 1471 397.5 1471 c 131,-1,9
 515 1471 515 1471 566.5 1422.5 c 128,-1,10
 618 1374 618 1374 618 1314.5 c 131,-1,11
 618 1255 618 1255 592 1221 c 128,-1,12
 566 1187 566 1187 548 1187 c 3,13,14
 524 1187 524 1187 524 1213 c 3,15,16
 524 1226 524 1226 541 1245 c 128,-1,17
 558 1264 558 1264 558 1300 c 131,-1,18
 558 1336 558 1336 524.5 1365 c 136,-1,19
 491 1394 491 1394 426.5 1394 c 131,-1,20
 362 1394 362 1394 315.5 1350.5 c 128,-1,21
 269 1307 269 1307 269 1221.5 c 131,-1,22
 269 1136 269 1136 377 1012 c 128,-1,23
 485 888 485 888 485 770 c 3,24,25
 485 597 485 597 282 403 c 0,26,27
 261 383 261 383 261 368 c 131,-1,28
 261 353 261 353 311 353 c 3,29,30
 390 353 390 353 478 250.5 c 128,-1,31
 566 148 566 148 652 148 c 3,32,33
 707 148 707 148 754 199 c 0,34,35
 856 308 856 308 856 456 c 2,36,-1
 856 1176 l 2,37,38
 856 1212 856 1212 824.5 1212 c 131,-1,39
 793 1212 793 1212 793 1238.5 c 131,-1,40
 793 1265 793 1265 820 1272 c 0,41,42
 995 1317 995 1317 1177 1460 c 0,43,44
 1191 1471 1191 1471 1205 1471 c 3,45,46
 1229 1471 1229 1471 1229 1447 c 3,47,48
 1229 1431 1229 1431 1212 1416 c 0,49,50
 1082 1301 1082 1301 1082 1184 c 2,51,-1
 1082 302 l 2,52,53
 1082 150 1082 150 1162 150 c 3,54,55
 1190 150 1190 150 1232 192 c 0,56,57
 1246 206 1246 206 1261 206 c 3,58,59
 1287 206 1287 206 1287 180 c 3,60,61
 1287 167 1287 167 1275 155 c 2,62,-1
 1157 35 l 2,63,64
 1103 -20 1103 -20 1039 -20 c 3,65,66
 888 -20 888 -20 866 152 c 0,67,68
 861 191 861 191 842.5 191 c 131,-1,69
 824 191 824 191 795 161 c 0,70,71
 620 -20 620 -20 474 -20 c 3,72,73
 352 -20 352 -20 250 98.5 c 128,-1,74
 148 217 148 217 78 217 c 3,75,76
 46 217 46 217 14 196 c 0,77,78
 0 187 0 187 -14 187 c 3,79,80
 -38 187 -38 187 -38 212 c 3,0,1
EndSplineSet
AlternateSubs2: "Access All Alternates" U.hist
Substitution2: "Historical variants" U.hist
EndChar
StartChar: V
Encoding: 86 86 55
Width: 1591
VWidth: 2065
GlyphClass: 1
Flags: MW
HStem: -45 20<868 972> 1451 20<347 451 1091 1157>
DStem2: 63.25 267.583 104.25 228.583 0.74666 0.665206<4.67002 73.6614> 416 729 456 689 0.74666 0.665206<3.25815 72.9147> 514 455.5 554 415.5 0.74666 0.665206<3.25815 72.9147> 657.364 346.533 537.896 83 0.710759 -0.703435<0 100.465> 710.129 1359.26 577.643 1102.02 0.67473 -0.738065<0 100.464> 828.402 1255.6 878.5 1229.32 0.514817 0.8573<3.25822 72.9148> 1343 1334.93 1118 1153 0.319661 -0.947532<0 100.465> 1261.93 114.062 1335.75 105.708 0.736994 0.675899<0 48.7612> 1366.16 689.313 1262.05 419.344 0.750052 -0.661379<0 100.465> 1449.62 1115.49 1479.37 1068.8 0.848408 0.529342<0.524937 74.3253>
LayerCount: 2
Back
SplineSet
514 455.5 m 25,4,-1
 568 504.5 l 1,5,-1
 609 464.5 l 1,6,-1
 554 415.5 l 1,7,-1
 514 455.5 l 25,4,-1
577.643 1102.02 m 1,0,-1
 318.447 1385.55 l 1,1,-1
 506 1203 l 1,2,-1
 710.129 1359.26 l 1,3,-1
 968.323 1075.75 l 1,4,-1
 785.717 1254.23 l 1,5,-1
 577.643 1102.02 l 1,0,-1
828.402 1255.6 m 25,4,-1
 865.371 1318.45 l 1,5,-1
 916.418 1292.46 l 1,6,-1
 878.496 1229.32 l 1,7,-1
 828.402 1255.6 l 25,4,-1
416 729 m 29,4,-1
 470 778 l 5,5,-1
 511 738 l 5,6,-1
 456 689 l 5,7,-1
 416 729 l 29,4,-1
1118 1153 m 1,0,-1
 995.203 1516.99 l 1,1,-1
 1093.18 1274.3 l 1,2,-1
 1343 1334.93 l 1,3,-1
 1464.88 971.357 l 1,4,-1
 1369.79 1208.33 l 1,5,-1
 1118 1153 l 1,0,-1
1449.62 1115.49 m 25,0,-1
 1512.02 1155.89 l 1,1,-1
 1543 1108.5 l 1,2,-1
 1479.37 1068.8 l 1,3,-1
 1449.62 1115.49 l 25,0,-1
1262.05 419.344 m 1,0,-1
 973.916 673.411 l 1,1,-1
 1179.98 512.047 l 1,2,-1
 1366.16 689.313 l 1,3,-1
 1653.29 435.153 l 1,4,-1
 1452.58 593.003 l 1,5,-1
 1262.05 419.344 l 1,0,-1
63.25 267.583 m 25,8,-1
 118.25 316.583 l 1,9,-1
 159.25 277.583 l 1,10,-1
 104.25 228.583 l 1,11,-1
 63.25 267.583 l 25,8,-1
537.896 83 m 1,0,-1
 264.858 353.224 l 1,1,-1
 461.297 180.271 l 1,2,-1
 657.364 346.533 l 1,3,-1
 929.401 76.2744 l 1,4,-1
 738.105 245.41 l 1,5,-1
 537.896 83 l 1,0,-1
EndSplineSet
Fore
SplineSet
-89 1031.5 m 131,-1,1
 -89 1206 -89 1206 56 1338.5 c 128,-1,2
 201 1471 201 1471 404 1471 c 131,-1,3
 607 1471 607 1471 772 1291 c 0,4,5
 796 1265 796 1265 815.5 1265 c 131,-1,6
 835 1265 835 1265 850 1292 c 0,7,8
 949 1471 949 1471 1123 1471 c 131,-1,9
 1297 1471 1297 1471 1365 1268 c 0,10,11
 1411 1130 1411 1130 1461 1130 c 3,12,13
 1472 1130 1472 1130 1483.5 1137.5 c 128,-1,14
 1495 1145 1495 1145 1505 1145 c 3,15,16
 1532 1145 1532 1145 1532 1116 c 3,17,18
 1532 1102 1532 1102 1512 1089 c 0,19,20
 1301 955 1301 955 1301 850 c 131,-1,21
 1301 745 1301 745 1412 648 c 128,-1,22
 1523 551 1523 551 1523 412 c 131,-1,23
 1523 273 1523 273 1316 88 c 0,24,25
 1168 -45 1168 -45 917 -45 c 131,-1,26
 666 -45 666 -45 495.5 124.5 c 128,-1,27
 325 294 325 294 252 294 c 131,-1,28
 179 294 179 294 133 254 c 0,29,30
 117 240 117 240 106 240 c 3,31,32
 77 240 77 240 77 269 c 3,33,34
 77 280 77 280 93 294 c 0,35,36
 290 466 290 466 411 466 c 3,37,38
 441 466 441 466 460.5 460.5 c 128,-1,39
 480 455 480 455 490 455 c 3,40,41
 513 455 513 455 533 473 c 0,42,43
 667 592 667 592 667 797.5 c 131,-1,44
 667 1003 667 1003 550.5 1131 c 136,-1,45
 434 1259 434 1259 303 1259 c 131,-1,46
 172 1259 172 1259 88.5 1171 c 128,-1,47
 5 1083 5 1083 5 976.5 c 131,-1,48
 5 870 5 870 73.5 783.5 c 128,-1,49
 142 697 142 697 260.5 697 c 131,-1,50
 379 697 379 697 441 752 c 0,51,52
 458 767 458 767 471 767 c 3,53,54
 499 767 499 767 499 740 c 3,55,56
 499 727 499 727 482 712 c 0,57,58
 392 633 392 633 238 633 c 131,-1,59
 84 633 84 633 -2.5 745 c 128,-1,0
 -89 857 -89 857 -89 1031.5 c 131,-1,1
569 420.5 m 131,-1,61
 569 412 569 412 581 403 c 0,62,63
 644 360 644 360 709 296 c 0,64,65
 939 67 939 67 1103 67 c 3,66,67
 1213 67 1213 67 1283 133 c 0,68,69
 1331 178 1331 178 1331 268.5 c 131,-1,70
 1331 359 1331 359 1213 463 c 128,-1,71
 1095 567 1095 567 1095 699 c 131,-1,72
 1095 831 1095 831 1260 975 c 0,73,74
 1276 989 1276 989 1276 1000 c 131,-1,75
 1276 1011 1276 1011 1252 1018 c 0,76,77
 1154 1046 1154 1046 1105 1192 c 0,78,79
 1060 1326 1060 1326 998.5 1326 c 131,-1,80
 937 1326 937 1326 893.5 1254 c 128,-1,81
 850 1182 850 1182 850 1116 c 3,82,83
 850 1100 850 1100 852 1086 c 0,84,85
 866 1008 866 1008 866 937 c 3,86,87
 866 691 866 691 578 437 c 0,88,60
 569 429 569 429 569 420.5 c 131,-1,61
EndSplineSet
AlternateSubs2: "Access All Alternates" V.modern
Substitution2: "Modern variants" V.modern
Substitution2: "Modern V" V.modern
EndChar
StartChar: W
Encoding: 87 87 56
Width: 2139
VWidth: 2065
GlyphClass: 1
Flags: MW
HStem: -45 20<762 836 1533 1605> 1342 129<942 979> 1451 20<361 448 1481 1563>
DStem2: 68 273 106 230 0.765974 0.642871<1.46356 73.1095> 416 729 456 689 0.74666 0.665206<3.25815 72.9147> 671 344 512 101 0.593732 -0.804663<0 101.13> 513 455.5 553 415.5 0.74666 0.665206<3.25815 72.9147> 704 1365 572 1109 0.675254 -0.737585<0 99.6883> 782 1328 834 1306 0.397223 0.917722<-66.2253 0> 1170 1261 1119 1239 0.397223 -0.917722<-72.6096 -0.0684867> 1296 898 1133 658 0.580253 -0.814436<0 100.883> 1206 1337 1245 1295 0.753425 0.657534<1.76712 73> 1406 317 1314 42 0.778577 -0.627549<0 100.947> 1891 1269 1670 1081 0.341116 -0.940021<0 101.337> 1917 712 1810 442 0.743811 -0.66839<0 100.877> 1837 134 1879 96 0.69338 0.720572<1.74025 73.5527> 1975 1126 2005 1078 0.868243 0.496139<2.23263 72.5603>
LayerCount: 2
Back
SplineSet
-89 1018.5 m 135,-1,1
 -89 1195 -89 1195 56 1333 c 132,-1,2
 201 1471 201 1471 405 1471 c 135,-1,3
 609 1471 609 1471 747 1319 c 20,4,5
 758 1307 758 1307 766 1307 c 135,-1,6
 774 1307 774 1307 782 1321 c 4,7,8
 861 1471 861 1471 960 1471 c 263,9,10
 1062 1471 1062 1471 1144 1317 c 4,11,12
 1152 1302 1152 1302 1161.5 1302 c 135,-1,13
 1171 1302 1171 1302 1182 1313 c 4,14,15
 1207 1339 1207 1339 1235 1363 c 4,16,17
 1356 1471 1356 1471 1521 1471 c 7,18,19
 1819 1471 1819 1471 1910 1217 c 4,20,21
 1939 1136 1939 1136 1980 1136 c 7,22,23
 1992 1136 1992 1136 2005.5 1143.5 c 132,-1,24
 2019 1151 2019 1151 2031 1151 c 7,25,26
 2056 1151 2056 1151 2056 1123 c 7,27,28
 2056 1108 2056 1108 2032 1094 c 4,29,30
 1848 987 1848 987 1848 864 c 4,31,32
 1848 774 1848 774 1959.5 674 c 132,-1,33
 2071 574 2071 574 2071 450 c 7,34,35
 2071 300 2071 300 1908.5 127.5 c 132,-1,36
 1746 -45 1746 -45 1568 -45 c 7,37,38
 1420 -45 1420 -45 1266 81 c 4,39,40
 1227 113 1227 113 1187.5 113 c 135,-1,41
 1148 113 1148 113 1108 83 c 12,42,43
 937 -45 937 -45 800 -45 c 7,44,45
 620 -45 620 -45 491 129.5 c 132,-1,46
 362 304 362 304 253 304 c 7,47,48
 190 304 190 304 132 253 c 4,49,50
 118 241 118 241 104 241 c 7,51,52
 78 241 78 241 78 267 c 7,53,54
 78 282 78 282 95 296 c 4,55,56
 288 455 288 455 436 455 c 15,57,58
 513 455 513 455 540 480 c 4,59,60
 667 599 667 599 667 797 c 7,61,62
 667 1003 667 1003 550.5 1131 c 140,-1,63
 434 1259 434 1259 303 1259 c 135,-1,64
 172 1259 172 1259 88.5 1171 c 132,-1,65
 5 1083 5 1083 5 972.5 c 135,-1,66
 5 862 5 862 73 779.5 c 132,-1,67
 141 697 141 697 260 697 c 135,-1,68
 379 697 379 697 441 752 c 4,69,70
 458 767 458 767 471 767 c 7,71,72
 499 767 499 767 499 740 c 7,73,74
 499 727 499 727 482 712 c 4,75,76
 392 633 392 633 238 633 c 135,-1,77
 84 633 84 633 -2.5 737.5 c 132,-1,0
 -89 842 -89 842 -89 1018.5 c 135,-1,1
583 427.5 m 135,-1,79
 583 414 583 414 602 401 c 4,80,81
 655 365 655 365 713 287 c 4,82,83
 839 118 839 118 975 118 c 7,84,85
 1068 118 1068 118 1153.5 194.5 c 132,-1,86
 1239 271 1239 271 1239 375 c 7,87,88
 1239 510 1239 510 1103 701 c 4,89,90
 1009 833 1009 833 1009 962 c 7,91,92
 1009 1089 1009 1089 1099 1215 c 4,93,94
 1110 1230 1110 1230 1110 1244 c 135,-1,95
 1110 1258 1110 1258 1102 1271 c 4,96,97
 1056 1342 1056 1342 960 1342 c 263,98,99
 868 1342 868 1342 820 1268 c 4,100,101
 811 1253 811 1253 811 1236.5 c 135,-1,102
 811 1220 811 1220 819 1202 c 4,103,104
 866 1091 866 1091 866 935 c 7,105,106
 866 702 866 702 597 454 c 4,107,78
 583 441 583 441 583 427.5 c 135,-1,79
1205 1158 m 7,108,109
 1205 1028 1205 1028 1334 846 c 4,110,111
 1429 713 1429 713 1429 579 c 7,112,113
 1429 473 1429 473 1366 360 c 20,114,115
 1361 351 1361 351 1361 343 c 7,116,117
 1361 327 1361 327 1383 320 c 4,118,119
 1418 309 1418 309 1451 281 c 4,120,121
 1656 114 1656 114 1757 114 c 7,122,123
 1817 114 1817 114 1860.5 158.5 c 132,-1,124
 1904 203 1904 203 1904 258 c 7,125,126
 1904 358 1904 358 1766.5 481.5 c 132,-1,127
 1629 605 1629 605 1629 724 c 7,128,129
 1629 849 1629 849 1768 976 c 4,130,131
 1784 989 1784 989 1783.5 1000.5 c 132,-1,132
 1783 1012 1783 1012 1755 1019 c 4,133,134
 1686 1038 1686 1038 1655 1123 c 4,135,136
 1559 1386 1559 1386 1426 1386 c 7,137,138
 1344 1386 1344 1386 1274.5 1322 c 132,-1,139
 1205 1258 1205 1258 1205 1158 c 7,108,109
513 455.5 m 25,4,-1
 567 504.5 l 1,5,-1
 608 464.5 l 1,6,-1
 553 415.5 l 1,7,-1
 513 455.5 l 25,4,-1
577.643 1102.02 m 1,0,-1
 318.447 1385.55 l 1,1,-1
 506 1203 l 1,2,-1
 710.129 1359.26 l 1,3,-1
 968.323 1075.75 l 1,4,-1
 785.717 1254.23 l 1,5,-1
 577.643 1102.02 l 1,0,-1
416 729 m 25,4,-1
 470 778 l 1,5,-1
 511 738 l 1,6,-1
 456 689 l 1,7,-1
 416 729 l 25,4,-1
782 1328 m 17,0,-1
 754 1261 l 1,1,-1
 805 1239 l 1,2,-1
 834 1306 l 1,3,-1
 782 1328 l 17,0,-1
1142 1328 m 17,14,-1
 1170 1261 l 1,15,-1
 1119 1239 l 1,16,-1
 1090 1306 l 1,17,-1
 1142 1328 l 17,14,-1
960 1536 m 25,0,-1
 960 1230 l 25,1,-1
1810 442 m 1,0,-1
 1524 699 l 1,1,-1
 1730 537 l 1,2,-1
 1917 712 l 1,3,-1
 2203 455 l 1,4,-1
 2003 616 l 1,5,-1
 1810 442 l 1,0,-1
1314 42 m 1,6,-1
 1015 283 l 1,7,-1
 1229 132 l 1,8,-1
 1406 317 l 1,9,-1
 1705 76 l 1,10,-1
 1497 225 l 1,11,-1
 1314 42 l 1,6,-1
1133 658 m 1,12,-1
 910 971 l 1,13,-1
 1075 768 l 1,14,-1
 1296 898 l 1,15,-1
 1519 586 l 1,16,-1
 1359 786 l 1,17,-1
 1133 658 l 1,12,-1
1670 1081 m 1,18,-1
 1539 1442 l 1,19,-1
 1644 1202 l 1,20,-1
 1891 1269 l 1,21,-1
 2022 908 l 1,22,-1
 1922 1143 l 1,23,-1
 1670 1081 l 1,18,-1
2067 1115 m 17,24,-1
 2005 1078 l 9,25,-1
 1975 1126 l 17,26,-1
 2038 1162 l 9,27,-1
 2067 1115 l 17,24,-1
1298 1344 m 17,28,-1
 1245 1295 l 9,29,-1
 1206 1337 l 17,30,-1
 1261 1385 l 9,31,-1
 1298 1344 l 17,28,-1
1929 149 m 17,36,-1
 1879 96 l 9,37,-1
 1837 134 l 17,38,-1
 1888 187 l 9,39,-1
 1929 149 l 17,36,-1
512 101 m 1,0,-1
 284 410 l 1,1,-1
 453 210 l 1,2,-1
 671 344 l 1,3,-1
 899 35 l 1,4,-1
 736 232 l 1,5,-1
 512 101 l 1,0,-1
161 278 m 17,0,-1
 106 230 l 9,1,-1
 68 273 l 17,2,-1
 124 320 l 9,3,-1
 161 278 l 17,0,-1
EndSplineSet
Fore
SplineSet
-89 1018.5 m 131,-1,1
 -89 1195 -89 1195 56 1333 c 128,-1,2
 201 1471 201 1471 405 1471 c 131,-1,3
 609 1471 609 1471 747 1319 c 16,4,5
 758 1307 758 1307 766 1307 c 131,-1,6
 774 1307 774 1307 782 1321 c 0,7,8
 861 1471 861 1471 960 1471 c 259,9,10
 1062 1471 1062 1471 1144 1317 c 0,11,12
 1152 1302 1152 1302 1161.5 1302 c 131,-1,13
 1171 1302 1171 1302 1182 1313 c 0,14,15
 1207 1339 1207 1339 1235 1363 c 0,16,17
 1356 1471 1356 1471 1521 1471 c 3,18,19
 1819 1471 1819 1471 1910 1217 c 0,20,21
 1939 1136 1939 1136 1980 1136 c 3,22,23
 1992 1136 1992 1136 2005.5 1143.5 c 128,-1,24
 2019 1151 2019 1151 2031 1151 c 3,25,26
 2056 1151 2056 1151 2056 1123 c 3,27,28
 2056 1108 2056 1108 2032 1094 c 0,29,30
 1848 987 1848 987 1848 864 c 0,31,32
 1848 774 1848 774 1959.5 674 c 128,-1,33
 2071 574 2071 574 2071 450 c 3,34,35
 2071 300 2071 300 1908.5 127.5 c 128,-1,36
 1746 -45 1746 -45 1568 -45 c 3,37,38
 1420 -45 1420 -45 1266 81 c 0,39,40
 1227 113 1227 113 1187.5 113 c 131,-1,41
 1148 113 1148 113 1108 83 c 8,42,43
 937 -45 937 -45 800 -45 c 3,44,45
 620 -45 620 -45 491 129.5 c 128,-1,46
 362 304 362 304 253 304 c 3,47,48
 190 304 190 304 132 253 c 0,49,50
 118 241 118 241 104 241 c 3,51,52
 78 241 78 241 78 267 c 3,53,54
 78 282 78 282 95 296 c 0,55,56
 288 455 288 455 436 455 c 11,57,58
 513 455 513 455 540 480 c 0,59,60
 667 599 667 599 667 797 c 3,61,62
 667 1003 667 1003 550.5 1131 c 136,-1,63
 434 1259 434 1259 303 1259 c 131,-1,64
 172 1259 172 1259 88.5 1171 c 128,-1,65
 5 1083 5 1083 5 972.5 c 131,-1,66
 5 862 5 862 73 779.5 c 128,-1,67
 141 697 141 697 260 697 c 131,-1,68
 379 697 379 697 441 752 c 0,69,70
 458 767 458 767 471 767 c 3,71,72
 499 767 499 767 499 740 c 3,73,74
 499 727 499 727 482 712 c 0,75,76
 392 633 392 633 238 633 c 131,-1,77
 84 633 84 633 -2.5 737.5 c 128,-1,0
 -89 842 -89 842 -89 1018.5 c 131,-1,1
583 427.5 m 131,-1,79
 583 414 583 414 602 401 c 0,80,81
 655 365 655 365 713 287 c 0,82,83
 839 118 839 118 975 118 c 3,84,85
 1068 118 1068 118 1153.5 194.5 c 128,-1,86
 1239 271 1239 271 1239 375 c 3,87,88
 1239 510 1239 510 1103 701 c 0,89,90
 1009 833 1009 833 1009 962 c 3,91,92
 1009 1089 1009 1089 1099 1215 c 0,93,94
 1110 1230 1110 1230 1110 1244 c 131,-1,95
 1110 1258 1110 1258 1102 1271 c 0,96,97
 1056 1342 1056 1342 960 1342 c 259,98,99
 868 1342 868 1342 820 1268 c 0,100,101
 811 1253 811 1253 811 1236.5 c 131,-1,102
 811 1220 811 1220 819 1202 c 0,103,104
 866 1091 866 1091 866 935 c 3,105,106
 866 702 866 702 597 454 c 0,107,78
 583 441 583 441 583 427.5 c 131,-1,79
1205 1158 m 3,108,109
 1205 1028 1205 1028 1334 846 c 0,110,111
 1429 713 1429 713 1429 579 c 3,112,113
 1429 473 1429 473 1366 360 c 16,114,115
 1361 351 1361 351 1361 343 c 3,116,117
 1361 327 1361 327 1383 320 c 0,118,119
 1418 309 1418 309 1451 281 c 0,120,121
 1656 114 1656 114 1757 114 c 3,122,123
 1817 114 1817 114 1860.5 158.5 c 128,-1,124
 1904 203 1904 203 1904 258 c 3,125,126
 1904 358 1904 358 1766.5 481.5 c 128,-1,127
 1629 605 1629 605 1629 730 c 3,128,129
 1629 846 1629 846 1768 976 c 0,130,131
 1783 989 1783 989 1783 1000.5 c 131,-1,132
 1783 1012 1783 1012 1755 1019 c 0,133,134
 1686 1038 1686 1038 1655 1123 c 0,135,136
 1559 1386 1559 1386 1426 1386 c 3,137,138
 1344 1386 1344 1386 1274.5 1322 c 128,-1,139
 1205 1258 1205 1258 1205 1158 c 3,108,109
EndSplineSet
EndChar
StartChar: X
Encoding: 88 88 57
Width: 1224
VWidth: 2065
GlyphClass: 1
Flags: MW
HStem: -20 20<254 287 907 956> 699 190<794.526 1003.75> 1451 20<292 392 1016 1049>
DStem2: -53 58 -3 32 0.4741 0.880471<0.812743 73.2823> 292 274 175 9 0.716163 -0.697933<0 101.161> 376 803 406 756 0.846461 0.532451<-72.7137 0> 435 188 484 161 0.4741 0.880471<0 72.4695> 638 1381 506 1123 0.675134 -0.737695<0 101.208> 898 317 766 60 0.675134 -0.737695<0 100.47> 827 1266 878 1244 0.419917 0.907563<-71.9548 0> 1107 1449 970 1194 0.658689 -0.752415<0 101.626> 1137 191 1176 151 0.720572 0.69338<0.367084 73.5527> 1201 1390 1253 1368 0.408665 0.912685<1.17151 73.4098>
LayerCount: 2
Back
SplineSet
1283.5 1435.36 m 17,103,-1
 1252.5 1368.36 l 9,104,-1
 1201.5 1390.36 l 17,105,-1
 1231.5 1457.36 l 9,106,-1
 1283.5 1435.36 l 17,103,-1
969.695 1194.46 m 1,107,-1
 716.626 1483.22 l 1,108,-1
 900.87 1297.62 l 1,109,-1
 1107.2 1449.31 l 1,110,-1
 1360.34 1161.54 l 1,111,-1
 1180.8 1342.79 l 1,112,-1
 969.695 1194.46 l 1,107,-1
796 1199 m 17,115,-1
 827 1266 l 9,116,-1
 878 1244 l 17,117,-1
 848 1177 l 9,118,-1
 796 1199 l 17,115,-1
1228.87 201.572 m 17,0,-1
 1175.87 150.572 l 9,1,-1
 1136.87 190.572 l 17,2,-1
 1189.87 241.572 l 9,3,-1
 1228.87 201.572 l 17,0,-1
406 756 m 17,4,-1
 344 717 l 9,5,-1
 314 765 l 17,6,-1
 376 803 l 9,7,-1
 406 756 l 17,4,-1
766 60 m 1,0,-1
 507 343 l 1,1,-1
 695 161 l 1,2,-1
 898 317 l 1,3,-1
 1157 34 l 1,4,-1
 974 212 l 1,5,-1
 766 60 l 1,0,-1
506 1123 m 1,0,-1
 247 1406 l 1,1,-1
 435 1224 l 1,2,-1
 638 1381 l 1,3,-1
 897 1098 l 1,4,-1
 714 1276 l 1,5,-1
 506 1123 l 1,0,-1
-53 58 m 17,41,-1
 -18 123 l 9,42,-1
 31 96 l 17,43,-1
 -3 32 l 9,44,-1
 -53 58 l 17,41,-1
519 226 m 17,45,-1
 484 161 l 9,46,-1
 435 188 l 17,47,-1
 469 252 l 9,48,-1
 519 226 l 17,45,-1
175 9 m 1,49,-1
 -100 277 l 1,50,-1
 98 106 l 1,51,-1
 292 274 l 1,52,-1
 567 6 l 1,53,-1
 374 173 l 1,54,-1
 175 9 l 1,49,-1
EndSplineSet
Fore
SplineSet
-81 1070.5 m 131,-1,1
 -81 1255 -81 1255 42 1363 c 152,-1,2
 165 1471 165 1471 339 1471 c 3,3,4
 557 1471 557 1471 671 1345 c 0,5,6
 724 1286 724 1286 744 1206 c 0,7,8
 753 1169 753 1169 769 1169 c 3,9,10
 783 1169 783 1169 811 1231 c 0,11,12
 919 1471 919 1471 1032 1471 c 3,13,14
 1090 1471 1090 1471 1143 1409 c 0,15,16
 1161 1388 1161 1388 1181 1388 c 131,-1,17
 1201 1388 1201 1388 1217 1425 c 0,18,19
 1227 1448 1227 1448 1245 1448 c 3,20,21
 1273 1448 1273 1448 1273 1423 c 3,22,23
 1273 1414 1273 1414 1267 1400 c 0,24,25
 1167 1166 1167 1166 1051 1166 c 3,26,27
 992 1166 992 1166 939 1230 c 0,28,29
 921 1252 921 1252 902 1252 c 131,-1,30
 883 1252 883 1252 864 1212 c 0,31,32
 787 1050 787 1050 787 918 c 3,33,34
 787 889 787 889 815 889 c 2,35,-1
 1087 889 l 2,36,37
 1109 889 1109 889 1109 879 c 3,38,39
 1109 872 1109 872 1100 861 c 2,40,-1
 990 727 l 2,41,42
 967 699 967 699 931 699 c 26,43,-1
 819 699 l 18,44,45
 794 699 794 699 794 668 c 3,46,47
 794 431 794 431 931 281 c 0,48,49
 1021 183 1021 183 1088 183 c 3,50,51
 1129 183 1129 183 1163 216 c 0,52,53
 1177 230 1177 230 1192 230 c 3,54,55
 1217 230 1217 230 1217 203 c 3,56,57
 1217 190 1217 190 1202 176 c 10,58,-1
 1059 38 l 18,59,60
 999 -20 999 -20 931 -20 c 3,61,62
 839 -20 839 -20 739 89 c 0,63,64
 660 176 660 176 613 317 c 0,65,66
 600 356 600 356 586.5 356 c 131,-1,67
 573 356 573 356 558 316 c 0,68,69
 535 256 535 256 504 198 c 0,70,71
 388 -20 388 -20 269 -20 c 3,72,73
 205 -20 205 -20 138 45 c 0,74,75
 89 93 89 93 59 93 c 131,-1,76
 29 93 29 93 13 62 c 0,77,78
 3 42 3 42 -15 42 c 3,79,80
 -43 42 -43 42 -43 66 c 19,81,82
 -43 77 -43 77 -39 84 c 0,83,84
 80 304 80 304 195 304 c 3,85,86
 260 304 260 304 328 239 c 0,87,88
 376 192 376 192 406.5 192 c 131,-1,89
 437 192 437 192 454 224 c 0,90,91
 566 437 566 437 566 671 c 3,92,93
 566 699 566 699 538 699 c 18,94,-1
 447 699 l 2,95,96
 425 699 425 699 425 709 c 3,97,98
 425 716 425 716 434 727 c 2,99,-1
 535 850 l 2,100,101
 554 873 554 873 554 903 c 3,102,103
 554 911 554 911 553 918 c 0,104,105
 527 1099 527 1099 470 1162 c 0,106,107
 373 1269 373 1269 257.5 1269 c 131,-1,108
 142 1269 142 1269 80 1199 c 152,-1,109
 18 1129 18 1129 18 1014.5 c 131,-1,110
 18 900 18 900 79.5 829.5 c 152,-1,111
 141 759 141 759 219.5 759 c 131,-1,112
 298 759 298 759 345 784 c 0,113,114
 358 791 358 791 369 791 c 3,115,116
 395 791 395 791 395 764 c 3,117,118
 395 749 395 749 374 736 c 0,119,120
 314 699 314 699 197.5 699 c 131,-1,121
 81 699 81 699 0 792.5 c 152,-1,0
 -81 886 -81 886 -81 1070.5 c 131,-1,1
EndSplineSet
EndChar
StartChar: Y
Encoding: 89 89 58
Width: 1517
VWidth: 2065
GlyphClass: 1
Flags: MW
HStem: -20 20<567 628> 1451 20<319 405 1060 1125>
DStem2: 207 -36 164 -72 0.636182 -0.771539<0.419609 73.5263> 212 120 249 77 0.752577 0.658505<0 73.9407> 375 729 415 689 0.74666 0.665206<3.25815 72.9147> 586 290 464 30 0.71887 -0.695145<0 93.0355> 693 1324 541 1081 0.631039 -0.775751<0 92.5896> 782 168 829 138 0.548357 0.836244<0.685446 72.9452> 804 1301 851 1272 0.516493 0.856291<-73.2333 -0.557269> 1287 607 1113 379 0.5547 -0.83205<0 93.1896> 1378 1234 1139 1075 0.253676 -0.967289<0 93.1703> 1519 1063 1541 1012 0.912685 0.408665<-73.26 -0.762841>
LayerCount: 2
Back
SplineSet
375 729 m 29,4,-1
 429 778 l 5,5,-1
 470 738 l 5,6,-1
 415 689 l 5,7,-1
 375 729 l 29,4,-1
1113 379 m 21,0,-1
 879 730 l 5,1,-1
 1055 503 l 5,2,-1
 1287 607 l 5,3,-1
 1521 256 l 5,4,-1
 1339 492 l 5,5,-1
 1113 379 l 21,0,-1
464 30 m 21,6,-1
 161 323 l 5,7,-1
 381 139 l 5,8,-1
 586 290 l 5,9,-1
 889 -3 l 5,10,-1
 661 188 l 5,11,-1
 464 30 l 21,6,-1
1139 1075 m 21,12,-1
 1032 1483 l 5,13,-1
 1124 1211 l 5,14,-1
 1378 1234 l 5,15,-1
 1485 826 l 5,16,-1
 1389 1108 l 5,17,-1
 1139 1075 l 21,12,-1
207 -36 m 21,18,-1
 254 -93 l 5,19,-1
 211 -128 l 5,20,-1
 164 -72 l 5,21,-1
 207 -36 l 21,18,-1
1452 1033 m 21,22,-1
 1519 1063 l 5,23,-1
 1541 1012 l 5,24,-1
 1475 982 l 5,25,-1
 1452 1033 l 21,22,-1
782 168 m 21,26,-1
 822 229 l 5,27,-1
 869 199 l 5,28,-1
 829 138 l 5,29,-1
 782 168 l 21,26,-1
212 120 m 21,30,-1
 268 169 l 5,31,-1
 305 126 l 5,32,-1
 249 77 l 5,33,-1
 212 120 l 21,30,-1
541 1081 m 21,34,-1
 275 1408 l 5,35,-1
 472 1199 l 5,36,-1
 693 1324 l 5,37,-1
 959 997 l 5,38,-1
 756 1215 l 5,39,-1
 541 1081 l 21,34,-1
765 1239 m 21,40,-1
 804 1301 l 5,41,-1
 851 1272 l 5,42,-1
 813 1209 l 5,43,-1
 765 1239 l 21,40,-1
EndSplineSet
Fore
SplineSet
-134 1031.5 m 131,-1,1
 -134 1206 -134 1206 8 1338.5 c 128,-1,2
 150 1471 150 1471 364.5 1471 c 131,-1,3
 579 1471 579 1471 741 1265 c 0,4,5
 752 1251 752 1251 762.5 1251 c 131,-1,6
 773 1251 773 1251 782 1266 c 8,7,8
 905 1471 905 1471 1092 1471 c 3,9,10
 1316 1471 1316 1471 1390 1188 c 0,11,12
 1427 1046 1427 1046 1474 1046 c 3,13,14
 1481 1046 1481 1046 1490 1050 c 128,-1,15
 1499 1054 1499 1054 1508 1054 c 3,16,17
 1532 1054 1532 1054 1532 1024 c 3,18,19
 1532 1008 1532 1008 1510 998 c 0,20,21
 1262 885 1262 885 1262 724 c 3,22,23
 1262 644 1262 644 1323 553 c 0,24,25
 1433 389 1433 389 1433 212.5 c 131,-1,26
 1433 36 1433 36 1239.5 -153.5 c 128,-1,27
 1046 -343 1046 -343 718 -343 c 131,-1,28
 390 -343 390 -343 191 -104 c 0,29,30
 176 -86 176 -86 176 -75 c 11,31,32
 176 -52 176 -52 204 -47 c 16,33,34
 215 -45 215 -45 231 -65 c 0,35,36
 394 -269 394 -269 656.5 -269 c 131,-1,37
 919 -269 919 -269 1051.5 -139 c 128,-1,38
 1184 -9 1184 -9 1184 131 c 131,-1,39
 1184 271 1184 271 1079 430 c 0,40,41
 1021 517 1021 517 1021 601 c 3,42,43
 1021 763 1021 763 1249 920 c 0,44,45
 1265 931 1265 931 1265 942.5 c 131,-1,46
 1265 954 1265 954 1241 966 c 0,47,48
 1156 1008 1156 1008 1124 1132 c 0,49,50
 1074 1323 1074 1323 957 1323 c 3,51,52
 883 1323 883 1323 830 1237 c 0,53,54
 809 1203 809 1203 809 1170 c 3,55,56
 809 1151 809 1151 816 1132 c 0,57,58
 846 1052 846 1052 846 967 c 3,59,60
 846 702 846 702 532 347 c 0,61,62
 517 330 517 330 517 318 c 3,63,64
 517 298 517 298 557.5 288.5 c 128,-1,65
 598 279 598 279 649 229 c 0,66,67
 710 170 710 170 750 170 c 3,68,69
 783 170 783 170 799 194 c 128,-1,70
 815 218 815 218 831 218 c 3,71,72
 857 218 857 218 857 193 c 3,73,74
 857 181 857 181 848 167 c 0,75,76
 728 -20 728 -20 597 -20 c 3,77,78
 515 -20 515 -20 442.5 50.5 c 144,-1,79
 370 121 370 121 328 121 c 3,80,81
 299 121 299 121 281.5 105.5 c 128,-1,82
 264 90 264 90 250 90 c 3,83,84
 225 90 225 90 225 115 c 19,85,86
 225 131 225 131 243 147 c 0,87,88
 635 495 635 495 635 794 c 3,89,90
 635 966 635 966 507 1123 c 0,91,92
 396 1259 396 1259 255 1259 c 131,-1,93
 114 1259 114 1259 39 1171 c 128,-1,94
 -36 1083 -36 1083 -36 976.5 c 131,-1,95
 -36 870 -36 870 32.5 783.5 c 128,-1,96
 101 697 101 697 219.5 697 c 131,-1,97
 338 697 338 697 400 752 c 0,98,99
 417 767 417 767 430 767 c 3,100,101
 458 767 458 767 458 740 c 3,102,103
 458 727 458 727 441 712 c 0,104,105
 351 633 351 633 197 633 c 131,-1,106
 43 633 43 633 -45.5 745 c 128,-1,0
 -134 857 -134 857 -134 1031.5 c 131,-1,1
EndSplineSet
AlternateSubs2: "Access All Alternates" Y.modern
Substitution2: "Modern Y" Y.modern
Substitution2: "Modern variants" Y.modern
EndChar
StartChar: Z
Encoding: 90 90 59
Width: 1205
VWidth: 2065
GlyphClass: 1
Flags: MW
HStem: -294 20<483 560> 752 56<321 372> 1056 21G<1180.65 1182.82> 1451 20<540.832 633.832>
DStem2: -140 1 -99 -38 0.74666 0.665206<4.67002 73.6614> 326.458 86.792 197.458 -172.208 0.684634 -0.728887<0 100.464> 337 597 357 544 0.957826 0.287348<3.92709 73.0821> 951.46 1347.79 811.46 1094.79 0.653145 -0.757232<0 100.139> 818 -143 889 -163 0.83205 0.5547<0 47.9816> 972.46 647.792 842.46 389.792 0.683247 -0.730187<0 99.5663>
LayerCount: 2
Back
SplineSet
321 808 m 25,0,0
 372 808 l 25,0,0
 372 752 l 25,0,0
 321 752 l 25,0,0
 321 808 l 25,0,0
337.5 597 m 25,0,-1
 407.5 618 l 1,1,-1
 427.5 565 l 1,2,-1
 357.5 544 l 25,3,-1
 337.5 597 l 25,0,-1
196 -173 m 1,0,-1
 -67 107 l 1,1,-1
 123 -73 l 1,2,-1
 325 86 l 1,3,-1
 587 -194 l 1,4,-1
 402 -18 l 1,5,-1
 196 -173 l 1,0,-1
841.43 388.738 m 1,0,-1
 579.889 669.234 l 1,1,-1
 769.237 488.599 l 1,2,-1
 970.93 646.988 l 1,3,-1
 1233.47 367.495 l 1,4,-1
 1048.13 543.138 l 1,5,-1
 841.43 388.738 l 1,0,-1
-140 1 m 25,0,-1
 -85 50 l 1,1,-1
 -44 11 l 1,2,-1
 -99 -38 l 25,3,-1
 -140 1 l 25,0,-1
885.74 -162.809 m 17,0,-1
 805.46 -217.031 l 1,1,-1
 815.17 -143.5 l 1,2,-1
 895.45 -89.2773 l 9,3,-1
 885.74 -162.809 l 17,0,-1
809.66 1093.91 m 1,0,-1
 559.412 1385.2 l 1,1,-1
 741.712 1196.92 l 1,2,-1
 950.45 1346.7 l 1,3,-1
 1199.75 1055.74 l 1,4,-1
 1022.46 1240.16 l 1,5,-1
 809.66 1093.91 l 1,0,-1
EndSplineSet
Fore
SplineSet
-128 1 m 3,0,1
 -128 12 -128 12 -112 26 c 0,2,3
 33 157 33 157 145 157 c 131,-1,4
 257 157 257 157 409 -4 c 128,-1,5
 561 -165 561 -165 688 -165 c 259,6,7
 784 -165 784 -165 836 -130 c 0,8,9
 943 -56 943 -56 943 131 c 259,10,11
 943 280 943 280 806 427 c 128,-1,12
 669 574 669 574 513 574 c 3,13,14
 450 574 450 574 390 554 c 0,15,16
 381 551 381 551 374 551 c 3,17,18
 345 551 345 551 345 581 c 19,19,20
 345 598 345 598 370 607 c 8,21,22
 841 762 841 762 841 981 c 259,23,24
 841 1056 841 1056 787 1120 c 0,25,26
 671 1255 671 1255 495.5 1255 c 131,-1,27
 320 1255 320 1255 241.5 1178 c 144,-1,28
 163 1101 163 1101 163 1016 c 131,-1,29
 163 931 163 931 209 869.5 c 152,-1,30
 255 808 255 808 342 808 c 3,31,32
 379 808 379 808 379 780 c 155,-1,33
 379 752 379 752 341 752 c 3,34,35
 214 752 214 752 137 825 c 152,-1,36
 60 898 60 898 60 1046.5 c 131,-1,37
 60 1195 60 1195 202 1333 c 152,-1,38
 344 1471 344 1471 594 1471 c 131,-1,39
 844 1471 844 1471 975 1318 c 0,40,41
 1061 1218 1061 1218 1061 1076 c 3,42,43
 1061 892 1061 892 833 745 c 0,44,45
 819 736 819 736 819 728.5 c 131,-1,46
 819 721 819 721 837 716 c 0,47,48
 930 690 930 690 1033.5 579.5 c 128,-1,49
 1137 469 1137 469 1137 257 c 259,50,51
 1137 11 1137 11 867 -175 c 0,52,53
 694 -294 694 -294 521 -294 c 259,54,55
 309 -294 309 -294 171 -147 c 128,-1,56
 33 0 33 0 -34 0 c 3,57,58
 -56 0 -56 0 -71.5 -14 c 128,-1,59
 -87 -28 -87 -28 -99 -28 c 3,60,61
 -128 -28 -128 -28 -128 1 c 3,0,1
EndSplineSet
EndChar
StartChar: bracketleft
Encoding: 91 91 60
Width: 508
VWidth: 2065
GlyphClass: 1
Flags: W
HStem: -386 45<346.006 484.994> 1403 45<346.006 484.994>
VStem: 162 184<-341 1403>
LayerCount: 2
Fore
SplineSet
162 -362 m 10,0,-1
 162 1424 l 18,1,2
 162 1448 162 1448 185 1448 c 10,3,-1
 462 1448 l 18,4,5
 485 1448 485 1448 485 1425.5 c 131,-1,6
 485 1403 485 1403 462 1403 c 10,7,-1
 369 1403 l 18,8,9
 346 1403 346 1403 346 1380 c 2,10,-1
 346 -318 l 2,11,12
 346 -341 346 -341 369 -341 c 10,13,-1
 462 -341 l 18,14,15
 485 -341 485 -341 485 -363.5 c 131,-1,16
 485 -386 485 -386 462 -386 c 10,17,-1
 185 -386 l 18,18,19
 162 -386 162 -386 162 -362 c 10,0,-1
EndSplineSet
EndChar
StartChar: backslash
Encoding: 92 92 61
Width: 969
VWidth: 2065
GlyphClass: 1
Flags: W
HStem: 0 20<756 930> 1428 20<38.5 211.5>
DStem2: 935 24 731 24 0.446191 -0.894938<-1612.71 -42.2849>
LayerCount: 2
Fore
SplineSet
47 1448 m 10,0,1
 198 1448 l 18,2,3
 225 1448 225 1448 237 1424 c 10,4,-1
 935 24 l 18,5,6
 939 16 939 16 939 11 c 3,7,8
 939 0 939 0 921 0 c 10,9,-1
 771 0 l 18,10,11
 743 0 743 0 731 24 c 2,12,-1
 34 1424 l 2,13,14
 30 1432 30 1432 30 1437 c 3,15,16
 30 1448 30 1448 47 1448 c 10,0,1
EndSplineSet
EndChar
StartChar: underscore
Encoding: 95 95 63
Width: 934
VWidth: 2065
GlyphClass: 1
Flags: W
HStem: -407 109<-22 956>
LayerCount: 2
Fore
SplineSet
-22 -320 m 2,0,1
 -22 -298 -22 -298 0 -298 c 2,2,-1
 934 -298 l 2,3,4
 956 -298 956 -298 956 -320 c 2,5,-1
 956 -385 l 2,6,7
 956 -407 956 -407 934 -407 c 2,8,-1
 0 -407 l 2,9,10
 -22 -407 -22 -407 -22 -385 c 2,11,-1
 -22 -320 l 2,0,1
EndSplineSet
EndChar
StartChar: grave
Encoding: 96 96 64
AltUni2: 0002cb.ffffffff.0
Width: 454
VWidth: 2065
GlyphClass: 1
Flags: MW
HStem: 1428 20<204 210>
DStem2: 57 1344 66 1329 0.812104 0.583512<0 164.791>
LayerCount: 2
Back
SplineSet
210 1448 m 29,0,-1
 210 1428 l 29,1,-1
 204 1428 l 29,2,-1
 204 1448 l 29,3,-1
 210 1448 l 29,0,-1
57 1344 m 25,4,-1
 192 1441 l 17,5,-1
 201 1426 l 9,6,-1
 66 1329 l 25,7,-1
 57 1344 l 25,4,-1
EndSplineSet
Fore
SplineSet
47 1328.5 m 131,-1,1
 47 1337 47 1337 57 1344 c 2,2,-1
 192 1441 l 2,3,4
 201 1448 201 1448 207 1448 c 3,5,6
 217 1448 217 1448 219 1431 c 0,7,8
 234 1293 234 1293 396 1117 c 0,9,10
 406 1106 406 1106 406 1099 c 3,11,12
 406 1077 406 1077 384 1077 c 259,13,14
 363 1077 363 1077 274 1126 c 0,15,16
 135 1203 135 1203 53 1312 c 0,17,0
 47 1320 47 1320 47 1328.5 c 131,-1,1
EndSplineSet
EndChar
StartChar: a
Encoding: 97 97 65
Width: 935
VWidth: 2065
GlyphClass: 1
Flags: MW
HStem: -20 20<291.5 303 752.5 769> 1051 20G<478.5 492>
VStem: 570 203<198.812 779.75>
DStem2: 335.25 258.5 242.25 59.5 0.684532 -0.728983<0 81.406> 509 1046 386 884 0.80987 -0.586609<0 223.848> 500 180 328 -3 0.805406 0.592723<-45.4472 54.4933> 851.5 194.25 889.5 170.25 0.563194 0.826325<1.56956 54.1554>
LayerCount: 2
Fore
SplineSet
68 464 m 131,-1,1
 68 704 68 704 272 850 c 0,2,3
 395 938 395 938 461 1055 c 0,4,5
 470 1071 470 1071 483.5 1071 c 131,-1,6
 497 1071 497 1071 511 1054 c 0,7,8
 594 955 594 955 823 857 c 0,9,10
 844 848 844 848 844 837.5 c 131,-1,11
 844 827 844 827 819 813 c 0,12,13
 773 787 773 787 773 734 c 2,14,-1
 773 263 l 2,15,16
 773 194 773 194 831 194 c 3,17,18
 851 194 851 194 868 218 c 128,-1,19
 885 242 885 242 902 242 c 3,20,21
 920 242 920 242 920 222 c 3,22,23
 920 213 920 213 904 191 c 0,24,25
 822 71 822 71 784 -2 c 0,26,27
 775 -20 775 -20 760.5 -20 c 131,-1,28
 746 -20 746 -20 738 -3 c 128,-1,29
 730 14 730 14 706 26 c 0,30,31
 612 74 612 74 582 164 c 0,32,33
 579 173 579 173 573 173 c 131,-1,34
 567 173 567 173 559 167 c 10,35,-1
 328 -3 l 18,36,37
 305 -20 305 -20 292.5 -20 c 131,-1,38
 280 -20 280 -20 280 -2 c 27,39,40
 280 26 280 26 225 77 c 8,41,0
 68 224 68 224 68 464 c 131,-1,1
254 569 m 3,42,43
 254 346 254 346 375 214 c 0,44,45
 419 166 419 166 450 166 c 131,-1,46
 481 166 481 166 500 180 c 10,47,-1
 559 224 l 26,48,49
 570 232 570 232 570 245 c 2,50,-1
 570 744 l 2,51,52
 570 756 570 756 558 762 c 0,53,54
 493 795 493 795 409 866 c 0,55,56
 396 877 396 877 384 877 c 131,-1,57
 372 877 372 877 362 864 c 0,58,59
 254 722 254 722 254 569 c 3,42,43
EndSplineSet
Substitution2: "Superscript forms" ordfeminine
EndChar
StartChar: b
Encoding: 98 98 66
Width: 935
VWidth: 2065
GlyphClass: 1
Flags: MW
HStem: -20 21G<443 456.5> 1051 20G<636.554 649> 1403 45<465.65 604.991>
VStem: 162 203<271.357 852.188 894.372 1219>
DStem2: 71.8682 1364.58 34.5693 1337.56 0.58672 -0.80979<0 167.01> 362 301 239 139 0.80987 -0.586609<0 223.848> 380 887 376 828 0.805502 0.592594<0 80.2761> 693.5 991.5 600.5 792.5 0.684532 -0.728983<0 81.406>
LayerCount: 2
Fore
SplineSet
35 1349 m 27,0,1
 35 1368 35 1368 56 1368 c 3,2,3
 79 1368 79 1368 159 1245 c 0,4,5
 170 1228 170 1228 180.5 1228 c 131,-1,6
 191 1228 191 1228 200 1243 c 0,7,8
 323 1448 323 1448 568 1448 c 3,9,10
 606 1448 606 1448 606 1425.5 c 131,-1,11
 606 1403 606 1403 568 1403 c 27,12,13
 365 1403 365 1403 365 1149 c 10,14,-1
 365 896 l 18,15,16
 365 883 365 883 370 883 c 131,-1,17
 375 883 375 883 380 887 c 2,18,-1
 607 1054 l 18,19,20
 630 1071 630 1071 642.5 1071 c 131,-1,21
 655 1071 655 1071 655 1053 c 27,22,23
 655 1025 655 1025 710 974 c 8,24,25
 867 827 867 827 867 587 c 131,-1,26
 867 347 867 347 663 201 c 0,27,28
 540 113 540 113 474 -4 c 0,29,30
 465 -20 465 -20 451.5 -20 c 131,-1,31
 438 -20 438 -20 424 -3 c 0,32,33
 341 96 341 96 112 194 c 0,34,35
 91 203 91 203 91 213.5 c 131,-1,36
 91 224 91 224 116 238 c 0,37,38
 162 264 162 264 162 317 c 10,39,-1
 162 1008 l 18,40,41
 162 1206 162 1206 46 1322 c 0,42,43
 35 1333 35 1333 35 1349 c 27,0,1
365 307 m 2,44,45
 365 295 365 295 377 289 c 0,46,47
 442 256 442 256 526 185 c 0,48,49
 539 174 539 174 551 174 c 131,-1,50
 563 174 563 174 573 187 c 0,51,52
 681 329 681 329 681 482 c 3,53,54
 681 705 681 705 560 837 c 0,55,56
 516 885 516 885 484.5 885 c 131,-1,57
 453 885 453 885 436 872 c 10,58,-1
 377 828 l 26,59,60
 365 819 365 819 365 806 c 2,61,-1
 365 307 l 2,44,45
EndSplineSet
EndChar
StartChar: c
Encoding: 99 99 67
Width: 762
VWidth: 2065
GlyphClass: 1
Flags: MW
HStem: -20 20G<361 370> 1032 20<517 543>
DStem2: 318 983 365 955 0.913812 0.406138<0 31.5773> 549 1045 372 941 0.369534 -0.929217<17.5987 288.615> 614.668 184.666 637.665 146.332 0.875441 0.483325<1.6048 73.106>
LayerCount: 2
Back
SplineSet
614.668 184.666 m 25,0,-1
 678.668 220 l 25,1,-1
 701.665 181.666 l 25,2,-1
 637.665 146.332 l 25,3,-1
 614.668 184.666 l 25,0,-1
318 983 m 29,0,-1
 417 1027 l 29,1,-1
 365 955 l 29,2,-1
 266 911 l 29,3,-1
 318 983 l 29,0,-1
EndSplineSet
Fore
SplineSet
68 547 m 3,0,1
 68 876 68 876 335 991 c 0,2,3
 475 1052 475 1052 539 1052 c 3,4,5
 546 1052 546 1052 549 1045 c 18,6,-1
 652 786 l 2,7,8
 654 781 654 781 654 776 c 3,9,10
 654 763 654 763 639 757 c 2,11,-1
 492 698 l 2,12,13
 487 696 487 696 482 696 c 3,14,15
 469 696 469 696 463 712 c 2,16,-1
 372 941 l 2,17,18
 368 951 368 951 363 951 c 131,-1,19
 358 951 358 951 355 950 c 0,20,21
 257 911 257 911 257 643 c 3,22,23
 257 444 257 444 311 343 c 0,24,25
 403 171 403 171 531 171 c 3,26,27
 583 171 583 171 663 211 c 0,28,29
 677 218 677 218 683 218 c 27,30,31
 704 218 704 218 704 194 c 27,32,33
 704 183 704 183 686 173 c 0,34,35
 538 90 538 90 395 -7 c 0,36,37
 376 -20 376 -20 365 -20 c 155,-1,38
 354 -20 354 -20 347.5 4 c 152,-1,39
 341 28 341 28 318 43 c 0,40,41
 68 205 68 205 68 547 c 3,0,1
EndSplineSet
EndChar
StartChar: d
Encoding: 100 100 68
Width: 944
VWidth: 2065
GlyphClass: 1
Flags: MW
HStem: -20 21G<436.37 455.234> 1428 20G<309.5 323.5>
VStem: 162 203<262.461 828.484>
DStem2: 421 1141 185 1036 0.884918 -0.465746<0 183.597> 367 290 239 132 0.800536 -0.599284<0 215.818> 267.322 1427.33 289.992 1389 0.882156 0.470957<1.9475 50.2675> 334 873 384 855 0.79201 0.610508<-10.2436 75.5524>
LayerCount: 2
Back
SplineSet
239 132 m 25,0,-1
 367 290 l 25,1,-1
 546 156 l 25,2,-1
 418 -2 l 25,3,-1
 239 132 l 25,0,-1
725 981 m 25,0,-1
 489 876 l 25,1,-1
 185 1036 l 25,2,-1
 421 1141 l 25,3,-1
 725 981 l 25,0,-1
426 887 m 26,0,-1
EndSplineSet
Fore
SplineSet
91 213 m 131,-1,1
 91 223 91 223 116 238 c 0,2,3
 162 264 162 264 162 317 c 10,4,-1
 162 803 l 26,5,6
 162 828 162 828 184 828 c 27,7,8
 274 828 274 828 334 873 c 18,9,-1
 382 910 l 2,10,11
 391 917 391 917 391 922.5 c 131,-1,12
 391 928 391 928 380 934 c 0,13,14
 108 1071 108 1071 108 1207 c 131,-1,15
 108 1343 108 1343 288 1439 c 0,16,17
 305 1448 305 1448 314 1448 c 3,18,19
 333 1448 333 1448 333 1426 c 27,20,21
 333 1412 333 1412 310 1400 c 0,22,23
 255 1370 255 1370 255 1318 c 3,24,25
 255 1224 255 1224 504 1097 c 0,26,27
 876 906 876 906 876 547 c 3,28,29
 876 298 876 298 643 137 c 0,30,31
 506 43 506 43 481 5 c 0,32,33
 465 -20 465 -20 446 -20 c 131,-1,34
 427 -20 427 -20 411 -3 c 0,35,36
 298 114 298 114 112 194 c 0,37,0
 91 203 91 203 91 213 c 131,-1,1
365 311 m 18,38,39
 365 289 365 289 383 278 c 0,40,41
 454 239 454 239 522 174 c 0,42,43
 544 153 544 153 567 153 c 131,-1,44
 590 153 590 153 615 173 c 0,45,46
 734 271 734 271 734 442 c 3,47,48
 734 751 734 751 464 889 c 0,49,50
 455 894 455 894 445 894 c 131,-1,51
 435 894 435 894 426 887 c 2,52,-1
 384 855 l 2,53,54
 365 841 365 841 365 816 c 10,55,-1
 365 311 l 18,38,39
EndSplineSet
EndChar
StartChar: e
Encoding: 101 101 69
Width: 762
VWidth: 2065
GlyphClass: 1
Flags: MW
HStem: -20 20<361 371> 1032 20<517 543>
DStem2: 281 547 287 501 0.929296 0.369336<-13.0141 228.239> 318 983 365 955 0.913812 0.406138<0 31.5773> 549 1045 372 941 0.369595 -0.929193<17.585 352.143> 614.668 184.666 637.665 146.332 0.875441 0.483325<1.6048 73.106>
LayerCount: 2
Fore
SplineSet
68 547 m 3,0,1
 68 875 68 875 335 991 c 0,2,3
 475 1052 475 1052 539 1052 c 3,4,5
 546 1052 546 1052 549 1045 c 18,6,-1
 691 688 l 2,7,8
 694 682 694 682 694 676 c 3,9,10
 694 663 694 663 677 656 c 10,11,-1
 287 501 l 18,12,13
 269 494 269 494 269 481 c 3,14,15
 269 476 269 476 270 471 c 0,16,17
 283 396 283 396 311 343 c 0,18,19
 403 171 403 171 531 171 c 3,20,21
 583 171 583 171 663 211 c 0,22,23
 677 218 677 218 683 218 c 27,24,25
 704 218 704 218 704 194 c 27,26,27
 704 183 704 183 686 173 c 0,28,29
 538 90 538 90 395 -7 c 0,30,31
 376 -20 376 -20 365 -20 c 155,-1,32
 354 -20 354 -20 347.5 4 c 152,-1,33
 341 28 341 28 318 43 c 0,34,35
 68 205 68 205 68 547 c 3,0,1
257 643 m 3,36,37
 257 575 257 575 261 553 c 0,38,39
 263 544 263 544 268.5 544 c 131,-1,40
 274 544 274 544 281 547 c 2,41,-1
 475 624 l 2,42,43
 489 630 489 630 489 642 c 3,44,45
 489 647 489 647 486 654 c 10,46,-1
 372 941 l 18,47,48
 368 951 368 951 362.5 951 c 131,-1,49
 357 951 357 951 355 950 c 0,50,51
 257 913 257 913 257 643 c 3,36,37
EndSplineSet
EndChar
StartChar: f
Encoding: 102 102 70
Width: 586
VWidth: 2065
GlyphClass: 1
Flags: MW
HStem: -407 20<258 274> 849 109<387.005 543> 849 45<7.5 71.9045> 1428 20<299 333 605 615>
VStem: 145 242<707 849> 159 45<1155 1230>
DStem2: 479 1383 284 1258 0.875795 -0.482683<-110.445 0> 568 1380.5 609 1363 0.351123 0.936329<0 66.3623>
LayerCount: 2
Fore
SplineSet
7 866.5 m 131,-1,1
 7 884 7 884 32 893 c 0,2,3
 159 939 159 939 159 1190 c 3,4,5
 159 1356 159 1356 225 1415 c 0,6,7
 261 1448 261 1448 314.5 1448 c 131,-1,8
 368 1448 368 1448 428.5 1411 c 128,-1,9
 489 1374 489 1374 528 1374 c 131,-1,10
 567 1374 567 1374 582 1419 c 0,11,12
 592 1448 592 1448 609 1448 c 3,13,14
 628 1448 628 1448 628 1427 c 27,15,16
 628 1416 628 1416 624 1404 c 0,17,18
 556 1202 556 1202 433 1202 c 3,19,20
 382 1202 382 1202 329.5 1232.5 c 128,-1,21
 277 1263 277 1263 250 1263 c 3,22,23
 204 1263 204 1263 204 1190 c 3,24,25
 204 1076 204 1076 296 1008 c 0,26,27
 315 994 315 994 330 976 c 128,-1,28
 345 958 345 958 369 958 c 10,29,-1
 521 958 l 18,30,31
 543 958 543 958 543 936 c 2,32,-1
 543 871 l 2,33,34
 543 849 543 849 521 849 c 2,35,-1
 408 849 l 26,36,37
 387 849 387 849 387 827 c 3,38,39
 387 509 387 509 286 -373 c 24,40,41
 282 -407 282 -407 266 -407 c 155,-1,42
 250 -407 250 -407 246 -373 c 8,43,44
 145 509 145 509 145 827 c 3,45,46
 145 849 145 849 124 849 c 26,47,-1
 39 849 l 2,48,0
 7 849 7 849 7 866.5 c 131,-1,1
EndSplineSet
EndChar
StartChar: g
Encoding: 103 103 71
Width: 957
VWidth: 2065
GlyphClass: 1
Flags: MW
HStem: -386 20<362 447> -20 21G<286.25 298.75> 1051 20G<476 488>
DStem2: 334 259 242 61 0.700932 -0.713229<0 76.7336> 524.673 -326.682 539.328 -369.337 0.946855 0.32166<0.155938 58.085> 574 235 328 -3 0.805133 0.593094<-139.98 -0.161476> 769 347 580.594 271.946 0.364022 -0.93139<1.32021 213.489> 570 986 585 742 0.862483 -0.506085<0 136.422>
LayerCount: 2
Back
SplineSet
840 827 m 25,2,-1
 598 969 l 25,3,-1
 371 867 l 25,3,-1
 613 725 l 25,2,-1
 840 827 l 25,2,-1
778 326 m 25,0,-1
 856 127 l 25,1,-1
 668 52 l 25,2,-1
 590 251 l 25,3,-1
 778 326 l 25,0,-1
334 259 m 9,0,-1
 562 27 l 17,1,-1
 394 175 l 0,2,-1
 242 61 l 9,3,-1
 14 293 l 17,4,-1
 200 147 l 0,5,-1
 334 259 l 9,0,-1
EndSplineSet
Fore
SplineSet
68 464 m 131,-1,1
 68 704 68 704 272 850 c 0,2,3
 395 938 395 938 461 1055 c 0,4,5
 470 1071 470 1071 482 1071 c 3,6,7
 502 1071 502 1071 511 1054 c 0,8,9
 559 962 559 962 832 855 c 0,10,11
 858 846 858 846 858 834.5 c 131,-1,12
 858 823 858 823 838 808 c 0,13,14
 735 728 735 728 735 582.5 c 131,-1,15
 735 437 735 437 816 231 c 0,16,17
 866 103 866 103 866 0 c 3,18,19
 866 -260 866 -260 567 -360 c 0,20,21
 489 -386 489 -386 409 -386 c 3,22,23
 201 -386 201 -386 126 -291 c 0,24,25
 88 -243 88 -243 88 -199.5 c 131,-1,26
 88 -156 88 -156 114 -133 c 0,27,28
 143 -107 143 -107 181 -107 c 27,29,30
 264 -107 264 -107 330 -195 c 0,31,32
 427 -324 427 -324 514 -324 c 3,33,34
 534 -324 534 -324 553 -317 c 0,35,36
 679 -271 679 -271 679 -99 c 3,37,38
 679 22 679 22 616 182 c 0,39,40
 611 195 611 195 603.5 195 c 131,-1,41
 596 195 596 195 590 190 c 2,42,-1
 328 -3 l 2,43,44
 305 -20 305 -20 292.5 -20 c 131,-1,45
 280 -20 280 -20 280 -2 c 27,46,47
 280 26 280 26 225 77 c 8,48,0
 68 224 68 224 68 464 c 131,-1,1
254 569 m 3,49,50
 254 346 254 346 375 214 c 0,51,52
 419 166 419 166 450 166 c 131,-1,53
 481 166 481 166 500 180 c 2,54,-1
 574 235 l 2,55,56
 586 244 586 244 586 251.5 c 131,-1,57
 586 259 586 259 583 267 c 0,58,59
 544 382 544 382 544 481 c 131,-1,60
 544 580 544 580 643 696 c 0,61,62
 652 706 652 706 652 715 c 131,-1,63
 652 724 652 724 636 728 c 0,64,65
 508 766 508 766 409 866 c 0,66,67
 398 877 398 877 385 877 c 131,-1,68
 372 877 372 877 362 864 c 0,69,70
 254 722 254 722 254 569 c 3,49,50
EndSplineSet
EndChar
StartChar: h
Encoding: 104 104 72
Width: 978
VWidth: 2065
GlyphClass: 1
Flags: MW
HStem: -20 20<361.5 373.25> 1403 45<474.509 605.991>
VStem: 162 203<197.688 1219.56>
DStem2: 71.5 1366.5 35.5 1337.5 0.587645 -0.809119<2.30924 169.32> 223.021 -359.351 251.338 -394.332 0.78968 0.613519<0.899118 102.15> 385 891 434 872 0.804781 0.593572<-13.6681 74.9181> 460.663 189.338 494 161.67 0.652045 0.75818<0.759884 90.9997> 693 991 601 793 0.700932 -0.713229<0 76.7336>
LayerCount: 2
Fore
SplineSet
35 1349 m 27,0,1
 35 1368 35 1368 56 1368 c 3,2,3
 79 1368 79 1368 159 1245 c 0,4,5
 170 1228 170 1228 180.5 1228 c 131,-1,6
 191 1228 191 1228 200 1243 c 0,7,8
 334 1448 334 1448 568 1448 c 3,9,10
 606 1448 606 1448 606 1425.5 c 131,-1,11
 606 1403 606 1403 568 1403 c 3,12,13
 365 1403 365 1403 365 1149 c 2,14,-1
 365 903 l 2,15,16
 365 886 365 886 371.5 886 c 131,-1,17
 378 886 378 886 385 891 c 2,18,-1
 606 1054 l 2,19,20
 629 1071 629 1071 641.5 1071 c 131,-1,21
 654 1071 654 1071 654 1053 c 27,22,23
 654 1027 654 1027 709 974 c 8,24,25
 910 779 910 779 910 474 c 3,26,27
 910 75 910 75 261 -386 c 0,28,29
 250 -395 250 -395 234 -395 c 131,-1,30
 218 -395 218 -395 218 -374 c 27,31,32
 218 -363 218 -363 231 -352 c 8,33,34
 708 51 708 51 708 362.5 c 131,-1,35
 708 674 708 674 559 837 c 0,36,37
 515 885 515 885 483.5 885 c 155,-1,38
 452 885 452 885 434 872 c 2,39,-1
 381 833 l 10,40,41
 365 821 365 821 365 799 c 2,42,-1
 365 266 l 10,43,44
 365 194 365 194 434 194 c 27,45,46
 460 194 460 194 506 243 c 0,47,48
 519 257 519 257 529 257 c 27,49,50
 552 257 552 257 552 236 c 27,51,52
 552 227 552 227 540 213 c 0,53,54
 436 91 436 91 387 -6 c 0,55,56
 380 -20 380 -20 369 -20 c 131,-1,57
 358 -20 358 -20 345 -6 c 0,58,59
 217 131 217 131 102 145 c 0,60,61
 85 147 85 147 85 159 c 131,-1,62
 85 171 85 171 96 177 c 0,63,64
 162 213 162 213 162 292 c 2,65,-1
 162 1008 l 2,66,67
 162 1206 162 1206 46 1322 c 0,68,69
 35 1333 35 1333 35 1349 c 27,0,1
EndSplineSet
EndChar
StartChar: k
Encoding: 107 107 75
Width: 648
VWidth: 2065
GlyphClass: 1
Flags: MW
HStem: -20 20<361.5 373.25> 849 45<24.5142 95.9338> 849 109<380.071 605> 1079 203<485.794 605> 1403 45<470.068 605.991>
VStem: 162 203<197.688 848.995 1118.01 1220.25> 586 20<849 958 1079 1282 1417 1432>
DStem2: 71.5 1366.5 35.5 1337.5 0.587645 -0.809119<2.30924 169.32> 460.663 189.338 494 161.67 0.652045 0.75818<0.759884 90.9997>
CounterMasks: 1 38
LayerCount: 2
Fore
SplineSet
24 866.5 m 131,-1,1
 24 884 24 884 50 893 c 0,2,3
 161 934 161 934 161 1014 c 3,4,5
 161 1207 161 1207 46 1322 c 0,6,7
 35 1333 35 1333 35 1349 c 27,8,9
 35 1368 35 1368 56 1368 c 3,10,11
 79 1368 79 1368 159 1245 c 0,12,13
 170 1228 170 1228 180.5 1228 c 131,-1,14
 191 1228 191 1228 200 1243 c 0,15,16
 333 1448 333 1448 568 1448 c 3,17,18
 606 1448 606 1448 606 1425.5 c 131,-1,19
 606 1403 606 1403 568 1403 c 27,20,21
 365 1403 365 1403 365 1149 c 3,22,23
 365 1118 365 1118 376.5 1118 c 131,-1,24
 388 1118 388 1118 410 1150 c 0,25,26
 501 1282 501 1282 588 1282 c 27,27,28
 606 1282 606 1282 606 1265 c 26,29,-1
 606 1094 l 2,30,31
 606 1079 606 1079 592 1079 c 131,-1,32
 578 1079 578 1079 567 1080.5 c 128,-1,33
 556 1082 556 1082 542 1082 c 3,34,35
 467 1082 467 1082 419 1045 c 0,36,37
 380 1015 380 1015 380 986.5 c 131,-1,38
 380 958 380 958 406 958 c 2,39,-1
 584 958 l 2,40,41
 606 958 606 958 606 936 c 2,42,-1
 606 871 l 2,43,44
 606 849 606 849 584 849 c 2,45,-1
 387 849 l 2,46,47
 365 849 365 849 365 827 c 2,48,-1
 365 266 l 10,49,50
 365 194 365 194 434 194 c 27,51,52
 460 194 460 194 506 243 c 0,53,54
 519 257 519 257 529 257 c 27,55,56
 552 257 552 257 552 236 c 27,57,58
 552 227 552 227 540 213 c 0,59,60
 436 91 436 91 387 -6 c 0,61,62
 380 -20 380 -20 369 -20 c 131,-1,63
 358 -20 358 -20 345 -6 c 0,64,65
 217 131 217 131 102 145 c 0,66,67
 85 147 85 147 85 159 c 131,-1,68
 85 171 85 171 96 177 c 0,69,70
 162 213 162 213 162 292 c 10,71,-1
 162 827 l 18,72,73
 162 849 162 849 142 849 c 26,74,-1
 56 849 l 2,75,0
 24 849 24 849 24 866.5 c 131,-1,1
EndSplineSet
AlternateSubs2: "Access All Alternates" k.modern
Substitution2: "Modern variants" k.modern
Substitution2: "Modern k" k.modern
EndChar
StartChar: l
Encoding: 108 108 76
Width: 568
VWidth: 2065
GlyphClass: 1
Flags: MW
HStem: -20 20<361.5 373.25> 1403 45<474.509 605.991>
VStem: 162 203<197.688 1219.56>
DStem2: 71.5 1366.5 35.5 1337.5 0.587645 -0.809119<2.30924 169.32> 460.663 189.338 494 161.67 0.652045 0.75818<0.759884 90.9997>
LayerCount: 2
Back
SplineSet
135.562 1202.31 m 25,0,-1
 37.5693 1337.56 l 25,1,-1
 74.8682 1364.58 l 25,2,-1
 172.861 1229.33 l 25,3,-1
 135.562 1202.31 l 25,0,-1
EndSplineSet
Fore
SplineSet
35 1349 m 27,0,1
 35 1368 35 1368 56 1368 c 3,2,3
 79 1368 79 1368 159 1245 c 0,4,5
 170 1228 170 1228 180.5 1228 c 131,-1,6
 191 1228 191 1228 200 1243 c 0,7,8
 334 1448 334 1448 568 1448 c 3,9,10
 606 1448 606 1448 606 1425.5 c 131,-1,11
 606 1403 606 1403 568 1403 c 3,12,13
 365 1403 365 1403 365 1149 c 2,14,-1
 365 266 l 10,15,16
 365 194 365 194 434 194 c 27,17,18
 460 194 460 194 506 243 c 0,19,20
 519 257 519 257 529 257 c 27,21,22
 552 257 552 257 552 236 c 27,23,24
 552 227 552 227 540 213 c 0,25,26
 436 91 436 91 387 -6 c 0,27,28
 380 -20 380 -20 369 -20 c 131,-1,29
 358 -20 358 -20 345 -6 c 0,30,31
 217 131 217 131 102 145 c 0,32,33
 85 147 85 147 85 159 c 131,-1,34
 85 171 85 171 96 177 c 0,35,36
 162 213 162 213 162 292 c 2,37,-1
 162 1008 l 2,38,39
 162 1193 162 1193 46 1322 c 0,40,41
 35 1333 35 1333 35 1349 c 27,0,1
EndSplineSet
EndChar
StartChar: m
Encoding: 109 109 77
Width: 1369
VWidth: 2065
GlyphClass: 1
Flags: MW
HStem: -20 21G<257.916 268.416 678.916 689.416 1186.92 1201.42> 1051 20G<166.916 181.416 585.666 597.666 1005.17 1012.17>
VStem: 162 203<206.869 849.5> 583 203<211.074 849.172> 1004 203<195.546 838.761>
DStem2: 45.666 881 82.666 856 0.550313 0.834958<-52.4126 -0.512362> 370.666 875 372.666 815 0.730567 0.682841<-8.48391 96.3148> 791.666 875 793.666 815 0.73033 0.683095<-8.48306 89.5717> 1033 1047 801 979 0.751626 -0.65959<0 131.243> 1285.67 195 1322.67 170 0.550313 0.834958<0 51.9002>
CounterMasks: 1 38
LayerCount: 2
Fore
SplineSet
15 829 m 3,0,1
 15 838 15 838 31 860 c 0,2,3
 108 966 108 966 151 1053 c 0,4,5
 160 1071 160 1071 174.5 1071 c 131,-1,6
 189 1071 189 1071 197 1054 c 128,-1,7
 205 1037 205 1037 229 1025 c 0,8,9
 315 982 315 982 355 881 c 0,10,11
 359 871 359 871 363 871 c 131,-1,12
 367 871 367 871 371 875 c 2,13,-1
 570 1061 l 2,14,15
 581 1071 581 1071 592.5 1071 c 131,-1,16
 604 1071 604 1071 616 1064 c 0,17,18
 728 1002 728 1002 776 881 c 0,19,20
 780 871 780 871 784 871 c 131,-1,21
 788 871 788 871 792 875 c 2,22,-1
 993 1063 l 2,23,24
 1002 1071 1002 1071 1009 1071 c 131,-1,25
 1016 1071 1016 1071 1022 1063 c 0,26,27
 1102 956 1102 956 1248 896 c 0,28,29
 1275 885 1275 885 1275 874 c 131,-1,30
 1275 863 1275 863 1252 852 c 0,31,32
 1207 829 1207 829 1207 770 c 2,33,-1
 1207 263 l 2,34,35
 1207 194 1207 194 1264 194 c 3,36,37
 1284 194 1284 194 1301 218 c 128,-1,38
 1318 242 1318 242 1336 242 c 131,-1,39
 1354 242 1354 242 1354 222 c 3,40,41
 1354 213 1354 213 1338 191 c 0,42,43
 1262 85 1262 85 1218 -2 c 0,44,45
 1209 -20 1209 -20 1194.5 -20 c 131,-1,46
 1180 -20 1180 -20 1172 -3 c 128,-1,47
 1164 14 1164 14 1140 26 c 0,48,49
 1004 94 1004 94 1004 245 c 10,50,-1
 1004 793 l 2,51,52
 1004 807 1004 807 994 814 c 16,53,54
 932 856 932 856 900 896 c 0,55,56
 896 901 896 901 890.5 901 c 131,-1,57
 885 901 885 901 880 896 c 2,58,-1
 794 815 l 2,59,60
 786 807 786 807 786 795 c 10,61,-1
 786 307 l 18,62,63
 786 237 786 237 846 194 c 16,64,65
 857 186 857 186 857 177.5 c 131,-1,66
 857 169 857 169 844 160 c 0,67,68
 764 105 764 105 705 -2 c 0,69,70
 695 -20 695 -20 684.5 -20 c 131,-1,71
 674 -20 674 -20 664 -2 c 0,72,73
 605 105 605 105 525 160 c 0,74,75
 512 169 512 169 512 176.5 c 131,-1,76
 512 184 512 184 523 194 c 8,77,78
 583 253 583 253 583 307 c 10,79,-1
 583 741 l 18,80,81
 583 840 583 840 520 885 c 0,82,83
 500 899 500 899 481 899 c 155,-1,84
 462 899 462 899 446 884 c 2,85,-1
 373 815 l 2,86,87
 365 807 365 807 365 795 c 10,88,-1
 365 307 l 18,89,90
 365 238 365 238 425 194 c 16,91,92
 436 186 436 186 436 177.5 c 131,-1,93
 436 169 436 169 423 160 c 0,94,95
 343 105 343 105 284 -2 c 0,96,97
 274 -20 274 -20 263.5 -20 c 131,-1,98
 253 -20 253 -20 243 -2 c 0,99,100
 184 105 184 105 104 160 c 0,101,102
 91 169 91 169 91 177.5 c 131,-1,103
 91 186 91 186 102 194 c 8,104,105
 162 238 162 238 162 307 c 10,106,-1
 162 788 l 18,107,108
 162 857 162 857 104 857 c 3,109,110
 84 857 84 857 67 833 c 128,-1,111
 50 809 50 809 32.5 809 c 131,-1,112
 15 809 15 809 15 829 c 3,0,1
EndSplineSet
EndChar
StartChar: n
Encoding: 110 110 78
Width: 965
VWidth: 2065
GlyphClass: 1
Flags: MW
HStem: -20 20<259.651 267.651 785.32 796.32> 1051 20<169 180 599.349 610.349>
VStem: 162 203<206.628 833.938> 600 203<195.546 838.865>
DStem2: 15 837 53 812 0.563337 0.826227<0.751116 53.2541> 589 1063 382 808 0.731172 0.682194<-298.926 -185.21> 630.5 1046.5 594.5 807.5 0.752802 -0.658247<0 130.22> 882 195 920 170 0.563337 0.826227<0.751116 53.2541>
LayerCount: 2
Fore
SplineSet
15 829 m 3,0,1
 15 838 15 838 31 860 c 0,2,3
 108 966 108 966 151 1053 c 0,4,5
 160 1071 160 1071 174.5 1071 c 131,-1,6
 189 1071 189 1071 197 1054 c 128,-1,7
 205 1037 205 1037 229 1025 c 0,8,9
 329 975 329 975 357 876 c 0,10,11
 362 862 362 862 368 862 c 131,-1,12
 374 862 374 862 380 868 c 2,13,-1
 589 1063 l 18,14,15
 598 1071 598 1071 605 1071 c 131,-1,16
 612 1071 612 1071 618 1063 c 0,17,18
 718 948 718 948 844 896 c 0,19,20
 871 885 871 885 871 874 c 131,-1,21
 871 863 871 863 848 852 c 0,22,23
 803 829 803 829 803 770 c 2,24,-1
 803 263 l 2,25,26
 803 194 803 194 860 194 c 3,27,28
 880 194 880 194 897 218 c 128,-1,29
 914 242 914 242 932 242 c 131,-1,30
 950 242 950 242 950 222 c 3,31,32
 950 213 950 213 934 191 c 0,33,34
 858 85 858 85 814 -2 c 0,35,36
 805 -20 805 -20 790.5 -20 c 131,-1,37
 776 -20 776 -20 768 -3 c 128,-1,38
 760 14 760 14 736 26 c 0,39,40
 600 94 600 94 600 245 c 10,41,-1
 600 793 l 2,42,43
 600 807 600 807 590 814 c 16,44,45
 528 856 528 856 496 896 c 0,46,47
 492 901 492 901 486.5 901 c 131,-1,48
 481 901 481 901 476 896 c 2,49,-1
 382 808 l 10,50,51
 365 792 365 792 365 771 c 10,52,-1
 365 307 l 18,53,54
 365 237 365 237 425 194 c 16,55,56
 436 186 436 186 436 177.5 c 131,-1,57
 436 169 436 169 423 160 c 0,58,59
 341 101 341 101 284 -2 c 0,60,61
 274 -20 274 -20 263.5 -20 c 131,-1,62
 253 -20 253 -20 243 -2 c 0,63,64
 184 105 184 105 104 160 c 0,65,66
 91 169 91 169 91 177.5 c 131,-1,67
 91 186 91 186 102 194 c 8,68,69
 162 236 162 236 162 307 c 10,70,-1
 162 788 l 18,71,72
 162 857 162 857 104 857 c 3,73,74
 84 857 84 857 67 833 c 128,-1,75
 50 809 50 809 32.5 809 c 131,-1,76
 15 809 15 809 15 829 c 3,0,1
EndSplineSet
EndChar
StartChar: o
Encoding: 111 111 79
Width: 939
VWidth: 2065
GlyphClass: 1
Flags: MW
HStem: -20 21G<444.823 456.719> 1051 20G<652.859 662.578>
VStem: 162 203<270.75 920.849>
DStem2: 362 301 242 136.5 0.810562 -0.585653<0 223.608> 352.352 952.657 367.008 910.004 0.965442 0.260617<3.03357 125.311> 579 181.5 605.5 146.5 0.815651 0.578544<1.36574 52.7186> 708.5 936.5 579.5 762.5 0.541948 -0.840412<0 76.3204>
LayerCount: 2
Fore
SplineSet
91 213.5 m 131,-1,1
 91 224 91 224 116 238 c 0,2,3
 162 264 162 264 162 317 c 2,4,-1
 162 904 l 2,5,6
 162 922 162 922 178 924 c 0,7,8
 476 961 476 961 635 1063 c 0,9,10
 647 1071 647 1071 661 1071 c 131,-1,11
 675 1071 675 1071 678 1051 c 0,12,13
 693 942 693 942 751 876 c 0,14,15
 871 741 871 741 871 535 c 27,16,17
 871 331 871 331 636 168 c 0,18,19
 529 94 529 94 474 -1 c 0,20,21
 463 -20 463 -20 451 -20 c 131,-1,22
 439 -20 439 -20 424 -3 c 0,23,24
 335 98 335 98 112 194 c 0,25,0
 91 203 91 203 91 213.5 c 131,-1,1
365 307 m 2,26,27
 365 295 365 295 377 289 c 0,28,29
 431 261 431 261 518 193 c 0,30,31
 535 180 535 180 556.5 180 c 131,-1,32
 578 180 578 180 606 201 c 0,33,34
 695 266 695 266 695 440 c 131,-1,35
 695 614 695 614 585 760 c 16,36,37
 522 846 522 846 504 910 c 0,38,39
 496 939 496 939 482 939 c 131,-1,40
 468 939 468 939 455 934 c 0,41,42
 430 925 430 925 384 915 c 0,43,44
 365 911 365 911 365 892 c 2,45,-1
 365 307 l 2,26,27
EndSplineSet
Substitution2: "Superscript forms" ordmasculine
EndChar
StartChar: p
Encoding: 112 112 80
Width: 975
VWidth: 2065
GlyphClass: 1
Flags: MW
HStem: -407 21G<297.75 309.25> -20 20<486.25 498.25> 1051 20G<676.5 689>
VStem: 203 203<320.832 853.781>
DStem2: 8 100.672 49.001 82.6719 0.396254 0.918141<0 55.2822> 255 1071 178 875 0.805278 -0.592897<0 54.2014> 194.5 1207.5 225 1174.5 0.725953 0.687745<0 51.791> 564 174 396 36 0.859046 -0.511898<-73.6779 0> 584 851.667 639.875 792.625 0.729186 0.684315<0.339928 204.092> 647 1054 422 833 0.805056 0.593199<-296.88 -201.587>
LayerCount: 2
Fore
SplineSet
13 100 m 27,0,1
 13 109 13 109 18 121 c 0,2,3
 92 300 92 300 186 333 c 0,4,5
 203 339 203 339 203 355 c 2,6,-1
 203 811 l 2,7,8
 203 860 203 860 165 885 c 0,9,10
 83 938 83 938 83 1011 c 3,11,12
 83 1111 83 1111 219 1231 c 0,13,14
 236 1246 236 1246 247 1246 c 27,15,16
 265 1246 265 1246 265 1226 c 27,17,18
 265 1214 265 1214 252 1201 c 0,19,20
 217 1166 217 1166 217 1130 c 131,-1,21
 217 1094 217 1094 275 1056 c 0,22,23
 360 1000 360 1000 395 896 c 0,24,25
 400 881 400 881 406 881 c 155,-1,26
 412 881 412 881 419 886 c 2,27,-1
 647 1054 l 2,28,29
 670 1071 670 1071 682.5 1071 c 131,-1,30
 695 1071 695 1071 695 1053 c 27,31,32
 695 1025 695 1025 750 974 c 8,33,34
 907 827 907 827 907 586 c 131,-1,35
 907 345 907 345 703 201 c 0,36,37
 592 122 592 122 512 -7 c 0,38,39
 504 -20 504 -20 493 -20 c 131,-1,40
 482 -20 482 -20 468 -10 c 0,41,42
 437 13 437 13 409 31 c 0,43,44
 404 33 404 33 400 33.5 c 131,-1,45
 396 34 396 34 395 25 c 0,46,47
 375 -206 375 -206 321 -390 c 0,48,49
 316 -407 316 -407 303.5 -407 c 131,-1,50
 291 -407 291 -407 286 -390 c 0,51,52
 219 -166 219 -166 205 112 c 0,53,54
 204 133 204 133 183 140.5 c 128,-1,55
 162 148 162 148 132 148 c 3,56,57
 79 148 79 148 58 102 c 0,58,59
 48 79 48 79 33 79 c 27,60,61
 13 79 13 79 13 100 c 27,0,1
406 290 m 10,62,63
 406 265 406 265 428 254 c 0,64,65
 484 226 484 226 559 177 c 0,66,67
 571 169 571 169 585 169 c 131,-1,68
 599 169 599 169 613 187 c 0,69,70
 721 327 721 327 721 482 c 3,71,72
 721 705 721 705 600 837 c 0,73,74
 556 885 556 885 524.5 885 c 131,-1,75
 493 885 493 885 475 872 c 2,76,-1
 422 833 l 10,77,78
 406 821 406 821 406 799 c 2,79,-1
 406 290 l 10,62,63
EndSplineSet
EndChar
StartChar: q
Encoding: 113 113 81
Width: 935
VWidth: 2065
GlyphClass: 1
Flags: MW
HStem: -407 20<666 676> -20 20<288 297> 1051 20<478.5 492>
VStem: 570 203<-217.269 170.998 199.25 779.556>
DStem2: 335.25 258.5 242.25 59.5 0.684532 -0.728983<0 81.406> 509 1046 386 884 0.80987 -0.586609<0 223.848> 500 180 328 -3 0.805406 0.592723<-45.4472 54.4933>
LayerCount: 2
Fore
SplineSet
68 464 m 131,-1,1
 68 704 68 704 272 850 c 0,2,3
 395 938 395 938 461 1055 c 0,4,5
 470 1071 470 1071 483.5 1071 c 131,-1,6
 497 1071 497 1071 511 1054 c 0,7,8
 594 955 594 955 823 857 c 0,9,10
 844 848 844 848 844 837.5 c 131,-1,11
 844 827 844 827 819 813 c 0,12,13
 773 787 773 787 773 734 c 2,14,-1
 773 245 l 2,15,16
 773 -87 773 -87 689 -390 c 0,17,18
 684 -407 684 -407 671 -407 c 131,-1,19
 658 -407 658 -407 654 -390 c 0,20,21
 579 -119 579 -119 571 163 c 0,22,23
 571 171 571 171 567.5 171 c 131,-1,24
 564 171 564 171 559 167 c 10,25,-1
 328 -3 l 18,26,27
 304 -20 304 -20 292 -20 c 131,-1,28
 280 -20 280 -20 280 -2 c 27,29,30
 280 26 280 26 225 77 c 8,31,0
 68 224 68 224 68 464 c 131,-1,1
254 569 m 3,32,33
 254 346 254 346 375 214 c 0,34,35
 419 166 419 166 450 166 c 131,-1,36
 481 166 481 166 500 180 c 10,37,-1
 559 224 l 18,38,39
 570 232 570 232 570 245 c 2,40,-1
 570 744 l 2,41,42
 570 756 570 756 558 762 c 0,43,44
 493 795 493 795 409 866 c 0,45,46
 396 877 396 877 384 877 c 131,-1,47
 372 877 372 877 362 864 c 0,48,49
 254 722 254 722 254 569 c 3,32,33
EndSplineSet
EndChar
StartChar: r
Encoding: 114 114 82
Width: 714
VWidth: 2065
GlyphClass: 1
Flags: MW
HStem: -20 21G<363.5 374.5> 1051 20<169 180 551 561>
VStem: 162 203<197.688 847.578>
DStem2: 16.3643 837.818 54 812 0.563744 0.82595<0 52.3319> 356.681 852 382 816 0.657369 0.753569<0 277.347> 666 877 445 861 0.465414 -0.885093<-102.439 0> 506 243 540 213 0.661031 0.750359<-81.4897 80.1871> 522.446 738 549.074 703.5 0.65737 0.753568<0 179.811>
LayerCount: 2
Fore
SplineSet
15 829 m 3,0,1
 15 838 15 838 31 860 c 0,2,3
 107 966 107 966 151 1053 c 0,4,5
 160 1071 160 1071 174.5 1071 c 131,-1,6
 189 1071 189 1071 197 1054 c 128,-1,7
 205 1037 205 1037 229 1025 c 0,8,9
 329 974 329 974 356 877 c 0,10,11
 359 866 359 866 364 866 c 131,-1,12
 369 866 369 866 375 873 c 2,13,-1
 539 1061 l 2,14,15
 548 1071 548 1071 556 1071 c 131,-1,16
 564 1071 564 1071 571 1058 c 2,17,-1
 666 877 l 2,18,19
 672 866 672 866 672 855 c 131,-1,20
 672 844 672 844 663 834 c 10,21,-1
 555 710 l 18,22,23
 546 700 546 700 538 700 c 131,-1,24
 530 700 530 700 523 713 c 2,25,-1
 445 861 l 2,26,27
 440 870 440 870 434.5 870 c 131,-1,28
 429 870 429 870 423 863 c 2,29,-1
 382 816 l 2,30,31
 365 797 365 797 365 773 c 18,32,-1
 365 266 l 2,33,34
 365 194 365 194 434 194 c 27,35,36
 463 194 463 194 506 243 c 2,37,-1
 543 285 l 2,38,39
 555 299 555 299 566 299 c 3,40,41
 589 299 589 299 589 277 c 3,42,43
 589 269 589 269 577 255 c 10,44,-1
 540 213 l 18,45,46
 438 98 438 98 387 -6 c 0,47,48
 380 -20 380 -20 369 -20 c 131,-1,49
 358 -20 358 -20 345 -6 c 0,50,51
 217 131 217 131 102 145 c 0,52,53
 85 147 85 147 85 159 c 131,-1,54
 85 171 85 171 96 177 c 0,55,56
 162 213 162 213 162 292 c 2,57,-1
 162 788 l 2,58,59
 162 857 162 857 105 857 c 3,60,61
 85 857 85 857 68 833 c 128,-1,62
 51 809 51 809 33 809 c 131,-1,63
 15 809 15 809 15 829 c 3,0,1
EndSplineSet
Substitution2: "Round r and long s" r.round
AlternateSubs2: "Access All Alternates" r.round
EndChar
StartChar: s
Encoding: 115 115 83
Width: 871
VWidth: 2065
GlyphClass: 1
Flags: MW
HStem: -20 20<451 461> 1051 20<410 420> 1233 45<544 590>
DStem2: 442 568 312 343 0.64077 0.767733<-285.18 -272.569 -48.9513 -24.636 198.713 211.221> 169 822 206 798 0.640184 0.768221<5.24951 61.8418> 319 568 263 372 0.907255 -0.420582<0 31.6277> 398 269.5 342 73.5 0.907255 -0.420582<0 31.6277> 418.681 1248.65 434.333 1206.33 0.95502 0.296542<2.40058 56.1943> 529 978 473 782 0.907255 -0.420582<0 31.6277> 608 679 552 483 0.907255 -0.420582<0 31.6277> 625 205 663 181 0.640184 0.768221<5.8897 62.482>
LayerCount: 2
Fore
SplineSet
68 577.5 m 131,-1,1
 68 709 68 709 196 856 c 128,-1,2
 324 1003 324 1003 380 1053 c 0,3,4
 400 1071 400 1071 415 1071 c 131,-1,5
 430 1071 430 1071 446 1046 c 16,6,7
 470 1009 470 1009 542 972 c 136,-1,8
 614 935 614 935 669 935 c 155,-1,9
 724 935 724 935 755.5 972 c 128,-1,10
 787 1009 787 1009 787 1042 c 3,11,12
 787 1120 787 1120 719 1176.5 c 152,-1,13
 651 1233 651 1233 568 1233 c 3,14,15
 510 1233 510 1233 458 1214 c 0,16,17
 448 1210 448 1210 436 1210 c 3,18,19
 415 1210 415 1210 415 1229 c 27,20,21
 415 1245 415 1245 439 1255 c 8,22,23
 501 1278 501 1278 568 1278 c 3,24,25
 673 1278 673 1278 762.5 1200 c 128,-1,26
 852 1122 852 1122 852 1005 c 131,-1,27
 852 888 852 888 710 793 c 0,28,29
 659 759 659 759 635 730 c 2,30,-1
 616 707 l 2,31,32
 608 697 608 697 608 688 c 155,-1,33
 608 679 608 679 624 672 c 0,34,35
 803 594 803 594 803 467.5 c 131,-1,36
 803 341 803 341 675 194.5 c 128,-1,37
 547 48 547 48 491 -2 c 0,38,39
 471 -20 471 -20 455.5 -20 c 131,-1,40
 440 -20 440 -20 424 5 c 16,41,42
 399 46 399 46 331 78 c 0,43,44
 223 130 223 130 168 130 c 3,45,46
 153 130 153 130 141 125.5 c 128,-1,47
 129 121 129 121 117.5 121 c 131,-1,48
 106 121 106 121 98 127 c 128,-1,49
 90 133 90 133 90 140 c 131,-1,50
 90 147 90 147 98 157 c 10,51,-1
 254 344 l 18,52,53
 262 354 262 354 262 363.5 c 155,-1,54
 262 373 262 373 246 379 c 0,55,0
 68 446 68 446 68 577.5 c 131,-1,1
188 725 m 3,56,57
 188 626 188 626 350 552 c 0,58,59
 372 542 372 542 396 542 c 131,-1,60
 420 542 420 542 442 568 c 10,61,-1
 558 708 l 18,62,63
 572 723 572 723 572 735 c 155,-1,64
 572 747 572 747 550 754 c 0,65,66
 428 789 428 789 342 858 c 0,67,68
 322 874 322 874 302 874 c 3,69,70
 269 874 269 874 228.5 825 c 128,-1,71
 188 776 188 776 188 725 c 3,56,57
299 315.5 m 131,-1,73
 299 303 299 303 321 297 c 0,74,75
 443 262 443 262 528 193 c 0,76,77
 548 177 548 177 568 177 c 3,78,79
 601 177 601 177 642 226 c 128,-1,80
 683 275 683 275 683 326 c 3,81,82
 683 421 683 421 521 499 c 0,83,84
 499 509 499 509 475 509 c 131,-1,85
 451 509 451 509 429 483 c 10,86,-1
 312 343 l 18,87,72
 299 328 299 328 299 315.5 c 131,-1,73
EndSplineSet
Substitution2: "Round r and long s" s.long
Substitution2: "s to s.noswash" s.noswash
AlternateSubs2: "Access All Alternates" s.long s.noswash
EndChar
StartChar: t
Encoding: 116 116 84
Width: 612
VWidth: 2065
GlyphClass: 1
Flags: MW
HStem: -20 20<361.5 373.25> 849 109<368.094 570>
VStem: 162 203<197.688 848.995>
DStem2: 428.643 1238.3 463.642 1209.98 0.588922 0.80819<0 104.17> 460.663 189.338 494 161.67 0.652045 0.75818<0.759884 90.9997>
LayerCount: 2
Fore
SplineSet
27 862.5 m 131,-1,1
 27 876 27 876 51 893 c 0,2,3
 319 1083 319 1083 472 1298 c 0,4,5
 489 1322 489 1322 504 1322 c 27,6,7
 523 1322 523 1322 523 1302 c 27,8,9
 523 1291 523 1291 508 1271 c 0,10,11
 368 1065 368 1065 368 972 c 3,12,13
 368 958 368 958 383 958 c 2,14,-1
 548 958 l 2,15,16
 570 958 570 958 570 936 c 2,17,-1
 570 871 l 2,18,19
 570 849 570 849 548 849 c 2,20,-1
 387 849 l 2,21,22
 365 849 365 849 365 827 c 2,23,-1
 365 266 l 10,24,25
 365 194 365 194 434 194 c 27,26,27
 460 194 460 194 506 243 c 0,28,29
 519 257 519 257 529 257 c 27,30,31
 552 257 552 257 552 236 c 27,32,33
 552 227 552 227 540 213 c 0,34,35
 436 91 436 91 387 -6 c 0,36,37
 380 -20 380 -20 369 -20 c 131,-1,38
 358 -20 358 -20 345 -6 c 0,39,40
 217 131 217 131 102 145 c 0,41,42
 85 147 85 147 85 159 c 131,-1,43
 85 171 85 171 96 177 c 0,44,45
 162 213 162 213 162 292 c 2,46,-1
 162 827 l 18,47,48
 162 849 162 849 142 849 c 26,49,-1
 53 849 l 2,50,0
 27 849 27 849 27 862.5 c 131,-1,1
EndSplineSet
EndChar
StartChar: v
Encoding: 118 118 86
Width: 949
VWidth: 2065
GlyphClass: 1
Flags: MW
HStem: -20 21G<456.5 471.5> 1051 20G<650.25 662.75>
DStem2: 219.5 962.5 -31.9863 946.91 0.64346 -0.76548<0 160.911> 213.667 1207.67 244.459 1174.71 0.726122 0.687566<0 51.5708> 341 848 365 809 0.805489 0.59261<-16.2413 148.414> 345 319 360 75 0.862483 -0.506085<0 136.422> 716 983 624 785 0.700932 -0.713229<0 76.7336>
LayerCount: 2
Back
SplineSet
179.235 1002.98 m 25,0,-1
 324.113 845.833 l 25,1,-1
 176.127 707.741 l 25,2,-1
 31.249 864.891 l 25,3,-1
 179.235 1002.98 l 25,0,-1
EndSplineSet
Fore
SplineSet
39 936 m 3,0,1
 39 1072 39 1072 236 1228 c 0,2,3
 255 1243 255 1243 264 1243 c 27,4,5
 282 1243 282 1243 282 1223 c 27,6,7
 282 1209 282 1209 269 1198 c 0,8,9
 188 1130 188 1130 188 1061 c 131,-1,10
 188 992 188 992 253 923 c 0,11,12
 285 889 285 889 310 853 c 0,13,14
 317 842 317 842 325 842 c 131,-1,15
 333 842 333 842 341 848 c 2,16,-1
 621 1054 l 2,17,18
 644 1071 644 1071 656.5 1071 c 131,-1,19
 669 1071 669 1071 669 1053 c 27,20,21
 669 1025 669 1025 724 974 c 8,22,23
 881 827 881 827 881 587 c 131,-1,24
 881 347 881 347 677 201 c 0,25,26
 554 113 554 113 488 -4 c 0,27,28
 479 -20 479 -20 464 -20 c 131,-1,29
 449 -20 449 -20 438 -3 c 0,30,31
 371 98 371 98 117 196 c 0,32,33
 91 206 91 206 91 216.5 c 131,-1,34
 91 227 91 227 111 243 c 0,35,36
 214 326 214 326 214 465 c 27,37,38
 214 666 214 666 105 785 c 0,39,40
 39 857 39 857 39 936 c 3,0,1
297 336 m 131,-1,42
 297 327 297 327 313 323 c 0,43,44
 433 293 433 293 540 185 c 0,45,46
 551 174 551 174 564 174 c 131,-1,47
 577 174 577 174 587 187 c 0,48,49
 695 329 695 329 695 482 c 3,50,51
 695 705 695 705 574 837 c 0,52,53
 530 885 530 885 499 885 c 131,-1,54
 468 885 468 885 449 871 c 2,55,-1
 365 809 l 2,56,57
 353 800 353 800 353 791 c 131,-1,58
 353 782 353 782 357 774 c 0,59,60
 405 678 405 678 405 572 c 131,-1,61
 405 466 405 466 306 355 c 0,62,41
 297 345 297 345 297 336 c 131,-1,42
EndSplineSet
AlternateSubs2: "Access All Alternates" v.hist
Substitution2: "Historical variants" v.hist
EndChar
StartChar: w
Encoding: 119 119 87
Width: 1383
VWidth: 2065
GlyphClass: 1
Flags: MW
HStem: -20 21G<258.25 268.75 892.75 906.25> 1051 20G<614 626 1084.25 1096.75>
VStem: 162 203<206.869 823.625> 610 203<291.515 851.602>
DStem2: 215 1071 138 876 0.809942 -0.58651<0 52.0039> 154 1207 186 1175 0.725953 0.687745<1.22266 52.345> 381 859 384 800 0.73038 0.683041<-13.4551 119.644> 882 277 808 69 0.759257 -0.650791<0 79.1796> 821 882 825 828 0.805748 0.592259<-10.6904 90.4351> 1141 991 1049 793 0.700932 -0.713229<0 76.7336>
LayerCount: 2
Fore
SplineSet
42 1011 m 3,0,1
 42 1111 42 1111 178 1231 c 0,2,3
 195 1246 195 1246 206 1246 c 27,4,5
 224 1246 224 1246 224 1226 c 27,6,7
 224 1214 224 1214 211 1201 c 0,8,9
 176 1166 176 1166 176 1130.5 c 131,-1,10
 176 1095 176 1095 234 1056 c 0,11,12
 339 984 339 984 359 868 c 0,13,14
 362 853 362 853 368 853 c 131,-1,15
 374 853 374 853 381 859 c 2,16,-1
 597 1061 l 2,17,18
 608 1071 608 1071 620 1071 c 131,-1,19
 632 1071 632 1071 643 1064 c 0,20,21
 756 992 756 992 800 889 c 0,22,23
 805 878 805 878 810.5 878 c 131,-1,24
 816 878 816 878 821 882 c 2,25,-1
 1055 1054 l 18,26,27
 1078 1071 1078 1071 1090.5 1071 c 131,-1,28
 1103 1071 1103 1071 1103 1053 c 27,29,30
 1103 1025 1103 1025 1158 974 c 8,31,32
 1315 827 1315 827 1315 587 c 131,-1,33
 1315 347 1315 347 1111 201 c 0,34,35
 988 113 988 113 922 -4 c 0,36,37
 913 -20 913 -20 899.5 -20 c 131,-1,38
 886 -20 886 -20 872 -3 c 0,39,40
 714 187 714 187 567 199 c 0,41,42
 543 201 543 201 543 215.5 c 131,-1,43
 543 230 543 230 566 244 c 0,44,45
 610 270 610 270 610 317 c 10,46,-1
 610 741 l 18,47,48
 610 840 610 840 547 885 c 0,49,50
 527 899 527 899 508 899 c 155,-1,51
 489 899 489 899 473 884 c 2,52,-1
 384 800 l 10,53,54
 365 782 365 782 365 756 c 2,55,-1
 365 307 l 2,56,57
 365 238 365 238 425 194 c 16,58,59
 436 186 436 186 436 177.5 c 131,-1,60
 436 169 436 169 423 160 c 0,61,62
 343 105 343 105 284 -2 c 0,63,64
 274 -20 274 -20 263.5 -20 c 131,-1,65
 253 -20 253 -20 243 -2 c 0,66,67
 184 105 184 105 104 160 c 0,68,69
 91 169 91 169 91 177.5 c 131,-1,70
 91 186 91 186 102 194 c 8,71,72
 162 238 162 238 162 307 c 10,73,-1
 162 811 l 2,74,75
 162 860 162 860 124 885 c 0,76,77
 42 938 42 938 42 1011 c 3,0,1
813 333 m 2,78,79
 813 314 813 314 834 304 c 0,80,81
 916 262 916 262 975 186 c 0,82,83
 987 171 987 171 998 171 c 155,-1,84
 1009 171 1009 171 1021 187 c 0,85,86
 1129 331 1129 331 1129 482 c 3,87,88
 1129 705 1129 705 1008 837 c 0,89,90
 964 885 964 885 932.5 885 c 131,-1,91
 901 885 901 885 884 872 c 10,92,-1
 825 828 l 26,93,94
 813 819 813 819 813 806 c 2,95,-1
 813 333 l 2,78,79
EndSplineSet
EndChar
StartChar: x
Encoding: 120 120 88
Width: 714
VWidth: 2065
GlyphClass: 1
Flags: MW
HStem: -386 21<358 422> -20 21<363.5 374.5> 1051 20<169 180 551 561>
VStem: 162 203<197.688 847.578>
DStem2: 1.84863 -119.437 9.9238 -149.033 0.969378 0.245574<0.559732 45.2026> 16.3643 837.818 54 812 0.563744 0.82595<0 52.3319> 356.681 852 382 816 0.657369 0.753569<0 277.347> 666 877 445 861 0.465414 -0.885093<-102.439 0> 506 243 540 213 0.661031 0.750359<-81.4897 80.1871> 522.446 738 549.074 703.5 0.65737 0.753568<0 179.811>
LayerCount: 2
Fore
SplineSet
-6 -36 m 3,0,1
 -6 55 -6 55 27 107 c 24,2,3
 51 146 51 146 97 175 c 16,4,5
 162 217 162 217 162 292 c 2,6,-1
 162 788 l 2,7,8
 162 857 162 857 105 857 c 3,9,10
 85 857 85 857 68 833 c 128,-1,11
 51 809 51 809 33 809 c 131,-1,12
 15 809 15 809 15 829 c 3,13,14
 15 838 15 838 31 860 c 0,15,16
 107 966 107 966 151 1053 c 0,17,18
 160 1071 160 1071 174.5 1071 c 131,-1,19
 189 1071 189 1071 197 1054 c 128,-1,20
 205 1037 205 1037 229 1025 c 0,21,22
 329 974 329 974 356 877 c 0,23,24
 359 866 359 866 364 866 c 131,-1,25
 369 866 369 866 375 873 c 2,26,-1
 539 1061 l 2,27,28
 548 1071 548 1071 556 1071 c 131,-1,29
 564 1071 564 1071 571 1058 c 2,30,-1
 666 877 l 2,31,32
 672 866 672 866 672 855 c 131,-1,33
 672 844 672 844 663 834 c 10,34,-1
 555 710 l 18,35,36
 546 700 546 700 538 700 c 131,-1,37
 530 700 530 700 523 713 c 2,38,-1
 445 861 l 2,39,40
 440 870 440 870 434.5 870 c 131,-1,41
 429 870 429 870 423 863 c 2,42,-1
 382 816 l 2,43,44
 365 797 365 797 365 773 c 18,45,-1
 365 266 l 2,46,47
 365 194 365 194 434 194 c 27,48,49
 463 194 463 194 506 243 c 2,50,-1
 543 285 l 2,51,52
 555 299 555 299 566 299 c 0,53,54
 589 299 589 299 589 277 c 27,55,56
 589 269 589 269 577 255 c 10,57,-1
 540 213 l 18,58,59
 437 96 437 96 387 -6 c 0,60,61
 380 -20 380 -20 368.5 -20 c 131,-1,62
 357 -20 357 -20 345 -6 c 0,63,64
 270 81 270 81 200 81 c 131,-1,65
 130 81 130 81 86 37 c 152,-1,66
 42 -7 42 -7 42 -77 c 155,-1,67
 42 -147 42 -147 100.5 -197.5 c 152,-1,68
 159 -248 159 -248 239.5 -248 c 131,-1,69
 320 -248 320 -248 385 -212.5 c 152,-1,70
 450 -177 450 -177 485.5 -177 c 131,-1,71
 521 -177 521 -177 546 -204 c 152,-1,72
 571 -231 571 -231 571 -274 c 131,-1,73
 571 -317 571 -317 523 -351.5 c 152,-1,74
 475 -386 475 -386 398 -386 c 3,75,76
 182 -386 182 -386 63 -245 c 24,77,78
 -6 -163 -6 -163 -6 -36 c 3,0,1
EndSplineSet
AlternateSubs2: "Access All Alternates" x.modern x.modern2
Substitution2: "Modern variants" x.modern
AlternateSubs2: "Modern x" x.modern x.modern2
EndChar
StartChar: y
Encoding: 121 121 89
Width: 978
VWidth: 2065
GlyphClass: 1
Flags: MW
HStem: -395 21G<226 242> -20 21G<363.5 374.5> 1051 20G<635.25 647.75>
VStem: 162 203<197.688 854.328>
DStem2: 214 1071 137 876 0.809942 -0.58651<0 52.0039> 153 1207 185 1175 0.725953 0.687745<1.22266 52.345> 221.021 -359.351 249.338 -394.332 0.78968 0.613519<0.899891 102.151> 378 886 381 833 0.805056 0.593199<-13.2799 83.5485> 461.417 191.333 495.5 161.333 0.651699 0.758478<0 89.9901> 691 991 599 793 0.700932 -0.713229<0 76.7336>
LayerCount: 2
Back
SplineSet
330.005 -331.66 m 25,0,-1
 249.338 -394.332 l 25,1,-1
 221.021 -359.351 l 25,2,-1
 301.688 -296.68 l 25,3,-1
 330.005 -331.66 l 25,0,-1
153 1207 m 29,0,-1
 191 1243 l 29,1,-1
 222 1211 l 29,2,-1
 185 1175 l 29,3,-1
 153 1207 l 29,0,-1
461.417 191.333 m 25,0,-1
 520.417 260 l 25,1,-1
 554.5 230 l 25,2,-1
 495.5 161.333 l 25,3,-1
 461.417 191.333 l 25,0,-1
599 793 m 13,0,-1
 371 1025 l 21,1,-1
 539 878 l 4,2,-1
 691 991 l 13,3,-1
 919 759 l 21,4,-1
 733 906 l 4,5,-1
 599 793 l 13,0,-1
137 876 m 29,0,-1
 -211 1128 l 29,1,-1
 214 1071 l 29,2,-1
 562 819 l 29,3,-1
 137 876 l 29,0,-1
EndSplineSet
Fore
SplineSet
42 1011 m 3,0,1
 42 1111 42 1111 178 1231 c 0,2,3
 195 1246 195 1246 206 1246 c 27,4,5
 224 1246 224 1246 224 1226 c 27,6,7
 224 1214 224 1214 211 1201 c 0,8,9
 176 1166 176 1166 176 1130 c 131,-1,10
 176 1094 176 1094 234 1056 c 0,11,12
 319 1000 319 1000 354 896 c 0,13,14
 359 881 359 881 365 881 c 155,-1,15
 371 881 371 881 378 886 c 2,16,-1
 606 1054 l 2,17,18
 629 1071 629 1071 641.5 1071 c 131,-1,19
 654 1071 654 1071 654 1053 c 27,20,21
 654 1027 654 1027 709 974 c 8,22,23
 910 779 910 779 910 474 c 3,24,25
 910 75 910 75 261 -386 c 0,26,27
 250 -395 250 -395 234 -395 c 131,-1,28
 218 -395 218 -395 218 -374 c 27,29,30
 218 -363 218 -363 231 -352 c 8,31,32
 708 51 708 51 708 362.5 c 131,-1,33
 708 674 708 674 559 837 c 0,34,35
 515 885 515 885 483.5 885 c 155,-1,36
 452 885 452 885 434 872 c 2,37,-1
 381 833 l 10,38,39
 365 821 365 821 365 799 c 2,40,-1
 365 266 l 10,41,42
 365 194 365 194 434 194 c 27,43,44
 460 194 460 194 506 243 c 0,45,46
 519 257 519 257 529 257 c 27,47,48
 552 257 552 257 552 236 c 27,49,50
 552 227 552 227 540 213 c 0,51,52
 436 91 436 91 387 -6 c 0,53,54
 380 -20 380 -20 369 -20 c 131,-1,55
 358 -20 358 -20 345 -6 c 0,56,57
 217 131 217 131 102 145 c 0,58,59
 85 147 85 147 85 159 c 131,-1,60
 85 171 85 171 96 177 c 0,61,62
 162 213 162 213 162 292 c 2,63,-1
 162 811 l 2,64,65
 162 860 162 860 124 885 c 0,66,67
 42 938 42 938 42 1011 c 3,0,1
EndSplineSet
AlternateSubs2: "Access All Alternates" y.modern
Substitution2: "Modern variants" y.modern
Substitution2: "Modern y" y.modern
EndChar
StartChar: z
Encoding: 122 122 90
Width: 732
VWidth: 2065
GlyphClass: 1
Flags: MW
HStem: -386 45<318.25 357.5> 1051 20<317 329>
DStem2: 117.5 815.5 190 837.5 0.601151 0.799135<0 61.1644> 129 471 192.171 441.841 0.947385 0.320095<0 50.5135> 379.5 1021.5 149.5 941.5 0.796802 -0.604241<20.3616 66.7421> 503.5 510 524.5 470 0.879707 0.475517<0 146.661>
LayerCount: 2
Back
SplineSet
506 496 m 16,0,1
370 345 m 8,2,-1
356 338 m 0,3,4
 178 179 178 179 178 -39 c 3,5,6
 178 -167 178 -167 225 -259 c 24,7,8
 267 -341 267 -341 338 -341 c 131,-1,9
 409 -341 409 -341 453 -267 c 24,10,11
 501 -187 501 -187 501 -63 c 3,12,13
 501 232.255 501 232.255 358 357 c 0,14,15
 263 439 263 439 208.5 439 c 0,16,17
 186 439 186 439 169.5 433.5 c 128,-1,18
 153 428 153 428 144 428 c 27,19,20
 122 428 122 428 122 450 c 27,21,22
 122 468 122 468 142 475 c 0,23,24
 358 548 358 548 358 703 c 3,25,26
 358 757 358 757 324 801 c 24,27,28
 283 853 283 853 241 853 c 131,-1,29
 199 853 199 853 170 811 c 0,30,31
 156 791 156 791 144 791 c 3,32,33
 122 791 122 791 122 811 c 27,34,35
 122 821.707 122 821.707 132 835 c 2,36,-1
 299 1057 l 2,37,38
 309.532 1071 309.532 1071 323 1071 c 3,39,40
 336 1071 336 1071 347 1052.5 c 152,-1,41
 358 1034 358 1034 384 1016 c 0,42,43
 537 909 537 909 537 793.5 c 3,44,45
 537 681 537 681 433 586 c 8,46,47
 405.317 560.713 405.317 560.713 448 537 c 0,48,49
 661.296 415.538 661.296 415.538 664 60 c 0,50,51
 665.423 -127.089 665.423 -127.089 568 -257.5 c 24,52,53
 472 -386 472 -386 338 -386 c 131,-1,54
 204 -386 204 -386 122 -275 c 24,55,56
 59 -190 59 -190 59 -65 c 3,57,58
 59 224 59 224 310 384 c 16,59,60
502 509 m 0,61,62
 552 541 552 541 613 569 c 0,63,64
 626 575 626 575 634 575 c 27,65,66
 657 575 657 575 657 553 c 3,67,68
 657 541 657 541 638 531 c 0,69,70
 561 491 561 491 541 473 c 0,71,72
329.5 805 m 29,0,-1
 149.5 941.5 l 29,1,-1
 275 850 l 29,2,-1
 379.5 1021.5 l 29,3,-1
 559.5 885 l 29,4,-1
 428 975 l 29,5,-1
 329.5 805 l 29,0,-1
192.171 441.841 m 29,0,-1
 48.6709 393.348 l 29,1,-1
 129 471 l 29,2,-1
 272.514 519.489 l 29,3,-1
 192.171 441.841 l 29,0,-1
317 1071 m 25,4,-1
 329 1071 l 25,5,-1
 329 1051 l 25,6,-1
 317 1051 l 25,7,-1
 317 1071 l 25,4,-1
EndSplineSet
Fore
SplineSet
59 -65 m 3,0,1
 59 220 59 220 303 379 c 0,2,3
 312 384 312 384 312 389.5 c 139,-1,4
 312 395 312 395 302 401 c 0,5,6
 246 439 246 439 208 439 c 3,7,8
 186 439 186 439 169.5 433.5 c 128,-1,9
 153 428 153 428 144 428 c 27,10,11
 122 428 122 428 122 450 c 27,12,13
 122 468 122 468 142 475 c 0,14,15
 358 551 358 551 358 703 c 3,16,17
 358 757 358 757 324 801 c 24,18,19
 283 853 283 853 241 853 c 131,-1,20
 199 853 199 853 170 811 c 0,21,22
 156 791 156 791 144 791 c 3,23,24
 122 791 122 791 122 811 c 27,25,26
 122 822 122 822 132 835 c 2,27,-1
 299 1057 l 2,28,29
 310 1071 310 1071 323 1071 c 131,-1,30
 336 1071 336 1071 347 1052.5 c 152,-1,31
 358 1034 358 1034 384 1016 c 0,32,33
 537 909 537 909 537 793 c 3,34,35
 537 681 537 681 433 586 c 0,36,37
 419 573 419 573 419 563 c 131,-1,38
 419 553 419 553 434 545 c 0,39,40
 457 534 457 534 480 516 c 0,41,42
 487 510 487 510 496 510 c 131,-1,43
 505 510 505 510 513 516 c 0,44,45
 567 549 567 549 613 569 c 0,46,47
 627 575 627 575 634 575 c 27,48,49
 657 575 657 575 657 553 c 3,50,51
 657 540 657 540 638 531 c 0,52,53
 571 499 571 499 550 480 c 0,54,55
 542 473 542 473 542 467 c 131,-1,56
 542 461 542 461 548 454 c 0,57,58
 664 320 664 320 664 60 c 3,59,60
 664 -129 664 -129 568 -257.5 c 152,-1,61
 472 -386 472 -386 338 -386 c 131,-1,62
 204 -386 204 -386 122 -275 c 24,63,64
 59 -190 59 -190 59 -65 c 3,0,1
178 -39 m 3,65,66
 178 -167 178 -167 225 -259 c 24,67,68
 267 -341 267 -341 338 -341 c 131,-1,69
 409 -341 409 -341 453 -267 c 24,70,71
 501 -187 501 -187 501 -63 c 3,72,73
 501 211 501 211 382 333 c 0,74,75
 375 341 375 341 367 341 c 131,-1,76
 359 341 359 341 350 333 c 0,77,78
 178 175 178 175 178 -39 c 3,65,66
EndSplineSet
EndChar
StartChar: braceleft
Encoding: 123 123 91
Width: 616
VWidth: 2065
GlyphClass: 1
Flags: MW
HStem: -407 45<525.557 626.993> 498 45<79.0066 187.91> 1403 45<525.557 626.993>
DStem2: 438 1085 212 1213 0.157115 -0.98758<0 194.508> 212 -171.167 438 -43.167 0.157115 0.98758<161.918 356.427>
CounterMasks: 1 e0
LayerCount: 2
Fore
SplineSet
79 520 m 3,0,1
 79 543 79 543 106 543 c 3,2,3
 268 543 268 543 268 785 c 3,4,5
 268 861 268 861 254 949 c 128,-1,6
 240 1037 240 1037 240 1101 c 3,7,8
 240 1448 240 1448 600 1448 c 3,9,10
 627 1448 627 1448 627 1425.5 c 131,-1,11
 627 1403 627 1403 600 1403 c 3,12,13
 438 1403 438 1403 438 1161 c 3,14,15
 438 1085 438 1085 452 997 c 128,-1,16
 466 909 466 909 466 845 c 3,17,18
 466 647 466 647 349 562 c 0,19,20
 320 541 320 541 320 520.5 c 131,-1,21
 320 500 320 500 349 479 c 0,22,23
 466 395 466 395 466 196 c 3,24,25
 466 132 466 132 452 44 c 128,-1,26
 438 -44 438 -44 438 -120 c 3,27,28
 438 -362 438 -362 600 -362 c 3,29,30
 627 -362 627 -362 627 -384.5 c 131,-1,31
 627 -407 627 -407 600 -407 c 3,32,33
 240 -407 240 -407 240 -60 c 3,34,35
 240 4 240 4 254 92 c 128,-1,36
 268 180 268 180 268 256 c 3,37,38
 268 498 268 498 106 498 c 3,39,40
 79 498 79 498 79 520 c 3,0,1
EndSplineSet
EndChar
StartChar: bar
Encoding: 124 124 92
Width: 287
VWidth: 2065
GlyphClass: 1
Flags: MW
HStem: -407 21G<114 172.5> 1428 20G<114 172.5>
VStem: 106 75<-407 1448>
LayerCount: 2
Fore
SplineSet
106 -384 m 26,0,-1
 106 1425 l 18,1,2
 106 1448 106 1448 129 1448 c 2,3,-1
 158 1448 l 2,4,5
 181 1448 181 1448 181 1425 c 18,6,-1
 181 -384 l 2,7,8
 181 -407 181 -407 158 -407 c 2,9,-1
 129 -407 l 2,10,11
 106 -407 106 -407 106 -384 c 26,0,-1
EndSplineSet
EndChar
